<svg xmlns="http://www.w3.org/2000/svg" width="150" viewBox="0 0 258 82"><g fill="#B90504"><path d="M21.032 14.875v27.343c0 9.843-.748 17.902-8.865 24.521-3.511 2.936-6.965 4.433-10.303 5.238L.597 68.926c4.72-2.129 7.195-5.065 8.116-10.764.749-4.778.921-10.131.921-16.003V14.875c0-7.195-.921-7.713-7.426-8.289V3.592h25.73v2.994c-6.042.575-6.906 1.094-6.906 8.289zm35.793 23.621c-1.669.288-12.088 1.036-20.378 1.382.461 9.037 5.354 13.469 11.513 13.469 3.281 0 6.62-1.15 9.612-3.684l1.439 2.015c-5.181 7.771-11.973 9.44-15.427 9.44-11.397 0-17.672-8.289-17.672-18.017 0-6.102 2.476-11.398 6.274-15.082 3.914-3.741 8.692-5.929 13.182-5.929h.057c7.829 0 13.931 6.62 13.931 13.412-.113 1.555-.689 2.764-2.531 2.994zm-13.24-13.067h-.057c-3.281 0-6.16 3.684-6.735 10.419 3.511 0 6.792-.115 10.246-.288 1.267 0 1.727-.173 1.727-1.497.115-4.374-1.899-8.634-5.181-8.634zM57.582 60.14v-2.764c5.066-.863 5.583-1.15 5.583-6.619V12.363c0-5.123-.518-5.296-5.181-5.871v-2.59c4.95-.519 11.283-1.727 16.118-2.936v49.792c0 5.699.461 6.044 5.756 6.619v2.764H57.582v-.001zm18.844 0v-2.764c5.065-.863 5.583-1.15 5.583-6.619V12.363c0-5.123-.518-5.296-5.181-5.871v-2.59c4.951-.519 11.283-1.727 16.118-2.936v49.792c0 5.699.46 6.044 5.756 6.619v2.764H76.426v-.001zm51.425-28.264c-2.13 4.202-5.066 11.512-10.074 23.14-5.929 13.585-7.656 18.766-9.21 23.716-.691 1.842-1.785 2.303-3.108 2.303-2.36 0-6.044-2.36-6.044-5.469 0-1.439.576-2.188 2.36-3.281 3.396-1.842 5.526-3.511 7.195-6.331.863-1.382 1.266-2.304 1.612-3.282.403-1.381.23-2.705-.288-4.029-4.317-12.03-9.21-24.061-10.707-27.687-1.497-3.454-2.59-4.432-6.792-5.181v-2.706h21.298v2.706c-3.511.806-4.375 1.151-3.454 3.684l6.562 18.708c1.842-4.317 4.95-13.239 6.447-17.787.92-2.591.057-3.799-4.029-4.605v-2.706h15.427v2.706c-4.088.748-4.951 1.496-7.195 6.101zm27.927 28.264v-2.764c3.684-.518 4.202-1.093 4.202-6.216V33.143c0-5.124-.288-5.929-4.548-5.929h-9.152v24.119c0 4.893 1.036 5.468 5.123 6.043v2.764h-21.298v-2.764c4.605-.402 5.296-1.15 5.296-6.043V27.214h-5.986l-.288-1.094 2.59-3.051h3.685v-2.015c0-2.936.806-5.353 2.072-7.943 1.438-2.764 3.684-5.066 6.792-7.368 3.972-3.051 8.922-4.72 12.606-4.778 5.181.172 8.174 2.072 9.958 4.029 1.324 1.554 1.439 3.339.749 4.663-.576 1.094-1.497 2.13-2.591 2.706-1.612.921-2.764.749-3.511-.288-1.439-1.842-4.433-6.792-9.671-6.792-2.303 0-4.029 1.842-4.663 4.893-.575 2.188-.863 6.274-.863 9.958v2.936h8.577c3.856 0 11.282-.173 15.944-.979V51.16c0 5.123.461 5.698 5.181 6.216v2.764h-20.204zm32.987-34.711c-2.188 0-4.375 1.669-4.375 4.432 0 2.59 1.899 4.548 6.447 6.39 6.965 2.936 11.455 5.872 11.455 12.376 0 8.404-8.116 12.491-15.427 12.491-4.317 0-8.865-1.554-10.649-2.82-.46-1.324-1.209-7.196-1.324-11.57l2.533-.115c1.842 5.296 5.871 11.167 11.167 11.167 2.648 0 4.605-1.899 4.605-4.433 0-2.359-1.094-4.374-6.447-6.85-3.856-1.842-10.994-5.123-10.994-12.491 0-6.677 5.41-11.916 14.333-11.916 4.029-.115 6.389.633 8.288 1.381.922 1.957 1.958 8.001 2.073 9.728l-2.591.806c-2.245-4.949-5.007-8.576-9.094-8.576zM224.61 60.14v-2.764c4.202-.575 4.433-1.266 4.433-5.813V37c0-6.562-2.936-8.75-6.39-8.75-2.015 0-4.316.633-6.159 2.475v20.837c0 4.548.288 5.238 3.973 5.813v2.764h-20.263v-2.764c4.835-.518 5.354-.748 5.354-6.101V12.075c0-5.181-.346-5.181-4.777-5.698V3.901c4.432-.519 10.591-1.727 15.714-2.936v26.537c2.994-2.936 7.253-5.411 11.397-5.411 7.368 0 11.974 4.663 11.974 14.045v15.14c0 5.353.518 5.353 4.95 6.101v2.764H224.61v-.001z"/><path fill-rule="evenodd" clip-rule="evenodd" d="M252.087 50.557a5.315 5.315 0 1 1 0 10.63 5.315 5.315 0 0 1 0-10.63z"/></g></svg>