<?xml version="1.0" encoding="utf-8"?>
<!-- Generator: Adobe Illustrator 16.0.0, SVG Export Plug-In . SVG Version: 6.00 Build 0)  -->
<!DOCTYPE svg PUBLIC "-//W3C//DTD SVG 1.1//EN" "http://www.w3.org/Graphics/SVG/1.1/DTD/svg11.dtd">
<svg version="1.1" id="Layer_1" xmlns="http://www.w3.org/2000/svg" xmlns:xlink="http://www.w3.org/1999/xlink" x="0px" y="0px"
	 width="1915.89px" height="258.483px" viewBox="139.997 169.758 1915.89 258.483"
	 enable-background="new 139.997 169.758 1915.89 258.483" xml:space="preserve">
<g>
	<path fill="#333333" d="M478.438,231.355c-23.592-11.273-48.312-13.16-73.414-6.492c-32.673,8.676-55.109,29.128-66.886,60.922
		c-5.265,14.233-6.657,29.079-6.107,44.172c0.47,12.792,2.744,25.193,7.539,37.094c8.6,21.354,22.723,37.917,43.177,48.684
		c24.907,13.112,51.21,15.812,78.272,8.578c29.454-7.859,50.77-25.781,63.373-53.737c6.613-14.677,9.199-30.161,9.146-47.248
		c0.072-9.765-1.065-20.491-4.117-30.924C521.302,264.679,504.676,243.88,478.438,231.355z M505.567,369.309
		c-3.375,9.213-7.864,17.82-13.987,25.551c-8.909,11.242-20.167,19.113-33.82,23.428c-15.282,4.827-30.769,5.124-46.234,1.056
		c-19.243-5.059-33.485-16.76-43.535-33.713c-7.704-12.991-11.896-27.159-13.681-42.097c-1.331-11.143-1.478-22.295-0.495-33.475
		c1.55-17.604,6.027-34.328,15.771-49.27c12.365-18.964,29.838-30,52.346-32.839c15.063-1.895,29.69-0.254,43.607,6.055
		c16.779,7.62,28.536,20.292,36.365,36.789c5.668,11.936,8.836,24.558,9.971,37.69c0.469,5.367,0.662,10.768,0.981,16.156
		C512.643,339.914,510.834,354.887,505.567,369.309z M312.524,396.883c-0.378,0.07-0.596,0.061-0.723,0.162
		c-0.611,0.436-1.214,0.9-1.809,1.365c-8.823,6.988-18.286,12.812-28.995,16.504c-15.278,5.273-30.951,7.058-47.021,5.559
		c-11.68-1.094-22.617-4.535-32.686-10.602c-14.773-8.879-24.716-21.812-31.252-37.551c-5.552-13.379-8.013-27.379-8.558-41.785
		c-0.553-14.594,0.538-28.979,4.782-43.004c4.988-16.501,13.339-30.896,26.709-42.086c11.317-9.454,24.196-15.44,38.9-17.305
		c8.694-1.113,17.379-0.676,26.084-0.031c17.302,1.28,32.388,7.96,45.915,18.547c0.634,0.507,1.297,0.964,2.424,1.796
		c0-2.948-0.062-5.39,0.021-7.82c0.043-1.309-0.489-2.055-1.574-2.727c-7.746-4.813-15.744-9.074-24.567-11.629
		c-8.681-2.531-17.535-3.901-26.545-4.507c-12.751-0.856-25.376-0.305-37.772,3.032c-31.581,8.498-54.429,27.394-67.832,57.346
		c-5.702,12.723-7.825,26.248-8.014,40.11c-0.235,17.06,2.277,33.61,9.197,49.32c10.837,24.616,28.78,41.651,54.284,50.513
		c10,3.469,20.299,5.309,30.857,5.916c11.416,0.65,22.722-0.05,33.937-2.187c14.529-2.767,27.318-9.493,39.248-17.884
		c6.652-4.684,5.096-2.589,5.137-10.629C312.673,397.219,312.614,397.129,312.524,396.883z M1345.068,396.883
		c-0.381,0.07-0.592,0.061-0.724,0.162c-0.614,0.436-1.216,0.9-1.812,1.365c-8.821,6.988-18.283,12.812-28.99,16.504
		c-15.282,5.273-30.956,7.058-47.022,5.559c-11.684-1.094-22.615-4.535-32.687-10.602c-14.769-8.879-24.712-21.812-31.254-37.551
		c-5.546-13.379-8.015-27.379-8.554-41.785c-0.554-14.594,0.537-28.979,4.778-43.004c4.988-16.501,13.343-30.896,26.712-42.086
		c11.315-9.454,24.191-15.44,38.898-17.305c8.696-1.113,17.379-0.676,26.084-0.031c17.302,1.28,32.384,7.96,45.915,18.547
		c0.632,0.507,1.297,0.964,2.426,1.796c0-2.948-0.065-5.39,0.023-7.82c0.042-1.309-0.491-2.055-1.578-2.727
		c-7.747-4.813-15.745-9.074-24.566-11.629c-8.679-2.531-17.532-3.901-26.547-4.507c-12.754-0.856-25.37-0.305-37.771,3.032
		c-31.577,8.498-54.428,27.394-67.832,57.346c-5.692,12.723-7.822,26.248-8.012,40.11c-0.231,17.06,2.276,33.61,9.192,49.32
		c10.848,24.616,28.786,41.651,54.295,50.513c9.991,3.469,20.292,5.309,30.854,5.916c11.409,0.65,22.72-0.05,33.93-2.187
		c14.531-2.767,27.315-9.493,39.254-17.884c6.652-4.684,5.094-2.589,5.133-10.629
		C1345.215,397.219,1345.156,397.129,1345.068,396.883z M934.564,259.023c-1.977-11.144-7.588-19.925-17.701-25.41
		c-2.738-1.473-5.658-2.676-8.599-3.679c-6.771-2.301-13.812-3.179-20.918-3.719c-10.275-0.777-20.482-0.36-30.477,2.191
		c-23.938,6.104-45.605,16.753-64.594,32.657c-0.913,0.768-1.745,1.484-3.354,0.757c0-10.501,0-21.157,0-32.086
		c-6.553,0.301-12.751,0.586-19.03,0.878c0,66.032,0,131.748,0,197.629c6.74,0,13.326,0,20.316,0c0-1.488,0-2.712,0-3.921
		c0-50.784,0.018-101.582-0.066-152.369c-0.002-2.441,0.751-4.011,2.54-5.555c7.363-6.327,15.293-11.82,23.76-16.522
		c14.595-8.121,29.87-14.402,46.626-16.24c10.538-1.148,21.031-0.521,31.2,2.711c9.605,3.067,16.438,9.168,19.625,18.962
		c1.453,4.468,1.68,9.104,1.68,13.754c0.009,51.832,0.004,103.664,0.004,155.495c0,1.203,0,2.414,0,3.652c6.852,0,13.342,0,20.086,0
		c0-1.207,0-2.229,0-3.253c0-51.364,0.031-102.721-0.04-154.079C935.623,266.918,935.256,262.914,934.564,259.023z M732.663,259.023
		c-1.98-11.144-7.585-19.925-17.706-25.41c-2.727-1.473-5.653-2.676-8.593-3.679c-6.771-2.301-13.813-3.179-20.918-3.719
		c-10.279-0.777-20.485-0.36-30.478,2.191c-23.937,6.104-45.609,16.753-64.602,32.657c-0.901,0.768-1.742,1.484-3.347,0.757
		c0-10.501,0-21.157,0-32.086c-6.557,0.301-12.753,0.586-19.032,0.878c0,66.032,0,131.748,0,197.629c6.739,0,13.329,0,20.312,0
		c0-1.488,0-2.712,0-3.921c0-50.784,0.024-101.582-0.055-152.369c-0.004-2.441,0.744-4.011,2.54-5.555
		c7.357-6.327,15.285-11.82,23.749-16.522c14.596-8.121,29.878-14.402,46.629-16.24c10.538-1.148,21.034-0.521,31.204,2.711
		c9.604,3.067,16.437,9.168,19.621,18.962c1.453,4.468,1.684,9.104,1.684,13.754c0.007,51.832,0.007,103.664,0.007,155.495
		c0,1.203,0,2.414,0,3.652c6.853,0,13.335,0,20.091,0c0-1.207,0-2.229,0-3.253c0-51.364,0.02-102.721-0.047-154.079
		C733.715,266.918,733.351,262.914,732.663,259.023z M999.591,298.559c50.517,0,100.688,0,151.013,0
		c0.138-1.589,0.349-2.898,0.354-4.211c0.015-7.122-0.395-14.204-2.011-21.164c-5.475-23.438-19.032-39.704-42.374-46.868
		c-16.814-5.164-34.071-6.367-51.431-3.574c-18.255,2.948-34.074,11.083-47.534,23.805c-11.259,10.65-18.935,23.56-24.121,38.027
		c-5.352,14.926-6.888,30.387-6.351,46.146c0.492,14.24,3.072,28.025,8.703,41.163c9.597,22.397,25.638,38.339,48.04,47.894
		c11.715,4.991,23.98,7.441,36.661,8.22c21.392,1.309,41.651-2.621,60.655-12.651c6.391-3.38,12.301-7.465,17.664-12.32
		c0.674-0.612,1.531-1.396,1.631-2.18c0.231-1.916,0.072-3.871,0.072-5.826c-0.521,0.041-0.75-0.021-0.871,0.07
		c-0.522,0.404-1.009,0.852-1.519,1.286c-9.326,7.931-19.729,14.142-31.186,18.363c-18.749,6.922-38.117,8.004-57.651,4.366
		c-19.963-3.727-35.312-14.491-46.112-31.73c-7.567-12.085-11.708-25.374-13.773-39.386c-1.875-12.712-1.919-25.484-1.029-38.277
		C998.671,306.066,999.176,302.449,999.591,298.559z M1001.731,288.39c2.663-12.127,6.701-23.702,14.034-33.871
		c10.742-14.898,25.28-23.73,43.456-26.266c12.404-1.741,24.777-1.104,36.898,2.2c17.62,4.812,28.378,16.286,32.406,34.08
		c1.935,8.542,2.677,17.205,2.822,25.937c0.012,0.555-0.06,1.113-0.081,1.64c-2.123,0.595-126.996,0.727-130.246,0.13
		C1001.253,290.96,1001.448,289.656,1001.731,288.39z M1669.509,418.172c-6.78,3.488-14.109,4.285-21.548,3.96
		c-9.469-0.412-14.325-4.546-16.718-13.706c-0.046-0.18-0.07-0.379-0.114-0.555c-1.245-4.719-1.393-9.551-1.393-14.383
		c-0.021-43.684,0.018-87.371-0.058-131.04c-0.011-3.859-0.294-7.811-1.131-11.565c-2.342-10.485-9.146-17.394-18.7-21.787
		c-7.648-3.526-15.786-5.243-24.088-6.323c-10.443-1.348-20.953-1.5-31.476-1.339c-14.084,0.215-27.985,1.645-41.479,5.886
		c-4.125,1.287-8.195,2.755-12.244,4.125c0,2.672,0,4.931,0,7.324c0.484,0,0.692,0.06,0.85,0c1.223-0.518,2.433-1.042,3.648-1.581
		c8.973-3.918,18.256-6.847,27.977-8.195c13.757-1.915,27.57-2.235,41.396-1.021c7.377,0.646,14.618,1.994,21.509,4.911
		c5.853,2.472,9.757,6.707,11.851,12.652c1.403,3.982,1.859,8.101,1.853,12.296c-0.022,8.246-0.101,16.497,0.046,24.738
		c0.05,2.811-0.775,5.142-2.239,7.438c-2.865,4.461-6.754,7.905-10.937,11.043c-9.617,7.212-20.278,12.552-31.303,17.198
		c-13.693,5.755-27.485,11.303-41.205,17.018c-6.489,2.713-12.605,6.12-18.181,10.452c-7.379,5.724-12.874,12.821-15.397,21.931
		c-2.087,7.494-2.32,15.145-1.382,22.832c1.803,14.789,9.157,25.595,22.876,31.854c7.166,3.285,14.738,4.874,22.511,5.489
		c6.903,0.546,13.807,0.456,20.676-0.731c9.507-1.64,18.521-4.727,27.088-9.103c10.47-5.35,19.979-11.973,27.289-21.385
		c0.25-0.33,0.674-0.525,1.272-0.974c0.181,1.015,0.313,1.726,0.438,2.452c0.426,2.512,0.639,5.078,1.304,7.539
		c3.021,11.133,9.737,18.788,21.296,21.258c11.801,2.522,23.354,1.676,34.339-3.789c2.876-1.434,2.927-1.508,2.135-5.133
		C1670.012,418.031,1669.735,418.051,1669.509,418.172z M1607.949,392.566c-13.412,15.77-30.474,24.988-50.858,27.854
		c-8.772,1.229-17.59,0.586-26.086-2.319c-10.103-3.445-17.069-10.166-20.031-20.441c-3.685-12.812-3.368-25.665,1.247-38.219
		c3.687-10.035,11.098-16.892,20.38-21.604c7.243-3.675,14.795-6.748,22.304-9.875c11.972-4.982,24.002-9.835,35.134-16.593
		c3.469-2.104,6.811-4.457,10.092-6.849c3.539-2.59,6.65-5.628,8.914-9.458c0.197,0.04,0.395,0.07,0.593,0.099
		c0,0.922,0,1.835,0,2.749c0,29.919-0.016,59.852,0.035,89.771C1609.673,389.6,1609.205,391.098,1607.949,392.566z
		 M1466.229,412.703c-3.752,2.261-7.756,3.921-11.946,5.188c-7.607,2.305-15.414,2.978-23.302,2.957
		c-4.849,0-9.616-0.641-14.198-2.4c-7.706-2.967-12.726-8.295-14.823-16.344c-1.186-4.514-1.653-9.11-1.653-13.777
		c-0.004-51.34-0.004-102.7,0-154.055c0-0.811,0.105-1.638,0.181-2.705c7.113,0,14.021,0,20.925,0
		c6.916,0,13.833,0.029,20.751-0.011c6.863-0.04,13.73,0.176,20.587-0.141c0-2.085,0-3.829,0-5.824c-4.343,0-8.492,0-12.64,0
		c-4.171,0-8.338,0-12.51,0c-4.074,0-8.146,0-12.22,0c-4.17,0-8.336,0.009-12.51,0c-4.123-0.011-8.25-0.04-12.619-0.06
		c0-18.718,0-37.045,0-55.772c-6.858,2.633-13.354,5.118-20,7.665c0,16.07,0,31.961,0,48.128
		c-10.167,0.696-20.126,1.368-30.093,2.055c0,1.449,0,2.551,0,4c10.062,0,19.952,0,30.15,0c0,1.559,0,2.766,0,3.974
		c0,48.89-0.002,97.783,0.006,146.669c0,2.169-0.022,4.364,0.108,6.54c0.402,6.566,1.729,12.938,4.79,18.844
		c5.289,10.199,13.922,16.095,24.894,18.557c13.816,3.098,27.654,2.58,41.368-0.832c5.619-1.398,11.037-3.414,16.064-6.344
		c0.738-0.435,1.649-1.242,1.739-1.965c0.246-1.915,0.085-3.88,0.085-6.186C1468.007,411.662,1467.113,412.176,1466.229,412.703z
		 M1831.535,232.852c-19.812,48.152-39.609,96.304-59.414,144.46c-4.176,10.16-8.343,20.328-12.562,30.457
		c-0.392,0.953-0.388,2.332-2.298,2.612c-11.909-29.911-23.675-59.922-35.531-89.896c-11.91-30.093-23.765-60.206-35.604-90.202
		c-3.859-0.531-19.824-0.38-22.072,0.237c26.955,65.97,53.899,131.907,80.789,197.719c5.025,0,9.657,0,14.542,0
		c27.438-66.113,54.787-132.004,82.218-198.097c-3.248,0-6.063,0-8.884,0C1832.293,231.118,1831.887,231.97,1831.535,232.852z"/>
	<g>
		<path fill="#00B3F1" d="M2055.887,292.403c-8.123-27.724-24.751-48.523-50.988-61.048c-23.59-11.273-48.312-13.16-73.416-6.492
			c-32.673,8.676-55.109,29.128-66.88,60.922c-5.269,14.233-6.661,29.079-6.109,44.172c0.466,12.792,2.744,25.193,7.535,37.094
			c8.602,21.354,22.729,37.917,43.18,48.684c24.911,13.112,51.208,15.812,78.277,8.578c29.446-7.859,50.763-25.781,63.363-53.737
			c6.617-14.677,9.201-30.161,9.148-47.248C2060.069,313.562,2058.938,302.836,2055.887,292.403z"/>
	</g>
</g>
</svg>
