<?xml version="1.0" encoding="utf-8"?>
<!-- Generator: Adobe Illustrator 16.0.0, SVG Export Plug-In . SVG Version: 6.00 Build 0)  -->
<!DOCTYPE svg PUBLIC "-//W3C//DTD SVG 1.1//EN" "http://www.w3.org/Graphics/SVG/1.1/DTD/svg11.dtd">
<svg version="1.1" id="Layer_1" xmlns="http://www.w3.org/2000/svg" xmlns:xlink="http://www.w3.org/1999/xlink" x="0px" y="0px"
	 width="201.619px" height="214.12px" viewBox="1858.381 214.12 201.619 214.12"
	 enable-background="new 1858.381 214.12 201.619 214.12" xml:space="preserve">
<g>
	<g>
		<path fill="#00B3F1" d="M2055.887,292.403c-8.123-27.724-24.751-48.523-50.988-61.048c-23.59-11.273-48.312-13.16-73.416-6.492
			c-32.673,8.676-55.109,29.128-66.88,60.922c-5.269,14.233-6.661,29.079-6.109,44.172c0.466,12.792,2.744,25.193,7.535,37.094
			c8.602,21.354,22.729,37.917,43.18,48.684c24.911,13.112,51.208,15.812,78.277,8.578c29.446-7.859,50.763-25.781,63.363-53.737
			c6.617-14.677,9.201-30.161,9.148-47.248C2060.069,313.562,2058.938,302.836,2055.887,292.403z"/>
	</g>
</g>
</svg>
