<svg xmlns="http://www.w3.org/2000/svg" width="343.852" height="178.477" viewBox="0 0 343.852 178.477"><path fill="#47C0EF" d="M287.327 0h56.525v24.506h-10.273v87.634h10.273v24.525h-56.525V112.14h10.289V24.506h-10.289"/><path fill="#1F2A5B" d="M287.327 0h-46.41l-33.975 61.523L170.975 0h-47.842v24.506h13.33l-4.44 87.634h-8.89v24.525h50.928v-24.682h-10.463l2.586-57.209 33.518 54.15h11.636l30.444-53.358 2.347 56.417h-10.15v24.682h53.348V112.14h-8.864l-4.466-87.634h13.33"/><path fill="#1F2A5B" d="M46.584 27.305V66.49h10.28l8.671-.411c23.139-1.121 23.79-38.388.53-38.667l-9.2-.106M-.126 0h73.453c46.749 1.058 64.18 61.63 23.625 83.005l14.105 29.136H123.2v24.524H84.267L64.428 91.998l-.103-.237H46.584v20.381h11.252v24.524H-.126V112.14h10.289V24.506H-.126V0z"/><path d="M-.658 178.325v-17.169h4.392c1.773 0 3.181.43 4.223 1.29s1.562 2.024 1.562 3.49c0 1-.255 1.864-.766 2.593-.51.73-1.242 1.275-2.196 1.635.56.361 1.108.853 1.644 1.475.535.623 1.288 1.709 2.259 3.258.61.975 1.1 1.708 1.468 2.199l.928 1.229H9.87l-.765-1.132a3.37 3.37 0 0 0-.15-.209l-.489-.676-.777-1.254-.839-1.341c-.518-.705-.993-1.267-1.424-1.683-.431-.418-.821-.719-1.168-.902-.347-.184-.932-.275-1.752-.275h-.654v7.472h-2.51zm3.262-15.08h-.752v5.42h.954c1.271 0 2.144-.106 2.616-.319s.841-.535 1.104-.965c.264-.43.396-.92.396-1.469 0-.541-.146-1.03-.439-1.469-.293-.438-.705-.748-1.236-.928s-1.413-.27-2.643-.27zm12.185-2.089h9.938v2.188h-7.429v5.235h7.178v2.2h-7.178v5.334h7.667v2.188H14.789v-17.145zm25.209 0h2.51v17.169h-2.51v-7.472h-9.851v7.472h-2.509v-17.169h2.509v7.423h9.851v-7.423zm20.315 0h2.347v17.169h-2.522v-13.359l-5.389 6.637h-.464l-5.452-6.637v13.359h-2.51v-17.169h2.376l5.825 7.051 5.789-7.051zm11.721-.099h1.764l7.86 17.268H79.09l-2.336-5.088h-7.479l-2.19 5.088h-2.579l7.528-17.268zm3.688 9.992l-2.828-6.219-2.623 6.219h5.451zm21.784-9.893h2.384v17.169h-2.158l-11.72-13.224v13.224h-2.359v-17.169h2.033l11.82 13.335v-13.335zm27.218 0h2.347v17.169h-2.522v-13.359l-5.389 6.637h-.464l-5.452-6.637v13.359h-2.51v-17.169h2.376l5.825 7.051 5.789-7.051zm6.123 0h9.938v2.188h-7.429v5.235h7.178v2.2h-7.178v5.334h7.667v2.188h-10.176v-17.145zm12.875 17.145v-17.145h5.91c2.384 0 4.271.35 5.659 1.051 1.389.7 2.493 1.73 3.313 3.091a8.456 8.456 0 0 1 1.229 4.448 8.24 8.24 0 0 1-.678 3.295 8.316 8.316 0 0 1-1.932 2.765 8.524 8.524 0 0 1-2.974 1.856c-.661.254-1.267.424-1.819.51s-1.606.129-3.162.129h-5.546zm5.646-14.957h-3.137v12.77h3.212c1.255 0 2.229-.084 2.923-.252s1.274-.381 1.738-.639a5.946 5.946 0 0 0 1.273-.953c1.238-1.229 1.857-2.781 1.857-4.658 0-1.844-.636-3.347-1.908-4.51a6.087 6.087 0 0 0-1.612-1.07 6.9 6.9 0 0 0-1.725-.553c-.542-.091-1.416-.135-2.621-.135zm13.628-2.188h2.51v17.169h-2.51v-17.169zm21.508 13.188v2.703c-1.841.983-3.966 1.475-6.375 1.475-1.957 0-3.618-.385-4.981-1.154-1.364-.771-2.443-1.832-3.238-3.184s-1.192-2.814-1.192-4.388c0-2.499.91-4.601 2.729-6.305 1.82-1.704 4.063-2.557 6.733-2.557 1.84 0 3.885.472 6.135 1.413v2.643c-2.049-1.146-4.053-1.721-6.01-1.721-2.008 0-3.675.621-5 1.862-1.327 1.241-1.989 2.796-1.989 4.664 0 1.885.652 3.433 1.958 4.646 1.305 1.213 2.973 1.818 5.006 1.818 2.125.001 4.199-.638 6.224-1.915zm9.301-13.287h1.764l7.859 17.268h-2.568l-2.336-5.088h-7.479l-2.191 5.088h-2.578l7.529-17.268zm3.688 9.992l-2.828-6.219-2.623 6.219h5.451zm7.855-9.893h2.51v14.932h7.893v2.237h-10.402v-17.169zm19.764 0h2.51v17.169h-2.51v-17.169zm20.328 0h2.385v17.169h-2.158l-11.721-13.224v13.224h-2.359v-17.169h2.033l11.82 13.335v-13.335zm10.478 9.975l-1.908-1.135c-1.195-.715-2.047-1.419-2.553-2.111s-.76-1.489-.76-2.391c0-1.352.479-2.449 1.438-3.293.957-.844 2.201-1.267 3.732-1.267 1.465 0 2.807.402 4.028 1.208v2.789c-1.263-1.189-2.622-1.785-4.078-1.785-.819 0-1.493.186-2.021.558-.527.371-.791.847-.791 1.426 0 .515.195.996.583 1.444.388.449 1.013.921 1.872 1.414l1.918 1.111c2.138 1.251 3.207 2.843 3.207 4.776 0 1.376-.471 2.495-1.412 3.355s-2.164 1.29-3.67 1.29c-1.732 0-3.309-.521-4.73-1.563v-3.122c1.354 1.682 2.924 2.523 4.705 2.523.786 0 1.441-.215 1.964-.644s.784-.966.784-1.61c.001-1.044-.768-2.035-2.308-2.973zm5.935-10h14.644v2.188h-6.11v15.007h-2.522v-15.007h-6.011v-2.188zm17.041.025h2.51v17.169h-2.51v-17.169zm4.905-.025h14.645v2.188h-6.111v15.007h-2.521v-15.007H283.8v-2.188zm29.213.025h2.521v9.746c0 1.318-.098 2.314-.295 2.986-.195.672-.439 1.23-.727 1.678a5.375 5.375 0 0 1-1.061 1.197c-1.389 1.172-3.205 1.758-5.445 1.758-2.285 0-4.117-.582-5.498-1.744a5.637 5.637 0 0 1-1.059-1.211c-.289-.447-.527-.994-.717-1.641-.188-.647-.281-1.664-.281-3.049v-9.721h2.521v9.746c0 1.613.189 2.736.564 3.367.377.631.949 1.137 1.719 1.518.771.381 1.678.572 2.725.572 1.488 0 2.701-.382 3.639-1.144a3.564 3.564 0 0 0 1.066-1.45c.217-.557.326-1.512.326-2.863v-9.745zm4.506-.025h14.643v2.188h-6.111v15.007h-2.521v-15.007h-6.01v-2.188zm17.016.025h9.938v2.188h-7.428v5.235h7.178v2.2h-7.178v5.334h7.666v2.188h-10.176v-17.145z" fill="#47C0EF"/></svg>