<svg xmlns="http://www.w3.org/2000/svg" width="300" height="129.816" viewBox="0 0 300 129.816"><path fill="#ED1C24" d="M176.276 67.933c-.348 1.775-1.209 3.998-3.287 5.511-3.972 2.89-10.016 2.499-13.291 2.499-3.271 0-14.879-.006-14.879-.006l8.846-23.694 8.744-.011s2.038.086 3.835-.775c1.8-.861 3.083-2.263 3.154-4.793.071-2.657-1.056-4.331-2.865-5.287-1.463-.777-3.424-.869-4.067-.874h-4.032s2.18-6.178 2.72-7.301c.992-.268 6.797-.689 11.441 1.901.551-.794 1.281-1.507 2.276-2.111 11.613-7.059 35.804-3.101 47.966-8.57C238.068 17.574 242.627 0 242.627 0c-1.34 28.346-19.64 33.48-37.944 35.21-11.735 1.111-20.443 1.553-27.005 5.67.183.469.34.965.471 1.49v-.001c8.798-5.523 20.84-4.478 28.729-4.612 32.922-.558 36.793-18.935 36.793-18.935-7.144 29.911-29.428 26.581-43.75 25.966-6.338-.27-13.047-1.482-21.397 1.383l-.006-.026a13.69 13.69 0 0 1-.216 2.091c7.119-1.84 16.012-.35 28.279 1.39 17.855 2.529 27.01-5.209 27.01-5.209-11.943 16.629-31.697 11.719-37.278 10.491-4.201-.925-12.013-2.862-19.567-2.713a9.669 9.669 0 0 1-1.443 1.706V53.9c.068-.005.14-.014.207-.02 8.217-.743 16.896 3.148 16.896 3.148 12.279 6.138 25.335 3.013 25.335 3.013s-2.341 4.799-15.4 5.916c-12.019 1.027-19.879-7.819-30.105-10.067-.568.245-1.102.416-1.548.532.293.211 2.356.99 3.94 3.012v.002c2.166.913 4.844 2.354 8.258 4.473 8.256 5.134 19.194 4.388 19.194 4.388s-5.804 4.171-17.707 2.532c-3.475-.476-6.076-1.553-8.097-2.896m-23.065-9.296l3.76 9.993h3.188s2.432.12 4.041-.42c1.618-.534 2.391-1.348 2.823-2.38.426-1.027.549-2.699.106-4.086-.416-1.261-1.305-2.409-3.92-2.995-.464-.104-1.197-.151-2.463-.17-3.037-.05-7.535.058-7.535.058M128.467 47.824c-6.981-10.813-17.471-11.062-33.88-12.614C76.284 33.479 57.979 28.346 56.641 0c0 0 4.561 17.573 19.792 24.421 12.165 5.469 36.35 1.511 47.966 8.57 3.112 1.892 5.184 4.674 6.753 7.732l2.842-7.522h9.648l7.406 19.803-5.021 13.418h-15.37l-3.357 9.515h-9.457l2.483-6.564c-1.532.658-3.321 1.169-5.428 1.458-11.903 1.64-17.707-2.532-17.707-2.532s10.938.746 19.196-4.388c3.064-1.905 5.539-3.259 7.58-4.178l1.277-3.376c-9.379 2.795-17.005 10.568-28.314 9.601-13.057-1.116-15.401-5.915-15.401-5.915s13.058 3.125 25.335-3.013c0 0 10.386-4.657 19.186-2.81l.646-1.704c-8.694-1.226-18.754 1.297-23.739 2.393-5.58 1.228-25.335 6.138-37.275-10.491 0 0 9.15 7.738 27.007 5.208 16.146-2.286 26.452-4.148 34.549 1.456l.613-1.625c-11.829-6.869-20.461-5.011-28.502-4.668-14.323.615-36.607 3.945-43.75-25.966 0 0 3.87 18.377 36.793 18.935 10.238.174 27.474-1.64 35.532 11.504v.002l.543-1.44zm10.328-4.097h-.129l-5.562 15.68h11.066l-5.375-15.68zM4.428 125.341l-2.037 4.476H0l8.525-18.612 8.525 18.612h-2.391l-2.037-4.476H4.428zm4.097-9.26l-3.174 7.224h6.348l-3.174-7.224zM25.446 111.108l13.404 14.043v-13.19h2.225v18.59l-13.403-14.043v13.308h-2.226zM67.636 120.817v.712c0 4.901-3.457 8.665-8.454 8.665-4.996 0-9.022-4.311-9.022-9.257 0-5.14 4.12-9.356 9.259-9.356 2.771 0 5.517 1.255 7.269 3.457l-1.562 1.493c-1.279-1.753-3.434-2.912-5.613-2.912-4.002 0-7.128 3.243-7.128 7.246 0 3.741 3.079 7.293 6.939 7.293 2.771 0 5.754-2.391 5.849-5.305h-4.617v-2.036h7.08zM88.063 129.816h-2.7l-5.257-7.555h-.923v7.555h-2.226v-17.854h2.699c1.587 0 3.293.022 4.713.828 1.491.875 2.345 2.558 2.345 4.262 0 2.559-1.706 4.689-4.287 4.998l5.636 7.766zm-8.88-9.402h.71c2.274 0 4.736-.426 4.736-3.267 0-2.795-2.652-3.196-4.854-3.196h-.592v6.463zM94.61 111.961h2.557l4.381 7.624 4.382-7.624h2.557l-5.825 10.088v7.767h-2.226v-7.767zM130.909 111.961h2.179c3.362 0 6.535.875 6.535 4.901 0 1.304-.711 2.819-1.918 3.386v.048c2.107.379 3.577 2.44 3.577 4.524 0 3.575-3.057 4.996-6.205 4.996h-4.168v-17.855zm2.225 7.909h.569c2.107 0 3.835-.426 3.835-2.984 0-2.509-1.704-2.935-3.789-2.935h-.615v5.919zm0 7.956h1.705c2.061 0 4.215-.615 4.215-3.149 0-2.51-2.557-3.03-4.547-3.03h-1.373v6.179zM153.417 125.341l-2.037 4.476h-2.392l8.525-18.612 8.524 18.612h-2.391l-2.037-4.476h-8.192zm4.096-9.26l-3.175 7.224h6.347l-3.172-7.224zM176.872 127.78h5.421v2.036h-7.648v-17.855h2.227zM193.102 127.78h5.422v2.036h-7.647v-17.855h2.225zM207.106 111.961h9.592v2.036h-7.366v4.996h7.151v2.038h-7.151v6.749h7.366v2.036h-9.592zM237.666 129.816h-2.7l-5.256-7.555h-.924v7.555h-2.227v-17.854h2.699c1.586 0 3.291.022 4.713.828 1.492.875 2.344 2.558 2.344 4.262 0 2.559-1.705 4.689-4.286 4.998l5.637 7.766zm-8.88-9.402h.71c2.272 0 4.735-.426 4.735-3.267 0-2.795-2.651-3.196-4.854-3.196h-.592v6.463zM246.461 111.961h2.227v17.855h-2.227zM258.924 111.108l13.405 14.043v-13.19h2.224v18.59l-13.402-14.043v13.308h-2.227zM287.379 125.341l-2.037 4.476h-2.392l8.524-18.612L300 129.816h-2.391l-2.037-4.476h-8.193zm4.096-9.26l-3.174 7.224h6.349l-3.175-7.224z"/></svg>