<?xml version="1.0" encoding="utf-8"?>
<!-- Generator: Adobe Illustrator 16.0.0, SVG Export Plug-In . SVG Version: 6.00 Build 0)  -->
<!DOCTYPE svg PUBLIC "-//W3C//DTD SVG 1.1//EN" "http://www.w3.org/Graphics/SVG/1.1/DTD/svg11.dtd">
<svg version="1.1" id="Layer_1" xmlns="http://www.w3.org/2000/svg" xmlns:xlink="http://www.w3.org/1999/xlink" x="0px" y="0px"
	 width="300px" height="129.816px" viewBox="0 0 300 129.816" enable-background="new 0 0 300 129.816" xml:space="preserve">
<path fill="#ED1C24" d="M126.85,52.007"/>
<path fill="#ED1C24" d="M176.276,67.933c-0.348,1.775-1.209,3.998-3.287,5.511c-3.972,2.89-10.016,2.499-13.291,2.499
	c-3.271,0-14.879-0.006-14.879-0.006l8.846-23.694l8.744-0.011c0,0,2.038,0.086,3.835-0.775c1.8-0.861,3.083-2.263,3.154-4.793
	c0.071-2.657-1.056-4.331-2.865-5.287c-1.463-0.777-3.424-0.869-4.067-0.874h-4.032c0,0,2.18-6.178,2.72-7.301
	c0.992-0.268,6.797-0.689,11.441,1.901c0.551-0.794,1.281-1.507,2.276-2.111c11.613-7.059,35.804-3.101,47.966-8.57
	C238.068,17.574,242.627,0,242.627,0c-1.34,28.346-19.64,33.48-37.944,35.21c-11.735,1.111-20.443,1.553-27.005,5.67
	c0.183,0.469,0.34,0.965,0.471,1.49v-0.001c8.798-5.523,20.84-4.478,28.729-4.612c32.922-0.558,36.793-18.935,36.793-18.935
	c-7.144,29.911-29.428,26.581-43.75,25.966c-6.338-0.27-13.047-1.482-21.397,1.383l-0.006-0.026
	c-0.021,0.747-0.097,1.443-0.216,2.091c7.119-1.84,16.012-0.35,28.279,1.39c17.855,2.529,27.01-5.209,27.01-5.209
	c-11.943,16.629-31.697,11.719-37.278,10.491c-4.201-0.925-12.013-2.862-19.567-2.713c-0.438,0.658-0.927,1.223-1.443,1.706V53.9
	c0.068-0.005,0.14-0.014,0.207-0.02c8.217-0.743,16.896,3.148,16.896,3.148c12.279,6.138,25.335,3.013,25.335,3.013
	s-2.341,4.799-15.4,5.916c-12.019,1.027-19.879-7.819-30.105-10.067c-0.568,0.245-1.102,0.416-1.548,0.532
	c0.293,0.211,2.356,0.99,3.94,3.012v0.002c2.166,0.913,4.844,2.354,8.258,4.473c8.256,5.134,19.194,4.388,19.194,4.388
	s-5.804,4.171-17.707,2.532C180.898,70.353,178.297,69.276,176.276,67.933 M153.211,58.637l3.76,9.993h3.188
	c0,0,2.432,0.12,4.041-0.42c1.618-0.534,2.391-1.348,2.823-2.38c0.426-1.027,0.549-2.699,0.106-4.086
	c-0.416-1.261-1.305-2.409-3.92-2.995c-0.464-0.104-1.197-0.151-2.463-0.17C157.709,58.529,153.211,58.637,153.211,58.637"/>
<path fill="#ED1C24" d="M128.467,47.824c-6.981-10.813-17.471-11.062-33.88-12.614C76.284,33.479,57.979,28.346,56.641,0
	c0,0,4.561,17.573,19.792,24.421c12.165,5.469,36.35,1.511,47.966,8.57c3.112,1.892,5.184,4.674,6.753,7.732l2.842-7.522h9.648
	l7.406,19.803l-5.021,13.418h-15.37l-3.357,9.515h-9.457l2.483-6.564c-1.532,0.658-3.321,1.169-5.428,1.458
	c-11.903,1.64-17.707-2.532-17.707-2.532s10.938,0.746,19.196-4.388c3.064-1.905,5.539-3.259,7.58-4.178l1.277-3.376
	c-9.379,2.795-17.005,10.568-28.314,9.601c-13.057-1.116-15.401-5.915-15.401-5.915s13.058,3.125,25.335-3.013
	c0,0,10.386-4.657,19.186-2.81l0.646-1.704c-8.694-1.226-18.754,1.297-23.739,2.393c-5.58,1.228-25.335,6.138-37.275-10.491
	c0,0,9.15,7.738,27.007,5.208c16.146-2.286,26.452-4.148,34.549,1.456l0.613-1.625c-11.829-6.869-20.461-5.011-28.502-4.668
	c-14.323,0.615-36.607,3.945-43.75-25.966c0,0,3.87,18.377,36.793,18.935c10.238,0.174,27.474-1.64,35.532,11.504v0.002
	L128.467,47.824z M138.795,43.727h-0.129l-5.562,15.68h11.066L138.795,43.727z"/>
<path fill="#ED1C24" d="M4.428,125.341l-2.037,4.476H0l8.525-18.612l8.525,18.612h-2.391l-2.037-4.476H4.428z M8.525,116.081
	l-3.174,7.224h6.348L8.525,116.081z"/>
<polygon fill="#ED1C24" points="25.446,111.108 38.85,125.151 38.85,111.961 41.075,111.961 41.075,130.551 27.672,116.508
	27.672,129.816 25.446,129.816 "/>
<path fill="#ED1C24" d="M67.636,120.817v0.712c0,4.901-3.457,8.665-8.454,8.665c-4.996,0-9.022-4.311-9.022-9.257
	c0-5.14,4.12-9.356,9.259-9.356c2.771,0,5.517,1.255,7.269,3.457l-1.562,1.493c-1.279-1.753-3.434-2.912-5.613-2.912
	c-4.002,0-7.128,3.243-7.128,7.246c0,3.741,3.079,7.293,6.939,7.293c2.771,0,5.754-2.391,5.849-5.305h-4.617v-2.036H67.636z"/>
<path fill="#ED1C24" d="M88.063,129.816h-2.7l-5.257-7.555h-0.923v7.555h-2.226v-17.854h2.699c1.587,0,3.293,0.022,4.713,0.828
	c1.491,0.875,2.345,2.558,2.345,4.262c0,2.559-1.706,4.689-4.287,4.998L88.063,129.816z M79.183,120.414h0.71
	c2.274,0,4.736-0.426,4.736-3.267c0-2.795-2.652-3.196-4.854-3.196h-0.592V120.414z"/>
<polygon fill="#ED1C24" points="94.61,111.961 97.167,111.961 101.548,119.585 105.93,111.961 108.487,111.961 102.662,122.049
	102.662,129.816 100.436,129.816 100.436,122.049 "/>
<path fill="#ED1C24" d="M130.909,111.961h2.179c3.362,0,6.535,0.875,6.535,4.901c0,1.304-0.711,2.819-1.918,3.386v0.048
	c2.107,0.379,3.577,2.44,3.577,4.524c0,3.575-3.057,4.996-6.205,4.996h-4.168V111.961z M133.134,119.87h0.569
	c2.107,0,3.835-0.426,3.835-2.984c0-2.509-1.704-2.935-3.789-2.935h-0.615V119.87z M133.134,127.826h1.705
	c2.061,0,4.215-0.615,4.215-3.149c0-2.51-2.557-3.03-4.547-3.03h-1.373V127.826z"/>
<path fill="#ED1C24" d="M153.417,125.341l-2.037,4.476h-2.392l8.525-18.612l8.524,18.612h-2.391l-2.037-4.476H153.417z
	 M157.513,116.081l-3.175,7.224h6.347L157.513,116.081z"/>
<polygon fill="#ED1C24" points="176.872,127.78 182.293,127.78 182.293,129.816 174.645,129.816 174.645,111.961 176.872,111.961
	"/>
<polygon fill="#ED1C24" points="193.102,127.78 198.524,127.78 198.524,129.816 190.877,129.816 190.877,111.961 193.102,111.961
	"/>
<polygon fill="#ED1C24" points="207.106,111.961 216.698,111.961 216.698,113.997 209.332,113.997 209.332,118.993 216.483,118.993
	216.483,121.031 209.332,121.031 209.332,127.78 216.698,127.78 216.698,129.816 207.106,129.816 "/>
<path fill="#ED1C24" d="M237.666,129.816h-2.7l-5.256-7.555h-0.924v7.555h-2.227v-17.854h2.699c1.586,0,3.291,0.022,4.713,0.828
	c1.492,0.875,2.344,2.558,2.344,4.262c0,2.559-1.705,4.689-4.286,4.998L237.666,129.816z M228.786,120.414h0.71
	c2.272,0,4.735-0.426,4.735-3.267c0-2.795-2.651-3.196-4.854-3.196h-0.592V120.414z"/>
<rect x="246.461" y="111.961" fill="#ED1C24" width="2.227" height="17.855"/>
<polygon fill="#ED1C24" points="258.924,111.108 272.329,125.151 272.329,111.961 274.553,111.961 274.553,130.551 261.151,116.508
	261.151,129.816 258.924,129.816 "/>
<path fill="#ED1C24" d="M287.379,125.341l-2.037,4.476h-2.392l8.524-18.612L300,129.816h-2.391l-2.037-4.476H287.379z
	 M291.475,116.081l-3.174,7.224h6.349L291.475,116.081z"/>
<g>
</g>
<g>
</g>
<g>
</g>
<g>
</g>
<g>
</g>
<g>
</g>
</svg>
