<svg xmlns="http://www.w3.org/2000/svg" width="360" height="360" viewBox="0 0 360 360"><path fill="#50A5DC" d="M77.143 51.429s-25.714 0-25.714-25.714S77.143 0 77.143 0s25.714 0 25.714 25.714c0 0 25.714-12.857 77.143-12.857s77.143 12.857 77.143 12.857S257.143 0 282.857 0s25.714 25.714 25.714 25.714 0 25.714-25.714 25.714c0 0-25.715 154.285-102.857 154.285-77.143.001-102.857-154.284-102.857-154.284z"/><path fill="#008BCE" d="M231.344 178.515c-.63-7.073-5.974-37.086-51.344-37.086-45.371 0-50.714 30.014-51.343 37.086 13.282 15.597 29.531 26.415 49.188 27.155.715.018 1.421.044 2.155.044s1.44-.026 2.155-.044c19.658-.74 35.906-11.558 49.189-27.155z"/><path fill="#231F20" d="M180 154.286s25.714 0 25.714 12.857S180 186.429 180 186.429s-25.714-6.429-25.714-19.286c0-12.857 25.714-12.857 25.714-12.857zM154.286 199.286s25.714 0 25.714-12.857c0 0 0 19.285-25.714 12.857zM180 186.429s0 19.285 25.714 12.857c0 0-25.714 0-25.714-12.857"/><path fill="#FFD105" d="M166.429 143.626s13.571-4.945 27.143 0v4.945s-13.571-4.945-27.143 0v-4.945z"/><path fill="#FFD105" d="M215.357 122.143c-12.427 0-22.5 10.074-22.5 22.5s10.073 22.5 22.5 22.5c12.426 0 22.5-10.074 22.5-22.5s-10.074-22.5-22.5-22.5zm0 41.428c-10.454 0-18.929-8.477-18.929-18.928 0-10.452 8.475-18.929 18.929-18.929 10.452 0 18.929 8.477 18.929 18.929 0 10.452-8.476 18.928-18.929 18.928zM144.643 122.143c-12.427 0-22.5 10.074-22.5 22.5s10.073 22.5 22.5 22.5c12.426 0 22.5-10.074 22.5-22.5s-10.074-22.5-22.5-22.5zm0 41.428c-10.453 0-18.929-8.477-18.929-18.928 0-10.452 8.476-18.929 18.929-18.929 10.453 0 18.928 8.477 18.928 18.929 0 10.452-8.475 18.928-18.928 18.928z"/><path fill="#FFF" d="M122.143 109.286s19.286-6.429 38.571 0c0 0 0-38.571-19.286-38.571s-19.285 38.571-19.285 38.571z"/><circle fill="#231F20" cx="141.428" cy="102.857" r="6.428"/><path fill="#FFF" d="M199.286 109.286s19.285-6.429 38.571 0c0 0 0-38.571-19.286-38.571-19.285-.001-19.285 38.571-19.285 38.571z"/><circle fill="#231F20" cx="218.571" cy="102.857" r="6.429"/><path fill="#D71920" d="M180 218.571l128.571-64.285v141.428L180 360z"/><path fill="#AC0F0F" d="M180 218.571L51.429 154.286v141.428L180 360z"/><path fill="#FFD105" d="M218.492 247.049a12.3 12.3 0 0 1-2.49 1.659c-6.584 3.355-10.117.004-10.117-5.733 0-7.258 5.62-18.356 17.827-24.576 7.548-3.847 14.293-3.731 14.293 3.411 0 3.551-1.766 8.002-5.5 11.817 5.1-.531 7.548 2.71 7.548 7.275 0 6.479-4.938 15.591-14.214 20.316-4.696 2.394-7.508 2.967-9.354 3.166-2.008 2.311-4.136 3.903-6.183 4.946l.681-5.382a10.584 10.584 0 0 1 1.567-.954c1.365-.694 2.771-1.062 3.935-1.068 2.851-4.185 4.496-11.696 5.862-21.877 1.043-7.829 1.927-13.195 3.011-16.87l3.734-1.006c-1.004 3.284-1.928 7.148-2.73 13.411 1.245-.596 2.409-1.07 3.453-1.408 3.092-3.058 4.537-6.954 4.537-10.115 0-6.089-5.38-6.392-10.881-3.589-9.756 4.972-14.294 14.229-14.294 20.122 0 4.293 2.449 6.792 6.986 4.48a12.283 12.283 0 0 0 1.688-1.055l.641 3.03zm17.666-4.357c0-4.138-1.968-7.272-6.063-6.902a26.588 26.588 0 0 1-4.056 2.653c-1.364 11.036-4.216 18.46-7.548 23.357 1.847-.276 4.095-.877 7.347-2.534 6.747-3.436 10.32-10.954 10.32-16.574zm17.184-13.868c.241-.123 1.125-.261 1.125-.026-2.008 6.135-4.016 11.216-7.95 13.221-3.493 1.78-4.938-.605-4.938-4.273 0-5.307 3.011-13.32 7.508-15.612 2.008-1.022 3.012-.13 3.012 1.666 0 2.772-2.409 7.745-7.146 10.901v.584c0 2.343.682 3.868 2.529 2.927 2.367-1.207 4.334-4.631 5.86-9.388zm-8.27 4.331c3.011-2.979 4.336-6.348 4.336-7.791 0-.585-.241-.853-.643-.647-1.646.839-3.211 4.954-3.693 8.438zm17.585-17.507l2.851-1.453c-1.205 5.804-1.967 10.407-2.529 14.559-.08.469-.08.781-.08 1.055 0 .586.12.797.321.694.441-.226 2.128-2.956 4.055-8.778.241-.123 1.124-.26 1.124-.026-2.448 7.492-4.416 11.226-6.263 12.167-1.285.655-2.008-.108-2.008-2.801v-.43c-.925 2.853-2.329 5.636-4.658 6.822-1.968 1.003-2.77-.696-2.77-3.545 0-5.503 3.091-15.195 6.906-17.139 1.484-.757 2.328-.328 2.609 1.284l.442-2.409zm-6.585 16.156c0 1.21.241 1.906.843 1.601 1.848-.942 4.136-8.469 4.136-12.099 0-1.443-.361-2.273-1.245-1.824-1.686.859-3.734 8.771-3.734 12.322zm14.735-12.581c0-1.171-.361-1.884-.803-2.479l-1.605 4.954s-1.124.378-1.124.066v-.04c.723-2.241 1.244-4.458 1.646-6.535-.401-.654-.723-1.544-.723-2.911 0-1.247.281-2.953.924-5.31l3.012-.676c-.161 2.657-.482 4.694-1.125 7.051 1.325.652 3.052 1.334 3.052 3.559 0 2.498-2.689 7.771-2.689 11.166 0 4.331 2.77 4.559 5.66 3.086 3.533-1.8 5.502-5.533 5.502-8.384 0-1.717-.724-3.065-2.209-3.519l2.288-3.937c2.209.514 3.293 2.42 3.293 4.879 0 4.216-3.172 10.007-8.913 12.932-4.457 2.271-8.833 1.613-8.833-3.461-.002-3.629 2.647-8.452 2.647-10.441zm-19.574 32.032c-.643 4.716-.815 8.517-.815 11.216 0 3.002.208 4.635.208 4.635 1.996-10.939 4.705-19.777 9.062-21.997 1.198-.61 1.979-.655 2.553-.339l-1.06 1.737c-.347-.329-.989-.254-1.805.161-3.872 1.973-6.181 10.741-8.542 22.323l-1.735.664c-.262-.997-.365-2.513-.365-4.185 0-4.623.747-10.521.747-10.521-1.268 3.801-2.604 10.439-3.854 16.576l-1.372.395c-.503-1.481-.572-3.15-.572-4.871 0-.76.018-1.528.018-2.304 0-4.017-.625-8.388-5.104-6.106-3.159 1.61-5.209 5.169-5.209 8.493 0 2.733 1.649 3.157 3.282 2.326 1.806-.92 3.125-2.874 3.507-5.397l1.614-.452c-.555 3.152-2.534 5.544-5.069 6.836-2.898 1.478-4.982.531-4.982-2.591 0-3.949 2.778-8.082 6.961-10.213 3.23-1.646 5.227-.992 6.043 1.09.572 1.479.677 3.536.677 5.477 0 1.013-.019 2-.019 2.861 0 .909.019 1.66.158 2.129.953-5.26 2.655-13.62 4.373-17.566l1.3-.377zm5.675 2.694c-.606 2.939-1.111 5.155-1.111 6.539 0 .489.192.475.348.396.452-.231 1.024-1.467 1.788-3.796.087-.045.486-.13.486-.028v.017c-.764 2.313-1.372 4.58-2.795 5.306-.938.478-1.25-.207-1.25-1.372 0-1.872.764-4.944 1.06-6.31l1.474-.752zm-1.267-1.194c0-.607.452-1.563 1.216-1.953.573-.291.815-.01.815.462 0 .608-.45 1.546-1.215 1.936-.555.282-.816.011-.816-.445zm4.983-4.682a31.974 31.974 0 0 1-.557 4.3c.277-.143.52-.282.678-.379l-.158.873c-.068.052-.398.22-.71.379-.156.72-.33 1.468-.538 2.266-.175 1.252-.262 2.175-.262 2.799 0 .709.122 1.017.348.902.469-.239 1.146-2.169 1.666-3.734.104-.053.486-.094.486-.011-1.024 3.222-1.562 4.678-2.69 5.252-.764.39-1.076-.364-1.076-1.797 0-1.231.191-3 .591-4.925-.399.204-.695.354-.765.373l.121-.854c.122-.063.417-.196.781-.382.227-1.279.451-2.525.852-4.434l1.233-.628zm-.21 11.783c-.018-.141-.018-.295-.018-.445 0-1.334.539-2.991.539-2.991.607-3.888 1.37-8.377 2.083-10.309.33-.894.938-1.524 1.458-1.79.869-.443 1.198-.188 1.198.454 0 1.366-1.493 4.438-2.57 6.27-.052.33-.121.669-.19 1.025.573-1.137 1.284-2.021 2.031-2.402.608-.31 1.008-.124 1.008.686 0 1.569-1.129 4.151-1.129 5.535 0 .489.19.476.348.396.45-.23 1.023-1.467 1.787-3.796.105-.054.487-.112.487-.012-.765 2.313-1.547 4.67-2.97 5.395-.608.311-1.181.129-1.181-.9 0-1.822 1.129-4.271 1.129-5.486 0-.185-.087-.294-.277-.196-.747.381-1.685 2.495-2.327 7.852l-1.406.714zm4.15-14.482c-.278.141-.504.965-1.129 4.085.486-1.159 1.284-3.068 1.284-3.928.001-.152-.069-.202-.155-.157zm-56.628 62.264a14.79 14.79 0 0 1-2.978 1.983c-7.875 4.013-12.101.004-12.101-6.856 0-8.682 6.723-21.955 21.321-29.395 9.027-4.6 17.095-4.461 17.095 4.08 0 4.246-2.113 9.571-6.578 14.133 6.099-.634 9.027 3.241 9.027 8.703 0 7.748-5.906 18.645-16.999 24.297-5.619 2.862-8.98 3.549-11.189 3.787-2.4 2.765-4.946 4.668-7.395 5.916l.816-6.438a12.539 12.539 0 0 1 1.872-1.141c1.634-.832 3.313-1.268 4.706-1.277 3.41-5.005 5.379-13.989 7.012-26.163 1.247-9.364 2.305-15.784 3.601-20.179l4.466-1.202c-1.2 3.926-2.305 8.549-3.265 16.039 1.489-.71 2.881-1.282 4.13-1.684 3.697-3.657 5.426-8.319 5.426-12.1 0-7.281-6.435-7.644-13.014-4.291-11.669 5.945-17.095 17.019-17.095 24.066 0 5.135 2.929 8.122 8.355 5.356a14.59 14.59 0 0 0 2.017-1.26l.77 3.626zm21.127-5.212c0-4.948-2.352-8.696-7.25-8.255a31.643 31.643 0 0 1-4.85 3.172c-1.633 13.2-5.042 22.079-9.028 27.938 2.209-.332 4.898-1.049 8.788-3.031 8.068-4.111 12.34-13.104 12.34-19.824zm23.915-17.645c-1.104 3.362-3.265 6.423-5.57 8.392-1.632 4.239-4.081 7.493-7.154 9.06-3.313 1.688-4.755-.938-4.755-5.186 0-2.614.528-5.825 1.489-9.066l1.729-.461c.528-3.863 2.545-8.018 5.955-9.755 3.217-1.639 4.898 1.099 4.898 5.299 0 2.287-.576 4.961-1.201 7.333 1.249-1.196 2.401-2.951 3.266-5.585.287-.147 1.343-.313 1.343-.031zm-9.94 10.665c-2.017.28-3.313-.925-3.986-2.824a16.855 16.855 0 0 0-.145 2.081c0 2.754.77 4.275 1.97 3.665.145-.074.239-.122.384-.244.625-.504 1.201-1.45 1.777-2.678zm-1.922-6.536c0 2.521.77 4.556 2.931 4.06 1.056-3.01 1.776-6.644 1.776-9.118 0-2.1-.529-3.418-1.873-2.732-.097.049-.24.169-.337.218-1.392.989-2.497 4.585-2.497 7.572zm27.612-12.153c-1.104 3.361-3.265 6.423-5.569 8.391-1.633 4.239-4.082 7.493-7.155 9.06-3.313 1.688-4.754-.937-4.754-5.187 0-2.613.528-5.823 1.488-9.065l1.729-.46c.528-3.863 2.545-8.018 5.955-9.755 3.217-1.64 4.897 1.098 4.897 5.298 0 2.287-.576 4.962-1.201 7.334 1.25-1.196 2.401-2.951 3.267-5.585.287-.147 1.343-.313 1.343-.031zm-9.94 10.665c-2.018.28-3.313-.926-3.985-2.825a16.691 16.691 0 0 0-.146 2.082c0 2.754.77 4.275 1.97 3.664.144-.073.239-.122.384-.244.625-.503 1.201-1.451 1.777-2.677zm-1.922-6.537c0 2.521.77 4.556 2.93 4.061 1.058-3.011 1.777-6.645 1.777-9.119 0-2.1-.528-3.418-1.874-2.731-.096.049-.24.168-.335.217-1.392.989-2.498 4.584-2.498 7.572zm8.644 8.011c-.047-.396-.047-.816-.047-1.235 0-3.688 1.488-8.273 1.488-8.273 1.681-10.752 3.793-23.17 5.762-28.515.912-2.472 2.594-4.214 4.034-4.948 2.4-1.224 3.313-.521 3.313 1.253 0 3.779-4.129 12.278-7.106 17.343l-.769 4.265c1.537-3.908 3.457-6.802 5.57-7.878 1.97-1.004 2.833-.136 2.833 1.729 0 3.08-2.449 8.856-6.146 12.747 1.488 1.388 1.199 4.85 2.545 4.164 1.151-.587 3.217-3.926 5.33-10.369.287-.146 1.345-.313 1.345-.032-2.113 6.397-4.371 12.962-7.731 14.675-3.891 1.982-3.842-3.411-4.61-5.866l-.721.368c-.432 2.879-.864 5.807-1.2 8.592l-3.89 1.98zm10.612-23.797c-1.151.588-2.736 2.981-4.802 8.702l-.24 1.569a5.45 5.45 0 0 1 1.536-.503c2.114-2.758 4.323-7.478 4.323-9.25 0-.467-.144-.768-.577-.64l-.24.122zm1.297-15.83c0-.42-.191-.555-.432-.432-.769.391-1.393 2.67-3.121 11.298 1.392-3.229 2.93-7.421 3.505-10.468 0-.14.048-.305.048-.398zm6.386 25.545c.625.707 1.2.789 2.113.323 1.2-.61 1.872-1.795 1.872-3.474 0-2.895-1.393-4.985-2.448-7.762-.528 1.81-1.153 3.575-1.681 5.245 0 0-1.345.451-1.345.078v-.047c.624-1.906 1.537-4.471 2.448-7.176-.335-1.23-.576-2.6-.576-4.188 0-1.867.337-4.092 1.105-6.771l3.265-1.058a76.51 76.51 0 0 1-1.44 7.551c.144 3.846 4.851 6.301 4.851 11.528v.188c.913-1.911 1.68-4.03 2.4-6.217.289-.147 1.345-.313 1.345-.03-2.209 6.726-4.898 13.462-10.084 16.104-2.257 1.149-4.082.82-4.755-.751l2.93-3.543z"/><circle fill="#50A5DC" cx="45" cy="225" r="45"/><circle fill="#50A5DC" cx="315" cy="225" r="45"/></svg>