<?xml version="1.0" encoding="utf-8"?>
<!-- Generator: Adobe Illustrator 16.0.0, SVG Export Plug-In . SVG Version: 6.00 Build 0)  -->
<!DOCTYPE svg PUBLIC "-//W3C//DTD SVG 1.1//EN" "http://www.w3.org/Graphics/SVG/1.1/DTD/svg11.dtd">
<svg version="1.1" id="Layer_1" xmlns="http://www.w3.org/2000/svg" xmlns:xlink="http://www.w3.org/1999/xlink" x="0px" y="0px"
	 width="360px" height="360px" viewBox="0 0 360 360" enable-background="new 0 0 360 360" xml:space="preserve">
<path fill="#50A5DC" d="M77.143,51.429c0,0-25.714,0-25.714-25.714S77.143,0,77.143,0s25.714,0,25.714,25.714
	c0,0,25.714-12.857,77.143-12.857s77.143,12.857,77.143,12.857S257.143,0,282.857,0c25.714,0,25.714,25.714,25.714,25.714
	s0,25.714-25.714,25.714c0,0-25.715,154.285-102.857,154.285C102.857,205.714,77.143,51.429,77.143,51.429z"/>
<path fill="#008BCE" d="M231.344,178.515c-0.63-7.073-5.974-37.086-51.344-37.086c-45.371,0-50.714,30.014-51.343,37.086
	c13.282,15.597,29.531,26.415,49.188,27.155c0.715,0.018,1.421,0.044,2.155,0.044s1.44-0.026,2.155-0.044
	C201.813,204.93,218.061,194.112,231.344,178.515z"/>
<path id="Nose" fill="#231F20" d="M180,154.286c0,0,25.714,0,25.714,12.857C205.714,180,180,186.429,180,186.429
	s-25.714-6.429-25.714-19.286C154.286,154.286,180,154.286,180,154.286z"/>
<path id="Mouth-left" fill="#231F20" d="M154.286,199.286c0,0,25.714,0,25.714-12.857C180,186.429,180,205.714,154.286,199.286z"/>
<path id="Mouth-right" fill="#231F20" d="M180,186.429c0,0,0,19.285,25.714,12.857C205.714,199.286,180,199.286,180,186.429"/>
<path fill="#FFD105" d="M166.429,143.626c0,0,13.571-4.945,27.143,0v4.945c0,0-13.571-4.945-27.143,0V143.626z"/>
<g>
	<g>
		<path fill="#FFD105" d="M215.357,122.143c-12.427,0-22.5,10.074-22.5,22.5c0,12.426,10.073,22.5,22.5,22.5
			c12.426,0,22.5-10.074,22.5-22.5C237.857,132.217,227.783,122.143,215.357,122.143z M215.357,163.571
			c-10.454,0-18.929-8.477-18.929-18.928c0-10.452,8.475-18.929,18.929-18.929c10.452,0,18.929,8.477,18.929,18.929
			C234.286,155.095,225.81,163.571,215.357,163.571z"/>
	</g>
</g>
<g>
	<g>
		<path fill="#FFD105" d="M144.643,122.143c-12.427,0-22.5,10.074-22.5,22.5c0,12.426,10.073,22.5,22.5,22.5
			c12.426,0,22.5-10.074,22.5-22.5C167.143,132.217,157.069,122.143,144.643,122.143z M144.643,163.571
			c-10.453,0-18.929-8.477-18.929-18.928c0-10.452,8.476-18.929,18.929-18.929c10.453,0,18.928,8.477,18.928,18.929
			C163.571,155.095,155.096,163.571,144.643,163.571z"/>
	</g>
</g>
<path id="White_Left" fill="#FFFFFF" d="M122.143,109.286c0,0,19.286-6.429,38.571,0c0,0,0-38.571-19.286-38.571
	S122.143,109.286,122.143,109.286z"/>
<circle id="Pupil_Left" fill="#231F20" cx="141.428" cy="102.857" r="6.428"/>
<path id="White_Right" fill="#FFFFFF" d="M199.286,109.286c0,0,19.285-6.429,38.571,0c0,0,0-38.571-19.286-38.571
	C199.286,70.714,199.286,109.286,199.286,109.286z"/>
<circle id="Pupil_Right" fill="#231F20" cx="218.571" cy="102.857" r="6.429"/>
<polygon id="Cover_Right" fill="#D71920" points="180,218.571 308.571,154.286 308.571,295.714 180,360 "/>
<polygon id="Cover_Left" fill="#AC0F0F" points="180,218.571 51.429,154.286 51.429,295.714 180,360 "/>
<path fill="#FFD105" d="M218.492,247.049c-0.763,0.662-1.606,1.209-2.49,1.659c-6.584,3.355-10.117,0.004-10.117-5.733
	c0-7.258,5.62-18.356,17.827-24.576c7.548-3.847,14.293-3.731,14.293,3.411c0,3.551-1.766,8.002-5.5,11.817
	c5.1-0.531,7.548,2.71,7.548,7.275c0,6.479-4.938,15.591-14.214,20.316c-4.696,2.394-7.508,2.967-9.354,3.166
	c-2.008,2.311-4.136,3.903-6.183,4.946l0.681-5.382c0.482-0.362,1.004-0.667,1.567-0.954c1.365-0.694,2.771-1.062,3.935-1.068
	c2.851-4.185,4.496-11.696,5.862-21.877c1.043-7.829,1.927-13.195,3.011-16.87l3.734-1.006c-1.004,3.284-1.928,7.148-2.73,13.411
	c1.245-0.596,2.409-1.07,3.453-1.408c3.092-3.058,4.537-6.954,4.537-10.115c0-6.089-5.38-6.392-10.881-3.589
	c-9.756,4.972-14.294,14.229-14.294,20.122c0,4.293,2.449,6.792,6.986,4.48c0.603-0.307,1.165-0.671,1.688-1.055L218.492,247.049z
	 M236.158,242.692c0-4.138-1.968-7.272-6.063-6.902c-1.204,0.965-2.57,1.856-4.056,2.653c-1.364,11.036-4.216,18.46-7.548,23.357
	c1.847-0.276,4.095-0.877,7.347-2.534C232.585,255.83,236.158,248.312,236.158,242.692z M253.342,228.824
	c0.241-0.123,1.125-0.261,1.125-0.026c-2.008,6.135-4.016,11.216-7.95,13.221c-3.493,1.78-4.938-0.605-4.938-4.273
	c0-5.307,3.011-13.32,7.508-15.612c2.008-1.022,3.012-0.13,3.012,1.666c0,2.772-2.409,7.745-7.146,10.901c0,0.193,0,0.389,0,0.584
	c0,2.343,0.682,3.868,2.529,2.927C249.849,237.005,251.816,233.581,253.342,228.824z M245.072,233.155
	c3.011-2.979,4.336-6.348,4.336-7.791c0-0.585-0.241-0.853-0.643-0.647C247.119,225.556,245.554,229.671,245.072,233.155z
	 M262.657,215.648l2.851-1.453c-1.205,5.804-1.967,10.407-2.529,14.559c-0.08,0.469-0.08,0.781-0.08,1.055
	c0,0.586,0.12,0.797,0.321,0.694c0.441-0.226,2.128-2.956,4.055-8.778c0.241-0.123,1.124-0.26,1.124-0.026
	c-2.448,7.492-4.416,11.226-6.263,12.167c-1.285,0.655-2.008-0.108-2.008-2.801c0-0.118,0-0.273,0-0.43
	c-0.925,2.853-2.329,5.636-4.658,6.822c-1.968,1.003-2.77-0.696-2.77-3.545c0-5.503,3.091-15.195,6.906-17.139
	c1.484-0.757,2.328-0.328,2.609,1.284L262.657,215.648z M256.072,231.804c0,1.21,0.241,1.906,0.843,1.601
	c1.848-0.942,4.136-8.469,4.136-12.099c0-1.443-0.361-2.273-1.245-1.824C258.12,220.341,256.072,228.253,256.072,231.804z
	 M270.807,219.223c0-1.171-0.361-1.884-0.803-2.479l-1.605,4.954c0,0-1.124,0.378-1.124,0.066v-0.04
	c0.723-2.241,1.244-4.458,1.646-6.535c-0.401-0.654-0.723-1.544-0.723-2.911c0-1.247,0.281-2.953,0.924-5.31l3.012-0.676
	c-0.161,2.657-0.482,4.694-1.125,7.051c1.325,0.652,3.052,1.334,3.052,3.559c0,2.498-2.689,7.771-2.689,11.166
	c0,4.331,2.77,4.559,5.66,3.086c3.533-1.8,5.502-5.533,5.502-8.384c0-1.717-0.724-3.065-2.209-3.519l2.288-3.937
	c2.209,0.514,3.293,2.42,3.293,4.879c0,4.216-3.172,10.007-8.913,12.932c-4.457,2.271-8.833,1.613-8.833-3.461
	C268.158,226.035,270.807,221.212,270.807,219.223z M251.233,251.255c-0.643,4.716-0.815,8.517-0.815,11.216
	c0,3.002,0.208,4.635,0.208,4.635c1.996-10.939,4.705-19.777,9.062-21.997c1.198-0.61,1.979-0.655,2.553-0.339l-1.06,1.737
	c-0.347-0.329-0.989-0.254-1.805,0.161c-3.872,1.973-6.181,10.741-8.542,22.323l-1.735,0.664c-0.262-0.997-0.365-2.513-0.365-4.185
	c0-4.623,0.747-10.521,0.747-10.521c-1.268,3.801-2.604,10.439-3.854,16.576l-1.372,0.395c-0.503-1.481-0.572-3.15-0.572-4.871
	c0-0.76,0.018-1.528,0.018-2.304c0-4.017-0.625-8.388-5.104-6.106c-3.159,1.61-5.209,5.169-5.209,8.493
	c0,2.733,1.649,3.157,3.282,2.326c1.806-0.92,3.125-2.874,3.507-5.397l1.614-0.452c-0.555,3.152-2.534,5.544-5.069,6.836
	c-2.898,1.478-4.982,0.531-4.982-2.591c0-3.949,2.778-8.082,6.961-10.213c3.23-1.646,5.227-0.992,6.043,1.09
	c0.572,1.479,0.677,3.536,0.677,5.477c0,1.013-0.019,2-0.019,2.861c0,0.909,0.019,1.66,0.158,2.129
	c0.953-5.26,2.655-13.62,4.373-17.566L251.233,251.255z M256.908,253.949c-0.606,2.939-1.111,5.155-1.111,6.539
	c0,0.489,0.192,0.475,0.348,0.396c0.452-0.231,1.024-1.467,1.788-3.796c0.087-0.045,0.486-0.13,0.486-0.028v0.017
	c-0.764,2.313-1.372,4.58-2.795,5.306c-0.938,0.478-1.25-0.207-1.25-1.372c0-1.872,0.764-4.944,1.06-6.31L256.908,253.949z
	 M255.641,252.755c0-0.607,0.452-1.563,1.216-1.953c0.573-0.291,0.815-0.01,0.815,0.462c0,0.608-0.45,1.546-1.215,1.936
	C255.902,253.482,255.641,253.211,255.641,252.755z M260.624,248.073c-0.088,1.429-0.262,2.8-0.557,4.3
	c0.277-0.143,0.52-0.282,0.678-0.379l-0.158,0.873c-0.068,0.052-0.398,0.22-0.71,0.379c-0.156,0.72-0.33,1.468-0.538,2.266
	c-0.175,1.252-0.262,2.175-0.262,2.799c0,0.709,0.122,1.017,0.348,0.902c0.469-0.239,1.146-2.169,1.666-3.734
	c0.104-0.053,0.486-0.094,0.486-0.011c-1.024,3.222-1.562,4.678-2.69,5.252c-0.764,0.39-1.076-0.364-1.076-1.797
	c0-1.231,0.191-3,0.591-4.925c-0.399,0.204-0.695,0.354-0.765,0.373l0.121-0.854c0.122-0.063,0.417-0.196,0.781-0.382
	c0.227-1.279,0.451-2.525,0.852-4.434L260.624,248.073z M260.414,259.856c-0.018-0.141-0.018-0.295-0.018-0.445
	c0-1.334,0.539-2.991,0.539-2.991c0.607-3.888,1.37-8.377,2.083-10.309c0.33-0.894,0.938-1.524,1.458-1.79
	c0.869-0.443,1.198-0.188,1.198,0.454c0,1.366-1.493,4.438-2.57,6.27c-0.052,0.33-0.121,0.669-0.19,1.025
	c0.573-1.137,1.284-2.021,2.031-2.402c0.608-0.31,1.008-0.124,1.008,0.686c0,1.569-1.129,4.151-1.129,5.535
	c0,0.489,0.19,0.476,0.348,0.396c0.45-0.23,1.023-1.467,1.787-3.796c0.105-0.054,0.487-0.112,0.487-0.012
	c-0.765,2.313-1.547,4.67-2.97,5.395c-0.608,0.311-1.181,0.129-1.181-0.9c0-1.822,1.129-4.271,1.129-5.486
	c0-0.185-0.087-0.294-0.277-0.196c-0.747,0.381-1.685,2.495-2.327,7.852L260.414,259.856z M264.564,245.374
	c-0.278,0.141-0.504,0.965-1.129,4.085c0.486-1.159,1.284-3.068,1.284-3.928C264.72,245.379,264.65,245.329,264.564,245.374z
	 M207.936,307.638c-0.913,0.79-1.921,1.445-2.978,1.983c-7.875,4.013-12.101,0.004-12.101-6.856c0-8.682,6.723-21.955,21.321-29.395
	c9.027-4.6,17.095-4.461,17.095,4.08c0,4.246-2.113,9.571-6.578,14.133c6.099-0.634,9.027,3.241,9.027,8.703
	c0,7.748-5.906,18.645-16.999,24.297c-5.619,2.862-8.98,3.549-11.189,3.787c-2.4,2.765-4.946,4.668-7.395,5.916l0.816-6.438
	c0.576-0.434,1.201-0.799,1.872-1.141c1.634-0.832,3.313-1.268,4.706-1.277c3.41-5.005,5.379-13.989,7.012-26.163
	c1.247-9.364,2.305-15.784,3.601-20.179l4.466-1.202c-1.2,3.926-2.305,8.549-3.265,16.039c1.489-0.71,2.881-1.282,4.13-1.684
	c3.697-3.657,5.426-8.319,5.426-12.1c0-7.281-6.435-7.644-13.014-4.291c-11.669,5.945-17.095,17.019-17.095,24.066
	c0,5.135,2.929,8.122,8.355,5.356c0.721-0.366,1.393-0.802,2.017-1.26L207.936,307.638z M229.063,302.426
	c0-4.948-2.352-8.696-7.25-8.255c-1.441,1.155-3.072,2.22-4.85,3.172c-1.633,13.2-5.042,22.079-9.028,27.938
	c2.209-0.332,4.898-1.049,8.788-3.031C224.791,318.139,229.063,309.146,229.063,302.426z M252.978,284.781
	c-1.104,3.362-3.265,6.423-5.57,8.392c-1.632,4.239-4.081,7.493-7.154,9.06c-3.313,1.688-4.755-0.938-4.755-5.186
	c0-2.614,0.528-5.825,1.489-9.066l1.729-0.461c0.528-3.863,2.545-8.018,5.955-9.755c3.217-1.639,4.898,1.099,4.898,5.299
	c0,2.287-0.576,4.961-1.201,7.333c1.249-1.196,2.401-2.951,3.266-5.585C251.922,284.665,252.978,284.499,252.978,284.781z
	 M243.038,295.446c-2.017,0.28-3.313-0.925-3.986-2.824c-0.096,0.749-0.145,1.474-0.145,2.081c0,2.754,0.77,4.275,1.97,3.665
	c0.145-0.074,0.239-0.122,0.384-0.244C241.886,297.62,242.462,296.674,243.038,295.446z M241.116,288.91
	c0,2.521,0.77,4.556,2.931,4.06c1.056-3.01,1.776-6.644,1.776-9.118c0-2.1-0.529-3.418-1.873-2.732
	c-0.097,0.049-0.24,0.169-0.337,0.218C242.221,282.327,241.116,285.923,241.116,288.91z M268.728,276.757
	c-1.104,3.361-3.265,6.423-5.569,8.391c-1.633,4.239-4.082,7.493-7.155,9.06c-3.313,1.688-4.754-0.937-4.754-5.187
	c0-2.613,0.528-5.823,1.488-9.065l1.729-0.46c0.528-3.863,2.545-8.018,5.955-9.755c3.217-1.64,4.897,1.098,4.897,5.298
	c0,2.287-0.576,4.962-1.201,7.334c1.25-1.196,2.401-2.951,3.267-5.585C267.672,276.641,268.728,276.475,268.728,276.757z
	 M258.788,287.422c-2.018,0.28-3.313-0.926-3.985-2.825c-0.097,0.749-0.146,1.475-0.146,2.082c0,2.754,0.77,4.275,1.97,3.664
	c0.144-0.073,0.239-0.122,0.384-0.244C257.636,289.596,258.212,288.648,258.788,287.422z M256.866,280.885
	c0,2.521,0.77,4.556,2.93,4.061c1.058-3.011,1.777-6.645,1.777-9.119c0-2.1-0.528-3.418-1.874-2.731
	c-0.096,0.049-0.24,0.168-0.335,0.217C257.972,274.302,256.866,277.897,256.866,280.885z M265.51,288.896
	c-0.047-0.396-0.047-0.816-0.047-1.235c0-3.688,1.488-8.273,1.488-8.273c1.681-10.752,3.793-23.17,5.762-28.515
	c0.912-2.472,2.594-4.214,4.034-4.948c2.4-1.224,3.313-0.521,3.313,1.253c0,3.779-4.129,12.278-7.106,17.343l-0.769,4.265
	c1.537-3.908,3.457-6.802,5.57-7.878c1.97-1.004,2.833-0.136,2.833,1.729c0,3.08-2.449,8.856-6.146,12.747
	c1.488,1.388,1.199,4.85,2.545,4.164c1.151-0.587,3.217-3.926,5.33-10.369c0.287-0.146,1.345-0.313,1.345-0.032
	c-2.113,6.397-4.371,12.962-7.731,14.675c-3.891,1.982-3.842-3.411-4.61-5.866l-0.721,0.368c-0.432,2.879-0.864,5.807-1.2,8.592
	L265.51,288.896z M276.122,265.099c-1.151,0.588-2.736,2.981-4.802,8.702l-0.24,1.569c0.577-0.295,1.104-0.423,1.536-0.503
	c2.114-2.758,4.323-7.478,4.323-9.25c0-0.467-0.144-0.768-0.577-0.64C276.266,265.026,276.219,265.05,276.122,265.099z
	 M277.419,249.269c0-0.42-0.191-0.555-0.432-0.432c-0.769,0.391-1.393,2.67-3.121,11.298c1.392-3.229,2.93-7.421,3.505-10.468
	C277.371,249.527,277.419,249.362,277.419,249.269z M283.805,274.814c0.625,0.707,1.2,0.789,2.113,0.323
	c1.2-0.61,1.872-1.795,1.872-3.474c0-2.895-1.393-4.985-2.448-7.762c-0.528,1.81-1.153,3.575-1.681,5.245
	c0,0-1.345,0.451-1.345,0.078v-0.047c0.624-1.906,1.537-4.471,2.448-7.176c-0.335-1.23-0.576-2.6-0.576-4.188
	c0-1.867,0.337-4.092,1.105-6.771l3.265-1.058c-0.384,2.717-0.864,5.201-1.44,7.551c0.144,3.846,4.851,6.301,4.851,11.528v0.188
	c0.913-1.911,1.68-4.03,2.4-6.217c0.289-0.147,1.345-0.313,1.345-0.03c-2.209,6.726-4.898,13.462-10.084,16.104
	c-2.257,1.149-4.082,0.82-4.755-0.751L283.805,274.814z"/>
<circle id="Paw_Left" fill="#50A5DC" cx="45" cy="225" r="45"/>
<circle id="Paw_Right" fill="#50A5DC" cx="315" cy="225" r="45"/>
</svg>
