<svg id="Layer_1" xmlns="http://www.w3.org/2000/svg" viewBox="0 0 2500 563.4"><style>.st0{fill:#333}.st1{fill-rule:evenodd;clip-rule:evenodd}.st1,.st2{fill:#d40015}</style><g id="XMLID_64_"><g id="XMLID_209_"><g id="XMLID_76_"><path id="XMLID_98_" class="st0" d="M442.7 563.4c-58 0-117.3-14.7-176.1-43.8-47-23.2-93.9-55.6-139.3-96.2C50 354.2 3.1 284.2 2.6 283.5l-.6-1 .6-.9c.5-.7 47.4-70.8 124.8-139.9 45.4-40.6 92.3-73 139.3-96.2 58.8-29.1 118-43.8 176-43.8s117.2 14.7 176 43.8c47 23.2 93.9 55.6 139.3 96.2 77.3 69.1 124.3 139.2 124.8 139.9l.6.9-.6.9c-.5.7-47.4 70.8-124.7 139.9-45.4 40.6-92.3 73-139.3 96.2-58.9 29.2-118.1 43.9-176.1 43.9zm-55.5-62.1c18.5 3.3 37.2 5 55.4 5 18.3 0 36.9-1.7 55.5-5l-4.6-27.6c-16.5 4.4-33.6 6.6-50.8 6.6-17.2 0-34.3-2.2-50.8-6.6l-4.7 27.6zm261.7-70.9c-2 2.9-4.2 5.8-6.5 8.8-2.1 2.6-4.2 5.3-6.4 7.8 54.9-33.5 99.4-75.1 127.6-104.9 28.8-30.4 46.6-54.6 50.3-59.6-3.6-5-21.5-29.2-50.2-59.6-28.2-29.7-72.6-71.3-127.5-104.8 2.2 2.6 4.3 5.2 6.4 7.8 2 2.5 4.2 5.4 6.6 8.7l.2.1.2.3c7.3 10.3 13.8 21 19.4 31.9l.5.9c2.1 4.1 4.2 8.5 6.5 14.1l.1.2c.4.8.7 1.6 1.1 2.5.6 1.5 1.3 3.1 1.9 4.6l.2.4c7.3 18.4 12.4 37.9 15.2 57.9.1.6.1 1.2.2 1.7v.4c.5 3.5.8 7.1 1.2 11.1.2 2.1.4 4.3.6 6.8.1 1.2.1 2.4.1 3.6v.2c.1 3.6.3 7.4.3 11.1 0 3.7-.1 7.5-.3 11.1v.3c0 1.2-.1 2.4-.1 3.5-.1 2.6-.3 5-.6 7.3-.3 3.1-.6 6.1-.9 9-.1 1.2-.3 2.5-.4 3.8-2.8 20-7.9 39.4-15.2 57.9v.2c0 .1-.1.2-.1.3-3.3 8.2-6.3 15-9.6 21.2l-.1.3c-5.7 11.2-12.4 22.2-19.8 32.6l-.2.3-.7.2zM71.7 282.6c3.6 5 21.4 29.2 50.2 59.6 28.1 29.7 72.5 71.3 127.3 104.7-.3-.4-.7-.8-1-1.2-1.7-1.9-3.4-3.9-5-5.9-.3-.1-.6-.3-.8-.7-2.3-3-5-6.2-7.3-9l-.4-.5v-.2c-4.6-6.7-9.1-14.1-13.8-22.5-1.1-2-2-4-2.9-5.9-.6-1.2-1.1-2.5-1.8-3.8l-.1-.3c-1.6-3.1-3.2-6.5-4.8-10-9.9-21.9-16.7-45.3-20.2-69.6l-.1-1.2c-.1-1-.2-1.9-.3-2.8l-.3-2.7c-.1-.9-.2-1.9-.3-2.8l-.3-2.2c-.3-2.8-.5-5.6-.6-8.3-.1-1.1-.1-2.3-.1-3.6-.2-3.4-.3-7-.3-11.3 0-4.2.1-7.9.3-11.3 0-1.2.1-2.4.1-3.6.1-2.6.4-5.3.6-8.2l.2-1.4c.3-2.9.6-5.6.9-8.2.1-.7.2-1.4.2-2.1 2.8-19.9 7.9-39.4 15.2-58l.1-.3c7.6-19 17.5-37.2 29.5-54.1l.5-.7h.2c3.9-5.4 8.2-10.7 13.8-17.1C195 151 150.1 193 121.7 223c-28.6 30.4-46.4 54.6-50 59.6zm371-157.2c-77.9 0-158.5 59-158.5 157.6 0 76.9 59.3 156.4 158.5 156.4 92.6 0 157.3-64.3 157.3-156.4 0-77.5-58.9-157.6-157.3-157.6zM224.1 341.7c9.8 36.1 28.6 69.5 54.5 96.8l22.5-18.1c-24-24.8-41.2-55.3-49.6-88.6l-27.4 9.9zm382.7 96.7c25.9-27.3 44.7-60.7 54.5-96.8l-27.4-9.9c-8.5 33.2-25.6 63.8-49.6 88.5l22.5 18.2zm-23-293.2c24.1 24.7 41.3 55.1 49.9 88.2l27.6-10c-9.8-36.1-28.6-69.5-54.5-96.7l-23 18.5zm-332.2 88.2c8.6-33.1 25.8-63.5 49.9-88.2l-23-18.5c-25.9 27.3-44.7 60.7-54.5 96.7l27.6 10zM392 92.3c16.5-4.4 33.5-6.6 50.7-6.6 17.1 0 34.2 2.2 50.7 6.6l4.8-28.4c-18.5-3.3-37.1-5-55.4-5-18.3 0-36.9 1.7-55.4 5l4.6 28.4z"/><path id="XMLID_77_" class="st0" d="M442.7 3.3c253 0 438.7 279.2 438.7 279.2S695.9 561.8 442.7 561.8 4 282.5 4 282.5 189.7 3.3 442.7 3.3M627.4 454c114.9-66.7 188.3-171.5 188.3-171.5s-73.4-104.7-188.2-171.3c4.7 5.1 9.2 10.3 13.5 15.8 2.3 2.9 4.5 5.9 6.7 8.9l.2.1c7.3 10.3 13.9 21.1 19.6 32.4.1.1.1.2.1.2 2.3 4.6 4.5 9.2 6.5 14 .4.9.8 1.8 1.1 2.7.7 1.5 1.3 3.1 1.9 4.6.1.1.1.3.1.4 7.2 18.2 12.3 37.4 15.1 57.6.1.7.1 1.4.2 2.1.5 3.7.9 7.3 1.2 11.1.3 2.2.4 4.5.5 6.8.1 1.2.1 2.4.1 3.5.1 3.7.3 7.5.3 11.2 0 3.8-.1 7.5-.3 11.3 0 1.2-.1 2.4-.1 3.5-.1 2.4-.3 4.8-.6 7.2l-.9 9c-.1 1.3-.3 2.5-.4 3.8-2.8 20-7.9 39.2-15.1 57.5-.1.1-.1.2-.1.3-3 7.3-6 14.4-9.6 21.3-.1.1-.1.1-.1.3-5.7 11.3-12.4 22.1-19.6 32.3l-.2.1c-2.2 3-4.4 6-6.7 9.1-4.2 5.4-8.7 10.7-13.5 15.7m-369.5.1c-2.1-2.2-4.1-4.4-6-6.6-.1 0-.1-.1-.2-.1-2.4-2.9-5-5.8-7.3-8.7-.1-.1-.5-.2-.6-.4-2.3-2.9-4.8-6-7.4-9.1v-.1c-5-7.3-9.6-14.9-14-22.8-1.8-3.2-3-6.3-4.7-9.6-.1-.1-.1-.1-.1-.3-1.7-3.2-3.2-6.5-4.7-9.9-9.8-21.6-16.6-44.8-20.1-69.1-.1-1.4-.3-2.7-.4-4-.1-.6-.1-1.3-.2-1.9-.1-1.2-.3-2.4-.4-3.6-.1-.8-.2-1.5-.3-2.3-.3-2.7-.5-5.5-.6-8.2-.1-1.2-.1-2.3-.1-3.5a210.28 210.28 0 0 1 0-22.5c0-1.1.1-2.4.1-3.6.1-2.7.4-5.4.6-8.1.1-.5.1-.9.2-1.4l.9-8.1c.1-.7.2-1.5.2-2.2 2.8-20 7.9-39.3 15.1-57.5.1-.1.1-.2.1-.3 7.6-19.2 17.5-37.1 29.3-53.8.1 0 .1.1.1.1 4.5-6.3 9.3-12 14.4-17.8h.1c.2 0 .4-.8.7-1.1 1.7-1.9 3.4-4.2 5.1-6.1C143 178 69.6 282.6 69.6 282.6S143 387.4 257.9 454.1m184.8-13c88.9 0 159-61.6 159-158.1 0-80.9-62.6-159.3-159-159.3-81.2 0-160.2 62.8-160.2 159.3 0 81.5 63.8 158.1 160.2 158.1m0-441.1C384.5 0 325 14.8 266 44c-47.1 23.3-94.1 55.8-139.7 96.5-40.5 36.2-72.3 72.4-91.9 96.4-21.2 26-33.1 43.7-33.2 43.9L0 282.5l1.2 1.8c.1.2 11.9 17.9 33.1 43.9 19.5 24 51.3 60.2 91.8 96.4 45.5 40.7 92.5 73.2 139.7 96.5 59.1 29.2 118.6 44 176.8 44s117.8-14.8 176.9-44c47.2-23.3 94.2-55.8 139.7-96.5 40.5-36.2 72.3-72.4 91.8-96.4 21.2-26 33-43.7 33.1-43.9l1.2-1.8-1.2-1.8c-.1-.2-11.9-17.9-33.2-43.9-19.6-24-51.4-60.2-91.9-96.4-45.4-40.7-92.4-73.1-139.6-96.4-59-29.2-118.5-44-176.7-44zm-369 282.6c4.8-6.6 22.2-29.8 49.4-58.4 26.7-28.2 68.2-67.2 119.3-99.6-2.4 2.9-4.5 5.6-6.5 8.4h-.2l-1 1.4c-12 16.9-22 35.1-29.6 54.1l-.3.7c-7.3 18.7-12.5 38.3-15.3 58.3-.1.7-.2 1.4-.2 2.2-.3 2.5-.6 5.2-.9 8.2l-.1.5-.1.9c-.3 2.9-.5 5.6-.7 8.3-.1 1.2-.1 2.5-.2 3.7-.2 3.4-.3 7.1-.3 11.3 0 4.3.1 7.9.3 11.4 0 1.3.1 2.5.2 3.6.1 2.7.4 5.5.7 8.3l.1 1.3.1 1c.1.9.2 1.9.3 2.8l.1.8.1.9.1 1c.1.9.2 1.9.3 2.8l.1 1.2v.2c3.5 24.4 10.3 47.9 20.3 70 1.5 3.5 3.2 6.9 4.8 10.1l.1.2c.6 1.2 1.2 2.5 1.8 3.7.9 2 1.8 4 3 6 4.6 8.2 9 15.5 13.6 22.2v.2l.8.9c2.2 2.6 4.6 5.6 6.8 8.4-50.4-32.3-91.2-70.7-117.7-98.6-27-28.7-44.3-51.8-49.2-58.4zM650 133.5c-2.3-3.3-4.5-6.1-6.4-8.6 50.8 32.4 92 71.2 118.7 99.3 27.2 28.7 44.5 51.8 49.3 58.4-4.8 6.6-22.2 29.8-49.4 58.5-26.6 28.1-67.8 66.8-118.6 99.2 2.3-3 4.4-5.8 6.4-8.6l.2-.1.4-.5c7.4-10.5 14.1-21.5 19.9-32.8l.1-.2c3.2-6.3 6.3-13.1 9.6-21.3.1-.1.1-.3.2-.4v-.1l.1-.2c7.3-18.6 12.5-38.2 15.3-58.3v-.2c.1-1.3.3-2.5.4-3.8.4-2.9.7-5.8.9-9 .3-2.3.5-4.8.6-7.4.1-1.1.1-2.3.2-3.6v-.2c.1-3.6.3-7.4.3-11.2 0-3.7-.1-7.5-.3-11.2v-.1c0-1.2-.1-2.4-.2-3.6-.1-2.5-.3-4.8-.6-6.9-.3-3.9-.7-7.6-1.2-11.1v-.3c-.1-.6-.1-1.2-.2-1.7-2.8-20.1-8-39.8-15.3-58.3l-.1-.2c0-.1 0-.1-.1-.2l-.1-.3c-.6-1.5-1.2-2.9-1.8-4.4-.4-.8-.7-1.7-1.1-2.5l-.1-.2c-2.4-5.6-4.5-10.1-6.6-14.2l-.9-1.8c-5.5-10.6-11.9-21.1-19-31.2l-.4-.5-.2-.2zM442.7 437.8c-98.2 0-156.8-78.7-156.8-154.8 0-97.6 79.7-155.9 156.8-155.9 97.4 0 155.6 79.3 155.6 155.9 0 91.1-64 154.8-155.6 154.8z"/></g><path id="XMLID_75_" class="st1" d="M515.7 266.1c-.2.1-.2.3-.2.5-.4 5-2 9.6-3.9 14.2-2.8 6.7-6.5 13-10.8 18.8-3.2 4.3-6.6 8.4-10.3 12.3-2.9 3-5.7 5.9-8.6 8.8-5.9 6.1-12 11.9-18 17.8-3.4 3.3-6.6 6.7-9.8 10.1-3.6 3.8-7 7.8-10.5 11.8-.2.2-.3.5-.7.6-.3-.1-.4-.3-.6-.5-5.6-7.1-11.8-13.6-18.1-20.1-1.7-1.7-3.5-3.3-5.1-5-3.6-3.5-7.1-7-10.6-10.5-2.3-2.4-4.7-4.7-7-7.2-2.8-2.8-5.6-5.6-8.3-8.4-7.1-7.4-12.9-15.6-17.2-24.9-2.4-5-4.1-10.2-5.3-15.6-.3-1.7-.6-3.3-.7-5-.2-1.8-.2-3.6.1-5.3.4-2.7 1-5.4 1.7-8.1 1.1-4 2.8-7.9 4.9-11.5 2.9-4.8 6.6-8.9 11.4-11.9 3.3-2.1 6.8-3.7 10.7-4.5.9-.2 1.8-.4 2.8-.4 2.2-.2 4.4-.4 6.6-.3 4.2.1 8.3.7 12.3 2.2 5.1 1.9 9.4 5 13 9.2 2.8 3.3 4.9 7 6.5 11 1.5 3.9 2.6 7.9 3.2 12 0 .2.1.3.1.5l.1.1c.1 0 .1 0 .1-.1.2-.3.2-.7.3-1.1.3-2.8.9-5.5 1.7-8.2.9-2.8 2-5.6 3.4-8.2 4.1-7.4 10.1-12.5 17.8-15.6 2.9-1.1 5.9-1.9 8.9-2.4 1.8-.3 3.6-.4 5.4-.2 3.3.4 6.6 1.1 9.8 2.3 5.6 2 10.4 5.2 14.4 9.6 2.3 2.5 4.2 5.3 5.8 8.4 2.1 4.2 3.6 8.6 4.5 13.2.1.5.1 1.1.2 1.6.1.3.1.7.3.9-.3 2.8-.3 5.9-.3 9.1z"/></g><g id="XMLID_41_"><g id="XMLID_70_"><path id="XMLID_71_" class="st0" d="M1107.8 40.8c24.3 0 46.1 11.8 59.5 30.2l-25.4 16.4c-9.5-8.6-20-14.2-34-14.2-22.8 0-41.4 18.7-41.4 41.6 0 22.8 18.5 41.4 41.4 41.4 14 0 22.8-4.5 34-14l25.4 16.4c-13.4 18.3-35.1 29.9-59.5 29.9-40.7 0-73.7-33-73.7-73.7s33-74 73.7-74"/></g><g id="XMLID_62_"><path id="XMLID_63_" class="st0" d="M1265.9 44.7l67 140h-37.3l-9.5-19.2h-67.9l-9.5 19.2h-37.9l69.6-140h25.5m-33.6 93.5h40.7l-20.9-45-19.8 45"/></g><g id="XMLID_59_"><path id="XMLID_60_" class="st0" d="M1397.4 40.8c39.4 0 58.8 20 58.8 38.8h-34.7c0-3.4-5.8-10.8-24.1-10.8-12.3 0-22.4 7.5-22.4 17 0 11.4 21.8 11.4 29.5 12.7 19.6 3.7 56.4 8.4 56.4 45.4 0 24.1-28.4 44.4-61.8 44.4-42.9 0-62.7-28-62.7-47h36.4c0 .2 1.5 19.2 26.3 19.2 13.4 0 25.4-8 25.4-16.6 0-17.9-32.5-19.2-41.8-21.1-16.4-3.2-44.2-10.6-44.2-37 0-24.7 26.5-45 58.9-45"/></g><g id="XMLID_56_"><path id="XMLID_57_" class="st0" d="M1519.5 44.7v140h-33.6v-140h33.6"/></g><g id="XMLID_53_"><path id="XMLID_54_" class="st0" d="M1687.3 44.7v140h-33.6l-69.8-83.8v83.8h-33.6v-140h33.6l69.8 87.2V44.7h33.6"/></g><g id="XMLID_49_"><path id="XMLID_50_" class="st0" d="M1780 41.1c40.7 0 73.7 33.2 73.7 73.9s-33 73.7-73.7 73.7c-40.9 0-73.9-33-73.9-73.7s32.9-73.9 73.9-73.9m0 115.2c22.8 0 41.4-18.5 41.4-41.4 0-22.8-18.5-41.6-41.4-41.6-23.1 0-41.6 18.7-41.6 41.6 0 22.9 18.5 41.4 41.6 41.4"/></g><g id="XMLID_46_"><path id="XMLID_47_" class="st0" d="M2047.2 44.7l-59.9 140h-33.6l-60.1-140h38.3l38.6 85.7 38.3-85.7h38.4"/></g><g id="XMLID_42_"><path id="XMLID_43_" class="st0" d="M2132.8 44.7c28.7 0 50.2 24.6 50.2 55.1 0 20.2-10.1 34.7-25 42.6l30.8 42.2h-42.2l-23.1-34.9H2099v34.9h-34.3v-140c.1.1 51.5.1 68.1.1M2099 119h28.4c11.4 0 20.9-7.5 20.9-19.2 0-11.4-9.3-20.7-20.7-20.7H2099V119"/></g></g><g id="XMLID_27_"><path id="XMLID_38_" class="st2" d="M1282.5 382.8v6.6c-3.5 59.3-53.1 106.6-113.3 106.6h-59.3v61.1h-70.4V269.5h139.8c59.3 0 100 50.4 103.1 106.6.1 2.3.1 4.5.1 6.7zm-71.2 0c0-23.5-18.6-42.5-42-42.9H1110v85.8h58.4c23.9 0 42.9-19 42.9-42.9z"/><path id="XMLID_35_" class="st2" d="M1618.4 413.8c0 83.6-67.7 151.3-151.4 151.3-84.1 0-151.8-67.7-151.8-151.3 0-83.6 67.7-151.8 151.8-151.8 83.7 0 151.4 68.1 151.4 151.8zm-66.3 0c0-46.9-38.1-85.4-85-85.4-47.4 0-85.4 38.5-85.4 85.4 0 46.9 38.1 85 85.4 85 46.9-.1 85-38.1 85-85z"/><path id="XMLID_33_" class="st2" d="M1760.1 446.1l-29.2 30.1v81h-69V269.5h69V385l118.6-115.5h87.6l-129.2 125.7 136.7 162h-97.8l-86.7-111.1z"/><path id="XMLID_31_" class="st2" d="M2047.3 331.5v51.3h116.4v61.5h-116.4v51.3h147.4v61.5h-216.4V269.5h216.4v61.9h-147.4z"/><path id="XMLID_28_" class="st2" d="M2413.3 557.1l-47.4-71.7h-50.5v71.7H2245V269.5h139.8c58.9 0 103.1 50.4 103.1 113.3 0 41.6-20.8 71.2-51.3 87.6l63.3 86.7h-86.6zm-97.8-134.9h58.4c23.5 0 42.9-15.5 42.9-39.4 0-23.5-19-42.5-42.5-42.5h-58.9v81.9z"/></g></g></svg>