<?xml version="1.0" encoding="utf-8"?>
<!-- Generator: Adobe Illustrator 21.0.0, SVG Export Plug-In . SVG Version: 6.00 Build 0)  -->
<svg version="1.1" id="Layer_1" xmlns="http://www.w3.org/2000/svg" xmlns:xlink="http://www.w3.org/1999/xlink" x="0px" y="0px"
	 viewBox="0 0 2500 563.4" style="enable-background:new 0 0 2500 563.4;" xml:space="preserve">
<style type="text/css">
	.st0{fill:#333333;}
	.st1{fill-rule:evenodd;clip-rule:evenodd;fill:#D40015;}
	.st2{fill:#D40015;}
</style>
<g id="XMLID_64_">
	<g id="XMLID_209_">
		<g id="XMLID_76_">
			<path id="XMLID_98_" class="st0" d="M442.7,563.4c-58,0-117.3-14.7-176.1-43.8c-47-23.2-93.9-55.6-139.3-96.2
				C50,354.2,3.1,284.2,2.6,283.5L2,282.5l0.6-0.9c0.5-0.7,47.4-70.8,124.8-139.9c45.4-40.6,92.3-73,139.3-96.2
				c58.8-29.1,118-43.8,176-43.8s117.2,14.7,176,43.8c47,23.2,93.9,55.6,139.3,96.2c77.3,69.1,124.3,139.2,124.8,139.9l0.6,0.9
				l-0.6,0.9c-0.5,0.7-47.4,70.8-124.7,139.9c-45.4,40.6-92.3,73-139.3,96.2C559.9,548.7,500.7,563.4,442.7,563.4z M387.2,501.3
				c18.5,3.3,37.2,5,55.4,5c18.3,0,36.9-1.7,55.5-5l-4.6-27.6c-16.5,4.4-33.6,6.6-50.8,6.6c-17.2,0-34.3-2.2-50.8-6.6L387.2,501.3z
				 M648.9,430.4c-2,2.9-4.2,5.8-6.5,8.8c-2.1,2.6-4.2,5.3-6.4,7.8c54.9-33.5,99.4-75.1,127.6-104.9c28.8-30.4,46.6-54.6,50.3-59.6
				c-3.6-5-21.5-29.2-50.2-59.6c-28.2-29.7-72.6-71.3-127.5-104.8c2.2,2.6,4.3,5.2,6.4,7.8c2,2.5,4.2,5.4,6.6,8.7l0.2,0.1l0.2,0.3
				c7.3,10.3,13.8,21,19.4,31.9h0l0.5,0.9c2.1,4.1,4.2,8.5,6.5,14.1l0.1,0.2c0.4,0.8,0.7,1.6,1.1,2.5c0.6,1.5,1.3,3.1,1.9,4.6
				c0,0,0.2,0.4,0.2,0.4c7.3,18.4,12.4,37.9,15.2,57.9c0.1,0.6,0.1,1.2,0.2,1.7l0,0.4c0.5,3.5,0.8,7.1,1.2,11.1
				c0.2,2.1,0.4,4.3,0.6,6.8c0.1,1.2,0.1,2.4,0.1,3.6l0,0.2c0.1,3.6,0.3,7.4,0.3,11.1c0,3.7-0.1,7.5-0.3,11.1l0,0.3
				c0,1.2-0.1,2.4-0.1,3.5c-0.1,2.6-0.3,5-0.6,7.3c-0.3,3.1-0.6,6.1-0.9,9c-0.1,1.2-0.3,2.5-0.4,3.8c-2.8,20-7.9,39.4-15.2,57.9
				l0,0.1l0,0.1c0,0.1-0.1,0.2-0.1,0.3c-3.3,8.2-6.3,15-9.6,21.2l-0.1,0.3c-5.7,11.2-12.4,22.2-19.8,32.6l-0.2,0.3L648.9,430.4z
				 M71.7,282.6c3.6,5,21.4,29.2,50.2,59.6c28.1,29.7,72.5,71.3,127.3,104.7c-0.3-0.4-0.7-0.8-1-1.2c-1.7-1.9-3.4-3.9-5-5.9
				c-0.3-0.1-0.6-0.3-0.8-0.7c-2.3-3-5-6.2-7.3-9l-0.4-0.5v-0.2c-4.6-6.7-9.1-14.1-13.8-22.5c-1.1-2-2-4-2.9-5.9
				c-0.6-1.2-1.1-2.5-1.8-3.8l-0.1-0.3c-1.6-3.1-3.2-6.5-4.8-10c-9.9-21.9-16.7-45.3-20.2-69.6l-0.1-1.2c-0.1-1-0.2-1.9-0.3-2.8
				l-0.3-2.7c-0.1-0.9-0.2-1.9-0.3-2.8l-0.3-2.2c-0.3-2.8-0.5-5.6-0.6-8.3c-0.1-1.1-0.1-2.3-0.1-3.6c-0.2-3.4-0.3-7-0.3-11.3
				c0-4.2,0.1-7.9,0.3-11.3c0-1.2,0.1-2.4,0.1-3.6c0.1-2.6,0.4-5.3,0.6-8.2l0.2-1.4c0.3-2.9,0.6-5.6,0.9-8.2
				c0.1-0.7,0.2-1.4,0.2-2.1c2.8-19.9,7.9-39.4,15.2-58l0.1-0.3l0,0c7.6-19,17.5-37.2,29.5-54.1l0.5-0.7h0.2
				c3.9-5.4,8.2-10.7,13.8-17.1c-55.4,33.6-100.3,75.6-128.7,105.6C93.1,253.4,75.3,277.6,71.7,282.6z M442.7,125.4
				c-77.9,0-158.5,59-158.5,157.6c0,76.9,59.3,156.4,158.5,156.4c92.6,0,157.3-64.3,157.3-156.4C600,205.5,541.1,125.4,442.7,125.4z
				 M224.1,341.7c9.8,36.1,28.6,69.5,54.5,96.8l22.5-18.1c-24-24.8-41.2-55.3-49.6-88.6L224.1,341.7z M606.8,438.4
				c25.9-27.3,44.7-60.7,54.5-96.8l-27.4-9.9c-8.5,33.2-25.6,63.8-49.6,88.5L606.8,438.4z M583.8,145.2
				c24.1,24.7,41.3,55.1,49.9,88.2l27.6-10c-9.8-36.1-28.6-69.5-54.5-96.7L583.8,145.2z M251.6,233.4c8.6-33.1,25.8-63.5,49.9-88.2
				l-23-18.5c-25.9,27.3-44.7,60.7-54.5,96.7L251.6,233.4z M392,92.3c16.5-4.4,33.5-6.6,50.7-6.6c17.1,0,34.2,2.2,50.7,6.6l4.8-28.4
				c-18.5-3.3-37.1-5-55.4-5c-18.3,0-36.9,1.7-55.4,5L392,92.3z"/>
			<path id="XMLID_77_" class="st0" d="M442.7,3.3c253,0,438.7,279.2,438.7,279.2S695.9,561.8,442.7,561.8S4,282.5,4,282.5
				S189.7,3.3,442.7,3.3 M627.4,454c114.9-66.7,188.3-171.5,188.3-171.5s-73.4-104.7-188.2-171.3c4.7,5.1,9.2,10.3,13.5,15.8
				c2.3,2.9,4.5,5.9,6.7,8.9l0.2,0.1c7.3,10.3,13.9,21.1,19.6,32.4c0.1,0.1,0.1,0.2,0.1,0.2c2.3,4.6,4.5,9.2,6.5,14
				c0.4,0.9,0.8,1.8,1.1,2.7c0.7,1.5,1.3,3.1,1.9,4.6c0.1,0.1,0.1,0.3,0.1,0.4c7.2,18.2,12.3,37.4,15.1,57.6
				c0.1,0.7,0.1,1.4,0.2,2.1c0.5,3.7,0.9,7.3,1.2,11.1c0.3,2.2,0.4,4.5,0.5,6.8c0.1,1.2,0.1,2.4,0.1,3.5c0.1,3.7,0.3,7.5,0.3,11.2
				c0,3.8-0.1,7.5-0.3,11.3c0,1.2-0.1,2.4-0.1,3.5c-0.1,2.4-0.3,4.8-0.6,7.2c-0.3,3-0.6,6-0.9,9c-0.1,1.3-0.3,2.5-0.4,3.8
				c-2.8,20-7.9,39.2-15.1,57.5c-0.1,0.1-0.1,0.2-0.1,0.3c-3,7.3-6,14.4-9.6,21.3c-0.1,0.1-0.1,0.1-0.1,0.3
				c-5.7,11.3-12.4,22.1-19.6,32.3l-0.2,0.1c-2.2,3-4.4,6-6.7,9.1C636.7,443.7,632.2,449,627.4,454 M257.9,454.1
				c-2.1-2.2-4.1-4.4-6-6.6c-0.1,0-0.1-0.1-0.2-0.1c-2.4-2.9-5-5.8-7.3-8.7c-0.1-0.1-0.5-0.2-0.6-0.4c-2.3-2.9-4.8-6-7.4-9.1v-0.1
				c-5-7.3-9.6-14.9-14-22.8c-1.8-3.2-3-6.3-4.7-9.6c-0.1-0.1-0.1-0.1-0.1-0.3c-1.7-3.2-3.2-6.5-4.7-9.9
				c-9.8-21.6-16.6-44.8-20.1-69.1c-0.1-1.4-0.3-2.7-0.4-4c-0.1-0.6-0.1-1.3-0.2-1.9c-0.1-1.2-0.3-2.4-0.4-3.6
				c-0.1-0.8-0.2-1.5-0.3-2.3c-0.3-2.7-0.5-5.5-0.6-8.2c-0.1-1.2-0.1-2.3-0.1-3.5c-0.2-3.7-0.3-7.5-0.3-11.3c0-3.7,0.1-7.5,0.3-11.2
				c0-1.1,0.1-2.4,0.1-3.6c0.1-2.7,0.4-5.4,0.6-8.1c0.1-0.5,0.1-0.9,0.2-1.4c0.3-2.7,0.6-5.4,0.9-8.1c0.1-0.7,0.2-1.5,0.2-2.2
				c2.8-20,7.9-39.3,15.1-57.5c0.1-0.1,0.1-0.2,0.1-0.3c7.6-19.2,17.5-37.1,29.3-53.8c0.1,0,0.1,0.1,0.1,0.1c0,0,0,0,0,0
				c4.5-6.3,9.3-12,14.4-17.8c0,0,0,0,0.1,0c0.2,0,0.4-0.8,0.7-1.1c1.7-1.9,3.4-4.2,5.1-6.1C143,178,69.6,282.6,69.6,282.6
				S143,387.4,257.9,454.1 M442.7,441.1c88.9,0,159-61.6,159-158.1c0-80.9-62.6-159.3-159-159.3c-81.2,0-160.2,62.8-160.2,159.3
				C282.5,364.5,346.3,441.1,442.7,441.1 M442.7,0C384.5,0,325,14.8,266,44c-47.1,23.3-94.1,55.8-139.7,96.5
				c-40.5,36.2-72.3,72.4-91.9,96.4c-21.2,26-33.1,43.7-33.2,43.9L0,282.5l1.2,1.8c0.1,0.2,11.9,17.9,33.1,43.9
				c19.5,24,51.3,60.2,91.8,96.4c45.5,40.7,92.5,73.2,139.7,96.5c59.1,29.2,118.6,44,176.8,44s117.8-14.8,176.9-44
				c47.2-23.3,94.2-55.8,139.7-96.5c40.5-36.2,72.3-72.4,91.8-96.4c21.2-26,33-43.7,33.1-43.9l1.2-1.8l-1.2-1.8
				c-0.1-0.2-11.9-17.9-33.2-43.9c-19.6-24-51.4-60.2-91.9-96.4C713.6,99.7,666.6,67.3,619.4,44C560.4,14.8,500.9,0,442.7,0L442.7,0
				z M73.7,282.6c4.8-6.6,22.2-29.8,49.4-58.4c26.7-28.2,68.2-67.2,119.3-99.6c-2.4,2.9-4.5,5.6-6.5,8.4h-0.2l-1,1.4
				c-12,16.9-22,35.1-29.6,54.1l0,0l-0.3,0.7c-7.3,18.7-12.5,38.3-15.3,58.3l0,0l0,0c-0.1,0.7-0.2,1.4-0.2,2.2
				c-0.3,2.5-0.6,5.2-0.9,8.2l-0.1,0.5l-0.1,0.9l0,0l0,0c-0.3,2.9-0.5,5.6-0.7,8.3c-0.1,1.2-0.1,2.5-0.2,3.7
				c-0.2,3.4-0.3,7.1-0.3,11.3c0,4.3,0.1,7.9,0.3,11.4c0,1.3,0.1,2.5,0.2,3.6c0.1,2.7,0.4,5.5,0.7,8.3l0.1,1.3l0.1,1
				c0.1,0.9,0.2,1.9,0.3,2.8l0.1,0.8l0.1,0.9l0.1,1c0.1,0.9,0.2,1.9,0.3,2.8l0.1,1.2l0,0.1l0,0.1c3.5,24.4,10.3,47.9,20.3,70
				c1.5,3.5,3.2,6.9,4.8,10.1l0.1,0.2l0,0l0,0c0.6,1.2,1.2,2.5,1.8,3.7c0.9,2,1.8,4,3,6c4.6,8.2,9,15.5,13.6,22.2v0.2l0.8,0.9
				c2.2,2.6,4.6,5.6,6.8,8.4c-50.4-32.3-91.2-70.7-117.7-98.6C95.9,312.3,78.6,289.2,73.7,282.6L73.7,282.6z M650,133.5
				c-2.3-3.3-4.5-6.1-6.4-8.6c0,0,0,0,0,0c50.8,32.4,92,71.2,118.7,99.3c27.2,28.7,44.5,51.8,49.3,58.4
				c-4.8,6.6-22.2,29.8-49.4,58.5c-26.6,28.1-67.8,66.8-118.6,99.2c0,0,0,0,0,0l0,0l0,0c2.3-3,4.4-5.8,6.4-8.6l0.2-0.1l0.4-0.5
				c7.4-10.5,14.1-21.5,19.9-32.8l0,0l0,0l0.1-0.2c3.2-6.3,6.3-13.1,9.6-21.3c0.1-0.1,0.1-0.3,0.2-0.4l0-0.1l0.1-0.2
				c7.3-18.6,12.5-38.2,15.3-58.3l0-0.1l0-0.1c0.1-1.3,0.3-2.5,0.4-3.8c0.4-2.9,0.7-5.8,0.9-9c0.3-2.3,0.5-4.8,0.6-7.4
				c0.1-1.1,0.1-2.3,0.2-3.6l0-0.2c0.1-3.6,0.3-7.4,0.3-11.2c0-3.7-0.1-7.5-0.3-11.2l0-0.1c0-1.2-0.1-2.4-0.2-3.6
				c-0.1-2.5-0.3-4.8-0.6-6.9c-0.3-3.9-0.7-7.6-1.2-11.1l0-0.3c-0.1-0.6-0.1-1.2-0.2-1.7l0,0l0,0c-2.8-20.1-8-39.8-15.3-58.3
				l-0.1-0.2c0-0.1,0-0.1-0.1-0.2l-0.1-0.3l0,0c-0.6-1.5-1.2-2.9-1.8-4.4c-0.4-0.8-0.7-1.7-1.1-2.5l-0.1-0.2
				c-2.4-5.6-4.5-10.1-6.6-14.2l-0.9-1.8h0c-5.5-10.6-11.9-21.1-19-31.2l-0.4-0.5L650,133.5L650,133.5z M442.7,437.8
				c-98.2,0-156.8-78.7-156.8-154.8c0-97.6,79.7-155.9,156.8-155.9c97.4,0,155.6,79.3,155.6,155.9
				C598.3,374.1,534.3,437.8,442.7,437.8L442.7,437.8z"/>
		</g>
		<path id="XMLID_75_" class="st1" d="M515.7,266.1c-0.2,0.1-0.2,0.3-0.2,0.5c-0.4,5-2,9.6-3.9,14.2c-2.8,6.7-6.5,13-10.8,18.8
			c-3.2,4.3-6.6,8.4-10.3,12.3c-2.9,3-5.7,5.9-8.6,8.8c-5.9,6.1-12,11.9-18,17.8c-3.4,3.3-6.6,6.7-9.8,10.1
			c-3.6,3.8-7,7.8-10.5,11.8c-0.2,0.2-0.3,0.5-0.7,0.6c-0.3-0.1-0.4-0.3-0.6-0.5c-5.6-7.1-11.8-13.6-18.1-20.1
			c-1.7-1.7-3.5-3.3-5.1-5c-3.6-3.5-7.1-7-10.6-10.5c-2.3-2.4-4.7-4.7-7-7.2c-2.8-2.8-5.6-5.6-8.3-8.4c-7.1-7.4-12.9-15.6-17.2-24.9
			c-2.4-5-4.1-10.2-5.3-15.6c-0.3-1.7-0.6-3.3-0.7-5c-0.2-1.8-0.2-3.6,0.1-5.3c0.4-2.7,1-5.4,1.7-8.1c1.1-4,2.8-7.9,4.9-11.5
			c2.9-4.8,6.6-8.9,11.4-11.9c3.3-2.1,6.8-3.7,10.7-4.5c0.9-0.2,1.8-0.4,2.8-0.4c2.2-0.2,4.4-0.4,6.6-0.3c4.2,0.1,8.3,0.7,12.3,2.2
			c5.1,1.9,9.4,5,13,9.2c2.8,3.3,4.9,7,6.5,11c1.5,3.9,2.6,7.9,3.2,12c0,0.2,0.1,0.3,0.1,0.5c0,0,0.1,0.1,0.1,0.1
			c0.1,0,0.1,0,0.1-0.1c0.2-0.3,0.2-0.7,0.3-1.1c0.3-2.8,0.9-5.5,1.7-8.2c0.9-2.8,2-5.6,3.4-8.2c4.1-7.4,10.1-12.5,17.8-15.6
			c2.9-1.1,5.9-1.9,8.9-2.4c1.8-0.3,3.6-0.4,5.4-0.2c3.3,0.4,6.6,1.1,9.8,2.3c5.6,2,10.4,5.2,14.4,9.6c2.3,2.5,4.2,5.3,5.8,8.4
			c2.1,4.2,3.6,8.6,4.5,13.2c0.1,0.5,0.1,1.1,0.2,1.6c0.1,0.3,0.1,0.7,0.3,0.9C515.7,259.8,515.7,262.9,515.7,266.1z"/>
	</g>
	<g id="XMLID_41_">
		<g id="XMLID_70_">
			<path id="XMLID_71_" class="st0" d="M1107.8,40.8c24.3,0,46.1,11.8,59.5,30.2l-25.4,16.4c-9.5-8.6-20-14.2-34-14.2
				c-22.8,0-41.4,18.7-41.4,41.6c0,22.8,18.5,41.4,41.4,41.4c14,0,22.8-4.5,34-14l25.4,16.4c-13.4,18.3-35.1,29.9-59.5,29.9
				c-40.7,0-73.7-33-73.7-73.7S1067.1,40.8,1107.8,40.8"/>
		</g>
		<g id="XMLID_62_">
			<path id="XMLID_63_" class="st0" d="M1265.9,44.7l67,140h-37.3l-9.5-19.2h-67.9l-9.5,19.2h-37.9l69.6-140H1265.9 M1232.3,138.2
				h40.7l-20.9-45L1232.3,138.2"/>
		</g>
		<g id="XMLID_59_">
			<path id="XMLID_60_" class="st0" d="M1397.4,40.8c39.4,0,58.8,20,58.8,38.8h-34.7c0-3.4-5.8-10.8-24.1-10.8
				c-12.3,0-22.4,7.5-22.4,17c0,11.4,21.8,11.4,29.5,12.7c19.6,3.7,56.4,8.4,56.4,45.4c0,24.1-28.4,44.4-61.8,44.4
				c-42.9,0-62.7-28-62.7-47h36.4c0,0.2,1.5,19.2,26.3,19.2c13.4,0,25.4-8,25.4-16.6c0-17.9-32.5-19.2-41.8-21.1
				c-16.4-3.2-44.2-10.6-44.2-37C1338.5,61.1,1365,40.8,1397.4,40.8"/>
		</g>
		<g id="XMLID_56_">
			<path id="XMLID_57_" class="st0" d="M1519.5,44.7v140h-33.6v-140H1519.5"/>
		</g>
		<g id="XMLID_53_">
			<path id="XMLID_54_" class="st0" d="M1687.3,44.7v140h-33.6l-69.8-83.8v83.8h-33.6v-140h33.6l69.8,87.2V44.7H1687.3"/>
		</g>
		<g id="XMLID_49_">
			<path id="XMLID_50_" class="st0" d="M1780,41.1c40.7,0,73.7,33.2,73.7,73.9s-33,73.7-73.7,73.7c-40.9,0-73.9-33-73.9-73.7
				S1739,41.1,1780,41.1 M1780,156.3c22.8,0,41.4-18.5,41.4-41.4c0-22.8-18.5-41.6-41.4-41.6c-23.1,0-41.6,18.7-41.6,41.6
				C1738.4,137.8,1756.9,156.3,1780,156.3"/>
		</g>
		<g id="XMLID_46_">
			<path id="XMLID_47_" class="st0" d="M2047.2,44.7l-59.9,140h-33.6l-60.1-140h38.3l38.6,85.7l38.3-85.7H2047.2"/>
		</g>
		<g id="XMLID_42_">
			<path id="XMLID_43_" class="st0" d="M2132.8,44.7c28.7,0,50.2,24.6,50.2,55.1c0,20.2-10.1,34.7-25,42.6l30.8,42.2h-42.2
				l-23.1-34.9H2099v34.9h-34.3v-140C2064.8,44.7,2116.2,44.7,2132.8,44.7 M2099,119h28.4c11.4,0,20.9-7.5,20.9-19.2
				c0-11.4-9.3-20.7-20.7-20.7H2099V119"/>
		</g>
	</g>
	<g id="XMLID_27_">
		<path id="XMLID_38_" class="st2" d="M1282.5,382.8c0,2.2,0,4.4,0,6.6c-3.5,59.3-53.1,106.6-113.3,106.6h-59.3v61.1h-70.4V269.5
			c0,0,105.8,0,139.8,0c59.3,0,100,50.4,103.1,106.6C1282.5,378.4,1282.5,380.6,1282.5,382.8z M1211.3,382.8
			c0-23.5-18.6-42.5-42-42.9h-59.3v85.8h58.4C1192.3,425.7,1211.3,406.7,1211.3,382.8z"/>
		<path id="XMLID_35_" class="st2" d="M1618.4,413.8c0,83.6-67.7,151.3-151.4,151.3c-84.1,0-151.8-67.7-151.8-151.3
			c0-83.6,67.7-151.8,151.8-151.8C1550.7,262,1618.4,330.1,1618.4,413.8z M1552.1,413.8c0-46.9-38.1-85.4-85-85.4
			c-47.4,0-85.4,38.5-85.4,85.4c0,46.9,38.1,85,85.4,85C1514,498.7,1552.1,460.7,1552.1,413.8z"/>
		<path id="XMLID_33_" class="st2" d="M1760.1,446.1l-29.2,30.1v81h-69V269.5h69V385l118.6-115.5h87.6l-129.2,125.7l136.7,162h-97.8
			L1760.1,446.1z"/>
		<path id="XMLID_31_" class="st2" d="M2047.3,331.5v51.3h116.4v61.5h-116.4v51.3h147.4v61.5h-216.4V269.5h216.4v61.9H2047.3z"/>
		<path id="XMLID_28_" class="st2" d="M2413.3,557.1l-47.4-71.7h-50.5v71.7h-70.4V269.5c0,0,105.8,0,139.8,0
			c58.9,0,103.1,50.4,103.1,113.3c0,41.6-20.8,71.2-51.3,87.6l63.3,86.7H2413.3z M2315.5,422.2h58.4c23.5,0,42.9-15.5,42.9-39.4
			c0-23.5-19-42.5-42.5-42.5h-58.9V422.2z"/>
	</g>
</g>
</svg>
