<svg xmlns="http://www.w3.org/2000/svg" width="262" height="136" viewBox="0 0 262 136"><g fill-rule="evenodd" clip-rule="evenodd"><path d="M1.487 134.817V1.172h114.371v133.645H1.487zm75.237-6.343c.401.022.607.044.813.044 10.392.002 20.783.001 31.174.001.971 0 .97-.002.97-.933V8.649c0-1.056 0-1.057-1.061-1.057-33.31.001-66.62.003-99.93-.011-.645 0-.865.144-.865.835.017 39.765.017 79.531.002 119.296 0 .628.166.824.808.82 4.127-.026 8.255-.004 12.383-.026.488-.003 1.014-.093 1.458-.289 3.486-1.545 6.993-3.051 10.42-4.717 3.434-1.671 6.763-3.564 9.576-6.194a14.343 14.343 0 0 0 2.522-3.105c1.157-1.948.827-3.808-.729-5.466-1.17-1.247-2.616-2.094-4.136-2.825-3.374-1.623-6.998-2.485-10.579-3.482-3.609-1.005-7.204-2.089-10.467-3.976a14.03 14.03 0 0 1-3.241-2.571c-1.217-1.316-1.17-2.865-.004-4.246a12.464 12.464 0 0 1 2.379-2.168c3.144-2.187 6.7-3.522 10.29-4.752 8.098-2.772 16.432-4.639 24.804-6.347.657-.134 1.322-.229 1.983-.344-.183.24-.403.315-.625.385-3.067.961-6.155 1.857-9.196 2.896-3.839 1.312-7.635 2.765-11.067 4.974a14.239 14.239 0 0 0-2.932 2.509c-1.102 1.248-.948 2.604.316 3.671.706.596 1.508 1.173 2.367 1.47 2.329.807 4.679 1.602 7.078 2.144 5.825 1.317 11.705 2.392 17.521 3.746 5.239 1.221 10.353 2.887 15.212 5.243 2.732 1.325 5.327 2.865 7.449 5.089 2.979 3.122 3.583 6.548 1.769 10.445-1.342 2.885-3.506 5.131-5.825 7.243-.178.161-.342.34-.637.635z"/><path fill="#FFF" d="M76.724 128.474c.295-.295.459-.474.639-.637 2.319-2.112 4.483-4.358 5.825-7.243 1.813-3.897 1.21-7.323-1.769-10.445-2.122-2.224-4.716-3.764-7.449-5.089-4.859-2.356-9.973-4.022-15.212-5.243-5.816-1.354-11.696-2.429-17.521-3.746-2.399-.542-4.75-1.337-7.078-2.144-.859-.297-1.661-.874-2.367-1.47-1.264-1.066-1.418-2.423-.316-3.671a14.243 14.243 0 0 1 2.932-2.509c3.432-2.209 7.228-3.662 11.067-4.974 3.041-1.038 6.129-1.935 9.196-2.896.222-.069.442-.145.625-.385-.661.114-1.326.21-1.983.344-8.373 1.708-16.706 3.574-24.804 6.347-3.59 1.229-7.146 2.565-10.29 4.752a12.464 12.464 0 0 0-2.379 2.168c-1.167 1.381-1.213 2.93.004 4.246a14.003 14.003 0 0 0 3.241 2.571c3.263 1.887 6.858 2.971 10.467 3.976 3.582.997 7.205 1.859 10.579 3.482 1.52.731 2.966 1.578 4.136 2.825 1.556 1.658 1.886 3.518.729 5.466a14.349 14.349 0 0 1-2.522 3.105c-2.813 2.63-6.142 4.523-9.576 6.194-3.428 1.666-6.935 3.172-10.42 4.717-.443.196-.969.286-1.458.289-4.128.022-8.256 0-12.383.026-.642.004-.808-.192-.808-.82.013-39.763.013-79.529-.003-119.294 0-.691.22-.835.865-.835 33.309.014 66.619.012 99.929.012 1.062 0 1.061 0 1.061 1.057v118.937c0 .931 0 .933-.97.933-10.391 0-20.782.001-31.174-.001-.206-.001-.412-.022-.813-.045zM91.289 27.087c-.146.538-.298 1.085-.444 1.635-3.194 11.985-6.382 23.973-9.585 35.955-.355 1.327-.065 1.216-1.546 1.215-.78 0-.821.057-.642.841.481 2.107 1.727 3.659 3.511 4.813 1.708 1.104 3.615 1.664 5.605 1.928 3.825.505 7.627.467 11.295-.898 2.664-.992 4.701-2.682 5.512-5.545.305-1.078.243-1.188-.86-1.121-.744.046-1.032-.213-1.215-.934-.875-3.44-1.814-6.865-2.73-10.295-2.43-9.11-4.855-18.221-7.3-27.328-.128-.478-.06-.715.386-.971 1.17-.671 1.618-1.953 1.176-3.152-.416-1.13-1.602-1.843-2.803-1.685-1.278.168-2.214 1.203-2.262 2.574-.015.422-.128.602-.559.638-3.697.309-7.091-.4-9.853-3.048-1.698-1.629-3.637-2.887-5.861-3.539-1.747-.511-3.063-1.473-4.267-2.747-.269-.284-.782-.467-1.186-.474-2.567-.042-5.14.073-7.701-.057-1.479-.075-2.601.287-3.468 1.48-.59.813-1.448 1.176-2.394 1.467-2.336.721-4.547 1.743-6.304 3.487-2.836 2.816-6.268 3.74-10.144 3.445-.552-.042-.779-.177-.781-.8-.004-1.287-1.103-2.35-2.39-2.443a2.63 2.63 0 0 0-2.698 1.843c-.376 1.203.108 2.439 1.28 3.044.479.248.631.466.441.991-.228.629-.362 1.292-.535 1.941l-9.454 35.469c-.287 1.075-.291 1.073-1.44 1.074-.886 0-.95.081-.727.955.545 2.142 1.849 3.708 3.711 4.837 1.952 1.184 4.116 1.702 6.356 1.915 3.495.332 6.965.237 10.299-1.01 2.61-.976 4.635-2.613 5.495-5.39.401-1.296.374-1.333-.964-1.294-.588.017-.85-.17-.989-.752-.374-1.563-.815-3.109-1.229-4.663l-7.846-29.417-1.093-4.11c.343.019.574.041.805.042 1.581.008 3.171.118 4.742-.005 3.415-.269 6.491-1.379 9-3.854 1.857-1.832 4.186-2.841 6.675-3.522.547-.15.992-.209 1.427.284.165.187.561.232.852.234 2.976.016 5.952.002 8.927.016.545.002 1.031-.016 1.427-.488.127-.152.488-.22.703-.168 2.672.649 5.123 1.738 7.176 3.63.685.631 1.402 1.25 2.186 1.748 2.418 1.539 5.138 2.082 7.954 2.199 1.405.059 2.815.01 4.329.01zm-33.08-5.561l-.08.182c.662.651 1.355 1.274 1.971 1.966.244.274.447.701.448 1.058.021 17.998.016 35.996.031 53.994.001.578-.238.739-.734.931-1.289.499-2.62.973-3.78 1.7-1.812 1.138-3.047 2.791-3.308 4.99-.078.655-.339.762-.913.758-3.047-.022-6.096.011-9.143-.022-1.095-.012-1.925.439-2.308 1.392-.396.984-.565 2.061-.805 3.104-.133.579.108.807.73.794 1.751-.037 3.503-.014 5.254-.014h35.205c1.775 0 3.551-.015 5.326.011.536.007.774-.167.676-.707-.155-.847-.24-1.717-.493-2.533-.455-1.466-1.314-2.034-2.833-2.034-3.024 0-6.048-.008-9.071.01-.502.003-.722-.128-.766-.672-.1-1.254-.613-2.36-1.402-3.333-1.446-1.783-3.345-2.856-5.54-3.408-.644-.162-.884-.403-.883-1.105.022-17.83.022-35.66.002-53.491-.001-.739.198-1.272.75-1.752.6-.522 1.135-1.118 1.834-1.817-3.539-.002-6.853-.002-10.168-.002z"/><path d="M91.289 27.087c-1.514 0-2.924.048-4.329-.01-2.815-.117-5.536-.66-7.954-2.199-.783-.498-1.5-1.117-2.186-1.748-2.054-1.892-4.504-2.98-7.176-3.63-.215-.052-.576.016-.703.168-.396.472-.882.49-1.427.488-2.976-.013-5.952 0-8.927-.016-.291-.002-.687-.048-.852-.234-.435-.493-.879-.434-1.427-.284-2.489.681-4.818 1.691-6.675 3.522-2.509 2.475-5.584 3.586-9 3.854-1.571.124-3.161.013-4.742.005-.231-.001-.461-.023-.805-.042.382 1.438.736 2.774 1.093 4.11l7.846 29.417c.414 1.553.855 3.1 1.229 4.663.14.582.401.769.989.752 1.338-.039 1.365-.002.964 1.294-.86 2.776-2.885 4.414-5.495 5.39-3.334 1.247-6.804 1.342-10.299 1.01-2.24-.213-4.404-.731-6.356-1.915-1.862-1.129-3.166-2.695-3.711-4.837-.223-.874-.159-.954.727-.955 1.149-.001 1.153 0 1.44-1.074l9.454-35.469c.173-.649.307-1.313.535-1.941.19-.525.039-.744-.441-.991-1.172-.604-1.656-1.841-1.28-3.044a2.629 2.629 0 0 1 2.698-1.843c1.287.093 2.385 1.156 2.39 2.443.002.624.229.758.781.8 3.876.294 7.308-.629 10.144-3.445 1.756-1.744 3.967-2.767 6.304-3.487.945-.292 1.803-.655 2.394-1.467.867-1.194 1.988-1.555 3.468-1.48 2.561.129 5.134.015 7.701.057.404.007.917.189 1.186.474 1.204 1.274 2.52 2.235 4.267 2.747 2.225.651 4.163 1.91 5.861 3.539 2.761 2.648 6.155 3.357 9.853 3.048.431-.036.544-.215.559-.638.048-1.372.984-2.406 2.262-2.574 1.201-.158 2.388.555 2.803 1.685.441 1.199-.006 2.48-1.176 3.152-.446.256-.515.494-.386.971 2.445 9.106 4.87 18.218 7.3 27.328.916 3.43 1.855 6.855 2.73 10.295.183.721.472.98 1.215.934 1.104-.067 1.166.043.86 1.121-.811 2.864-2.849 4.553-5.512 5.545-3.667 1.365-7.47 1.403-11.295.898-1.99-.264-3.897-.823-5.605-1.928-1.784-1.154-3.03-2.706-3.511-4.813-.179-.784-.139-.841.642-.841 1.481 0 1.191.111 1.546-1.215 3.204-11.982 6.392-23.97 9.585-35.955.146-.549.298-1.097.444-1.635zM44.085 65.893L35.229 32.67l-.211.034v1.839c0 10.167.006 20.335-.013 30.502-.001.651.157.874.841.862 2.445-.041 4.892-.016 7.338-.016.254.002.508.002.901.002zM91.36 32.768l-.205-.027-8.825 33.113c.363.017.595.038.827.038 2.47.003 4.941-.022 7.411.018.69.011.837-.228.836-.872-.013-10.553-.003-21.106-.001-31.66.001-.203-.028-.407-.043-.61zm-57.704-.072l-.197-.011c-.131.505-.26 1.011-.395 1.515-2.752 10.311-5.501 20.623-8.27 30.93-.181.673.05.777.645.772 2.447-.022 4.895-.039 7.341.007.746.014.92-.22.919-.938-.014-10.556.001-21.111.006-31.667 0-.202-.032-.405-.049-.608zm59.242-.026l-.176.029v1.893c0 10.15.005 20.301-.013 30.452-.001.653.159.875.844.864 2.447-.041 4.895-.016 7.343-.015.915 0 .907.004.672-.88-2.813-10.571-5.623-21.143-8.436-31.714-.057-.215-.155-.419-.234-.629z"/><path d="M58.209 21.526h10.168c-.7.699-1.235 1.295-1.834 1.817-.551.479-.75 1.013-.75 1.752.02 17.831.02 35.661-.002 53.491-.001.702.24.943.883 1.105 2.195.552 4.094 1.625 5.54 3.408.789.973 1.302 2.079 1.402 3.333.043.544.263.675.766.672 3.023-.018 6.047-.01 9.071-.01 1.519 0 2.379.568 2.833 2.034.253.816.338 1.687.493 2.533.099.54-.14.714-.676.707-1.775-.025-3.551-.011-5.326-.011H45.572c-1.751 0-3.503-.023-5.254.014-.622.013-.863-.215-.73-.794.239-1.043.409-2.119.805-3.104.383-.952 1.213-1.403 2.308-1.392 3.047.033 6.096 0 9.143.022.574.004.835-.103.913-.758.26-2.199 1.496-3.853 3.308-4.99 1.161-.728 2.492-1.201 3.78-1.7.496-.191.735-.353.734-.931-.015-17.998-.01-35.996-.031-53.994 0-.357-.204-.784-.448-1.058-.616-.692-1.309-1.315-1.971-1.966l.08-.18z"/></g><path fill="#02662C" d="M138.803 19.643h-3.461v10.311h-5.965V1.231h9.426c4.677 0 9.979 1.215 9.979 8.837v.736c.001 7.66-5.302 8.839-9.979 8.839zm3.941-9.39c0-3.24-2.063-3.867-3.683-3.867h-3.719v8.102h3.719c1.62 0 3.683-.626 3.683-3.867v-.368zm18.558 20.179c-7.807 0-10.311-3.314-10.311-9.574V1.231h5.965v19.442c0 3.056.958 4.603 4.346 4.603s4.382-1.547 4.382-4.603V1.231h5.965v19.626c0 6.261-2.54 9.575-10.347 9.575zm28.386-.479l-9.279-17.822.185 5.781v12.041h-5.634V1.231h6.297l9.242 17.822-.184-5.781V1.231h5.67v28.722h-6.297zm17.046.479c-6.334 0-8.506-3.388-8.506-9.316v-.957h5.634c0 3.388.626 5.119 2.725 5.119 2.136 0 2.726-1.731 2.726-4.824V1.231h5.965v19.958c-.001 5.855-2.469 9.243-8.544 9.243zm25.908-.479l-1.399-6.187h-7.033l-1.362 6.187h-6.407l7.181-28.795h8.211l7.181 28.795h-6.372zm-4.934-21.91l-2.356 10.568h4.713l-2.357-10.568zm32.805 12.925v.736c0 6.997-5.045 8.249-9.685 8.249h-9.722V1.231h9.427c4.493 0 9.243 1.215 9.243 7.954v.736c0 2.614-1.142 4.234-2.799 5.192 2.064.995 3.536 2.762 3.536 5.855zm-6.775-11.673c0-2.356-1.694-2.909-3.241-2.909h-3.424v6.297h3.424c1.547 0 3.241-.552 3.241-2.909v-.479zm.736 11.857c0-2.615-1.805-3.277-3.462-3.277h-3.939v6.923h3.939c1.657 0 3.462-.699 3.462-3.314v-.332z"/><path d="M140.911 56.696l-.992-4.382h-4.981l-.966 4.382h-4.538l5.086-20.397h5.816l5.086 20.397h-4.511zm-3.496-15.52l-1.669 7.486h3.339l-1.67-7.486zm16.059 12.207h.234c2.061 0 2.817-1.435 2.817-3.626h4.226v.235c0 5.008-2.452 7.042-7.277 7.042-5.295 0-7.643-2.947-7.643-9.99v-1.043c0-7.042 2.348-9.99 7.643-9.99 4.825 0 7.277 2.034 7.277 7.121v.939h-4.226c0-2.791-.6-4.408-2.817-4.408h-.234c-2.713 0-3.365 2.269-3.365 6.338v1.043c0 4.07.652 6.339 3.365 6.339zm16.484 0h.234c2.061 0 2.817-1.435 2.817-3.626h4.226v.235c0 5.008-2.452 7.042-7.277 7.042-5.295 0-7.643-2.947-7.643-9.99v-1.043c0-7.042 2.348-9.99 7.643-9.99 4.825 0 7.277 2.034 7.277 7.121v.939h-4.226c0-2.791-.601-4.408-2.817-4.408h-.234c-2.713 0-3.365 2.269-3.365 6.338v1.043c0 4.07.653 6.339 3.365 6.339zm21.678-.339v3.652h-12.442V36.351h12.442v3.651h-8.217v4.486h6.912v3.652h-6.912v4.904h8.217zm9.365-8.347c4.435.6 6.678 2.113 6.678 5.895v.26c0 3.913-2.582 6.182-7.355 6.182-4.8 0-7.329-2.139-7.329-7.042v-.235h4.225c0 2.557 1.044 3.626 3 3.626h.235c1.956 0 2.921-1.043 2.921-2.4v-.131c0-1.46-.757-2.269-3.704-2.66-4.434-.6-6.521-2.165-6.521-5.843v-.287c0-3.678 2.53-6.051 7.173-6.051 5.008 0 7.199 2.217 7.199 6.99v.548h-4.226c0-2.661-.809-3.886-2.948-3.886h-.234c-1.695 0-2.687.939-2.687 2.243v.131c0 1.486.6 2.269 3.573 2.66zm16.146 0c4.435.6 6.678 2.113 6.678 5.895v.26c0 3.913-2.582 6.182-7.355 6.182-4.8 0-7.33-2.139-7.33-7.042v-.235h4.226c0 2.557 1.044 3.626 3 3.626h.234c1.956 0 2.922-1.043 2.922-2.4v-.131c0-1.46-.757-2.269-3.704-2.66-4.435-.6-6.521-2.165-6.521-5.843v-.287c0-3.678 2.53-6.051 7.174-6.051 5.008 0 7.199 2.217 7.199 6.99v.548h-4.226c0-2.661-.809-3.886-2.948-3.886h-.234c-1.695 0-2.687.939-2.687 2.243v.131c-.001 1.486.598 2.269 3.572 2.66zm22.145-4.695v16.694h-4.226V40.002h-4.695v-3.651h13.642v3.651h-4.721zm13.328 17.033c-5.269 0-7.747-2.947-7.747-9.99v-1.043c0-7.042 2.479-9.99 7.747-9.99 5.295 0 7.772 2.947 7.772 9.99v1.043c0 7.042-2.477 9.99-7.772 9.99zm3.468-11.034c0-4.069-.729-6.338-3.339-6.338h-.234c-2.608 0-3.365 2.269-3.365 6.338v1.043c0 4.069.757 6.339 3.365 6.339h.234c2.609 0 3.339-2.27 3.339-6.339v-1.043zM137.647 90.47c-6.031 0-8.101-3.227-8.101-8.873v-.912h5.366c0 3.227.597 4.875 2.596 4.875 2.033 0 2.595-1.648 2.595-4.595V62.659h5.682v19.008c-.001 5.577-2.351 8.803-8.138 8.803zm20.965 0c-7.436 0-9.82-3.156-9.82-9.119V62.659h5.682v18.517c0 2.911.912 4.384 4.139 4.384 3.226 0 4.173-1.473 4.173-4.384V62.659h5.682v18.692c-.002 5.963-2.422 9.119-9.856 9.119zm22.917-16.589c5.962.807 8.979 2.841 8.979 7.926v.352c0 5.26-3.472 8.312-9.89 8.312-6.453 0-9.855-2.876-9.855-9.47v-.315h5.682c0 3.437 1.403 4.875 4.033 4.875h.315c2.631 0 3.928-1.402 3.928-3.227v-.175c0-1.965-1.017-3.052-4.979-3.578-5.962-.807-8.768-2.91-8.768-7.855v-.386c0-4.945 3.401-8.136 9.645-8.136 6.733 0 9.679 2.981 9.679 9.399v.736h-5.682c0-3.577-1.087-5.226-3.963-5.226h-.315c-2.279 0-3.612 1.263-3.612 3.017v.175c-.002 1.998.805 3.051 4.803 3.576zm22.34-6.312v22.445h-5.682V67.569h-6.313v-4.91h18.341v4.91h-6.346zm8.447 22.445V62.659h5.682v27.355h-5.682zm18.724-4.454h.315c2.771 0 3.788-1.929 3.788-4.875h5.681V81c0 6.733-3.297 9.47-9.784 9.47-7.119 0-10.275-3.964-10.275-13.433v-1.402c0-9.469 3.156-13.432 10.275-13.432 6.487 0 9.784 2.735 9.784 9.574v1.263h-5.681c0-3.752-.808-5.927-3.788-5.927h-.315c-3.647 0-4.524 3.051-4.524 8.522v1.402c-.001 5.471.876 8.523 4.524 8.523zm29.145-.456v4.91h-16.728V62.659h16.728v4.91h-11.047v6.032h9.294v4.91h-9.294v6.593h11.047zM137.874 112.496h-3.049v9.083h-5.255V96.277h8.304c4.12 0 8.791 1.07 8.791 7.785v.648c0 6.748-4.671 7.786-8.791 7.786zm3.47-8.272c0-2.854-1.816-3.406-3.243-3.406h-3.276v7.137h3.276c1.427 0 3.243-.552 3.243-3.406v-.325zm20.447 7.526l3.99 9.829h-5.677l-3.471-9.083h-2.692v9.083h-5.255V96.277h8.304c4.12 0 8.791 1.07 8.791 7.785v.648c0 4.088-1.719 6.099-3.99 7.04zm-1.331-7.526c0-2.854-1.816-3.406-3.243-3.406h-3.276v7.137h3.276c1.427 0 3.243-.552 3.243-3.406v-.325zM177.338 122c-6.553 0-9.634-3.666-9.634-12.424v-1.298c0-8.758 3.081-12.424 9.634-12.424 6.585 0 9.667 3.666 9.667 12.424v1.298c0 8.758-3.082 12.424-9.667 12.424zm4.315-13.721c0-5.061-.908-7.882-4.152-7.882h-.292c-3.243 0-4.184 2.821-4.184 7.882v1.298c0 5.061.94 7.882 4.184 7.882h.292c3.244 0 4.152-2.821 4.152-7.882v-1.298zM196.157 122c-5.579 0-7.493-2.984-7.493-8.207v-.844h4.963c0 2.984.551 4.509 2.4 4.509 1.881 0 2.4-1.524 2.4-4.249V96.277h5.255v17.582c0 5.157-2.174 8.141-7.525 8.141zm25.914-4.962v4.541h-15.473V96.277h15.473v4.541h-10.218v5.58h8.597v4.541h-8.597v6.099h10.218zm10.965.42h.292c2.563 0 3.504-1.783 3.504-4.509h5.255v.292c0 6.229-3.049 8.759-9.051 8.759-6.585 0-9.504-3.666-9.504-12.424v-1.298c0-8.758 2.919-12.424 9.504-12.424 6.002 0 9.051 2.53 9.051 8.855v1.168h-5.255c0-3.471-.746-5.481-3.504-5.481h-.292c-3.373 0-4.185 2.821-4.185 7.882v1.298c0 5.061.812 7.882 4.185 7.882zm21.572-16.64v20.761h-5.255v-20.761h-5.839v-4.541h16.965v4.541h-5.871z"/><path fill="#003471" d="M130.926 129.276v1.467h2.226v1.193h-2.226v2.796h-1.381v-6.649h4.032v1.193h-2.651zm5.602 5.566c-1.807 0-2.387-.767-2.387-2.216v-4.544h1.381v4.501c0 .707.222 1.065 1.006 1.065s1.015-.358 1.015-1.065v-4.501h1.381v4.544c-.001 1.45-.589 2.216-2.396 2.216zm6.653-.11l-2.148-4.126.043 1.338v2.788h-1.305v-6.649h1.458l2.14 4.126-.043-1.339v-2.787h1.313v6.649h-1.458zm4.374 0h-2.037v-6.649h2.037c1.978 0 2.805.853 2.805 3.154v.341c0 2.301-.827 3.154-2.805 3.154zm1.399-3.495c0-1.33-.324-1.961-1.476-1.961h-.579v4.263h.579c1.151 0 1.476-.631 1.476-1.961v-.341zm6.207 2.302v1.193h-4.067v-6.649h4.067v1.193h-2.686v1.467h2.259v1.193h-2.259v1.603h2.686zm2.702 1.193h-2.038v-6.649h2.038c1.978 0 2.805.853 2.805 3.154v.341c-.001 2.301-.828 3.154-2.805 3.154zm1.397-3.495c0-1.33-.323-1.961-1.475-1.961h-.579v4.263h.579c1.151 0 1.475-.631 1.475-1.961v-.341zm8.416 1.415v.171c0 1.619-1.168 1.909-2.242 1.909h-2.251v-6.649h2.183c1.04 0 2.14.281 2.14 1.841v.171c0 .605-.265.98-.648 1.202.476.229.818.639.818 1.355zm-1.569-2.702c0-.546-.392-.674-.75-.674h-.793v1.458h.793c.358 0 .75-.128.75-.674v-.11zm.171 2.745c0-.605-.418-.759-.802-.759h-.912v1.603h.912c.384 0 .802-.162.802-.768v-.076zm4.852 0v2.037h-1.381v-2.037l-1.91-4.612h1.509l1.091 2.906 1.083-2.906h1.509l-1.901 4.612zm6.736-3.419v5.456h-1.381v-5.456h-1.535v-1.193h4.459v1.193h-1.543zm5.43 5.456v-2.796h-1.936v2.796h-1.381v-6.649h1.381v2.66h1.936v-2.66h1.381v6.649h-1.381zm6.327-1.193v1.193h-4.066v-6.649h4.066v1.193h-2.686v1.467h2.259v1.193h-2.259v1.603h2.686zm6.59 0v1.193h-4.066v-6.649h4.066v1.193h-2.686v1.467h2.259v1.193h-2.259v1.603h2.686zm3.032 1.303c-1.808 0-2.388-.767-2.388-2.216v-4.544h1.382v4.501c0 .707.222 1.065 1.006 1.065s1.014-.358 1.014-1.065v-4.501h1.382v4.544c-.001 1.45-.59 2.216-2.396 2.216zm6.686-2.693l1.049 2.583h-1.492l-.912-2.387h-.707v2.387h-1.382v-6.649h2.183c1.083 0 2.311.281 2.311 2.046v.171c-.001 1.073-.453 1.602-1.05 1.849zm-.349-1.978c0-.75-.477-.896-.853-.896h-.86v1.875h.86c.376 0 .853-.145.853-.895v-.084zm4.516 4.671c-1.722 0-2.532-.963-2.532-3.265v-.341c0-2.302.811-3.266 2.532-3.266 1.73 0 2.54.964 2.54 3.266v.341c0 2.302-.809 3.265-2.54 3.265zm1.134-3.605c0-1.33-.238-2.072-1.091-2.072h-.077c-.853 0-1.1.742-1.1 2.072v.341c0 1.33.247 2.071 1.1 2.071h.077c.853 0 1.091-.741 1.091-2.071v-.341zm4.324 1.108h-.802v2.387h-1.381v-6.649h2.183c1.082 0 2.31.281 2.31 2.046v.171c0 1.772-1.228 2.045-2.31 2.045zm.912-2.174c0-.75-.478-.896-.853-.896h-.861v1.875h.861c.375 0 .853-.145.853-.895v-.084zm6.076 3.368v1.193h-4.066v-6.649h4.066v1.193h-2.686v1.467h2.259v1.193h-2.259v1.603h2.686zm4.246 1.193l-.323-1.433h-1.629l-.315 1.433h-1.483l1.663-6.667h1.9l1.662 6.667h-1.475zm-1.143-5.072l-.545 2.446h1.091l-.546-2.446zm6.591 5.072l-2.148-4.126.043 1.338v2.788h-1.305v-6.649h1.458l2.14 4.126-.042-1.339v-2.787h1.313v6.649h-1.459zm6.463.11c-1.807 0-2.387-.767-2.387-2.216v-4.544h1.381v4.501c0 .707.222 1.065 1.006 1.065s1.015-.358 1.015-1.065v-4.501h1.381v4.544c-.001 1.45-.589 2.216-2.396 2.216zm6.653-.11l-2.148-4.126.043 1.338v2.788h-1.305v-6.649h1.458l2.14 4.126-.043-1.339v-2.787h1.313v6.649h-1.458zm2.355 0v-6.649h1.382v6.649h-1.382zm4.659.11c-1.723 0-2.532-.963-2.532-3.265v-.341c0-2.302.81-3.266 2.532-3.266 1.73 0 2.54.964 2.54 3.266v.341c0 2.302-.81 3.265-2.54 3.265zm1.133-3.605c0-1.33-.239-2.072-1.091-2.072h-.077c-.853 0-1.1.742-1.1 2.072v.341c0 1.33.247 2.071 1.1 2.071h.077c.852 0 1.091-.741 1.091-2.071v-.341zM260.51 128.083h-1.312v2.787l.043 1.338-2.141-4.125h-1.457v6.649h1.304v-2.788l-.042-1.338 2.147 4.126h1.458v-6.649z"/></svg>