<?xml version="1.0" encoding="utf-8"?>
<!-- Generator: Adobe Illustrator 16.0.0, SVG Export Plug-In . SVG Version: 6.00 Build 0)  -->
<!DOCTYPE svg PUBLIC "-//W3C//DTD SVG 1.1//EN" "http://www.w3.org/Graphics/SVG/1.1/DTD/svg11.dtd">
<svg version="1.1" id="Layer_1" xmlns="http://www.w3.org/2000/svg" xmlns:xlink="http://www.w3.org/1999/xlink" x="0px" y="0px"
	 width="262px" height="136px" viewBox="0 0 262 136" enable-background="new 0 0 262 136" xml:space="preserve">
<g>
	<path fill-rule="evenodd" clip-rule="evenodd" d="M1.487,134.817c0-44.586,0-89.092,0-133.645c38.136,0,76.229,0,114.371,0
		c0,44.536,0,89.063,0,133.645C77.756,134.817,39.644,134.817,1.487,134.817z M76.724,128.474c0.401,0.022,0.607,0.044,0.813,0.044
		c10.392,0.002,20.783,0.001,31.174,0.001c0.971,0,0.97-0.002,0.97-0.933c0-39.646,0-79.291,0-118.937c0-1.056,0-1.057-1.061-1.057
		C75.31,7.593,42,7.595,8.69,7.581c-0.645,0-0.865,0.144-0.865,0.835c0.017,39.765,0.017,79.531,0.002,119.296
		c0,0.628,0.166,0.824,0.808,0.82c4.127-0.026,8.255-0.004,12.383-0.026c0.488-0.003,1.014-0.093,1.458-0.289
		c3.486-1.545,6.993-3.051,10.42-4.717c3.434-1.671,6.763-3.564,9.576-6.194c0.967-0.904,1.848-1.969,2.522-3.105
		c1.157-1.948,0.827-3.808-0.729-5.466c-1.17-1.247-2.616-2.094-4.136-2.825c-3.374-1.623-6.998-2.485-10.579-3.482
		c-3.609-1.005-7.204-2.089-10.467-3.976c-1.185-0.685-2.313-1.568-3.241-2.571c-1.217-1.316-1.17-2.865-0.004-4.246
		c0.688-0.814,1.504-1.56,2.379-2.168c3.144-2.187,6.7-3.522,10.29-4.752c8.098-2.772,16.432-4.639,24.804-6.347
		c0.657-0.134,1.322-0.229,1.983-0.344c-0.183,0.24-0.403,0.315-0.625,0.385c-3.067,0.961-6.155,1.857-9.196,2.896
		c-3.839,1.312-7.635,2.765-11.067,4.974c-1.074,0.691-2.087,1.553-2.932,2.509c-1.102,1.248-0.948,2.604,0.316,3.671
		c0.706,0.596,1.508,1.173,2.367,1.47c2.329,0.807,4.679,1.602,7.078,2.144c5.825,1.317,11.705,2.392,17.521,3.746
		c5.239,1.221,10.353,2.887,15.212,5.243c2.732,1.325,5.327,2.865,7.449,5.089c2.979,3.122,3.583,6.548,1.769,10.445
		c-1.342,2.885-3.506,5.131-5.825,7.243C77.183,128,77.019,128.179,76.724,128.474z"/>
	<path fill-rule="evenodd" clip-rule="evenodd" fill="#FFFFFF" d="M76.724,128.474c0.295-0.295,0.459-0.474,0.639-0.637
		c2.319-2.112,4.483-4.358,5.825-7.243c1.813-3.897,1.21-7.323-1.769-10.445c-2.122-2.224-4.716-3.764-7.449-5.089
		c-4.859-2.356-9.973-4.022-15.212-5.243c-5.816-1.354-11.696-2.429-17.521-3.746c-2.399-0.542-4.75-1.337-7.078-2.144
		c-0.859-0.297-1.661-0.874-2.367-1.47c-1.264-1.066-1.418-2.423-0.316-3.671c0.845-0.956,1.857-1.817,2.932-2.509
		c3.432-2.209,7.228-3.662,11.067-4.974c3.041-1.038,6.129-1.935,9.196-2.896c0.222-0.069,0.442-0.145,0.625-0.385
		c-0.661,0.114-1.326,0.21-1.983,0.344c-8.373,1.708-16.706,3.574-24.804,6.347c-3.59,1.229-7.146,2.565-10.29,4.752
		c-0.875,0.608-1.691,1.354-2.379,2.168c-1.167,1.381-1.213,2.93,0.004,4.246c0.928,1.003,2.056,1.887,3.241,2.571
		c3.263,1.887,6.858,2.971,10.467,3.976c3.582,0.997,7.205,1.859,10.579,3.482c1.52,0.731,2.966,1.578,4.136,2.825
		c1.556,1.658,1.886,3.518,0.729,5.466c-0.675,1.137-1.555,2.201-2.522,3.105c-2.813,2.63-6.142,4.523-9.576,6.194
		c-3.428,1.666-6.935,3.172-10.42,4.717c-0.443,0.196-0.969,0.286-1.458,0.289c-4.128,0.022-8.256,0-12.383,0.026
		c-0.642,0.004-0.808-0.192-0.808-0.82C7.842,87.947,7.842,48.181,7.826,8.416c0-0.691,0.22-0.835,0.865-0.835
		C42,7.595,75.31,7.593,108.62,7.593c1.062,0,1.061,0,1.061,1.057c0,39.646,0,79.291,0,118.937c0,0.931,0,0.933-0.97,0.933
		c-10.391,0-20.782,0.001-31.174-0.001C77.331,128.518,77.125,128.497,76.724,128.474z M91.289,27.087
		c-0.146,0.538-0.298,1.085-0.444,1.635c-3.194,11.985-6.382,23.973-9.585,35.955c-0.355,1.327-0.065,1.216-1.546,1.215
		c-0.78,0-0.821,0.057-0.642,0.841c0.481,2.107,1.727,3.659,3.511,4.813c1.708,1.104,3.615,1.664,5.605,1.928
		c3.825,0.505,7.627,0.467,11.295-0.898c2.664-0.992,4.701-2.682,5.512-5.545c0.305-1.078,0.243-1.188-0.86-1.121
		c-0.744,0.046-1.032-0.213-1.215-0.934c-0.875-3.44-1.814-6.865-2.73-10.295c-2.43-9.11-4.855-18.221-7.3-27.328
		c-0.128-0.478-0.06-0.715,0.386-0.971c1.17-0.671,1.618-1.953,1.176-3.152c-0.416-1.13-1.602-1.843-2.803-1.685
		c-1.278,0.168-2.214,1.203-2.262,2.574c-0.015,0.422-0.128,0.602-0.559,0.638c-3.697,0.309-7.091-0.4-9.853-3.048
		c-1.698-1.629-3.637-2.887-5.861-3.539c-1.747-0.511-3.063-1.473-4.267-2.747c-0.269-0.284-0.782-0.467-1.186-0.474
		c-2.567-0.042-5.14,0.073-7.701-0.057c-1.479-0.075-2.601,0.287-3.468,1.48c-0.59,0.813-1.448,1.176-2.394,1.467
		c-2.336,0.721-4.547,1.743-6.304,3.487c-2.836,2.816-6.268,3.74-10.144,3.445c-0.552-0.042-0.779-0.177-0.781-0.8
		c-0.004-1.287-1.103-2.35-2.39-2.443c-1.215-0.088-2.333,0.675-2.698,1.843c-0.376,1.203,0.108,2.439,1.28,3.044
		c0.479,0.248,0.631,0.466,0.441,0.991c-0.228,0.629-0.362,1.292-0.535,1.941c-3.151,11.823-6.302,23.646-9.454,35.469
		c-0.287,1.075-0.291,1.073-1.44,1.074c-0.886,0-0.95,0.081-0.727,0.955c0.545,2.142,1.849,3.708,3.711,4.837
		c1.952,1.184,4.116,1.702,6.356,1.915c3.495,0.332,6.965,0.237,10.299-1.01c2.61-0.976,4.635-2.613,5.495-5.39
		c0.401-1.296,0.374-1.333-0.964-1.294c-0.588,0.017-0.85-0.17-0.989-0.752c-0.374-1.563-0.815-3.109-1.229-4.663
		c-2.616-9.806-5.231-19.611-7.846-29.417c-0.356-1.335-0.71-2.671-1.093-4.11c0.343,0.019,0.574,0.041,0.805,0.042
		c1.581,0.008,3.171,0.118,4.742-0.005c3.415-0.269,6.491-1.379,9-3.854c1.857-1.832,4.186-2.841,6.675-3.522
		c0.547-0.15,0.992-0.209,1.427,0.284c0.165,0.187,0.561,0.232,0.852,0.234c2.976,0.016,5.952,0.002,8.927,0.016
		c0.545,0.002,1.031-0.016,1.427-0.488c0.127-0.152,0.488-0.22,0.703-0.168c2.672,0.649,5.123,1.738,7.176,3.63
		c0.685,0.631,1.402,1.25,2.186,1.748c2.418,1.539,5.138,2.082,7.954,2.199C88.365,27.136,89.775,27.087,91.289,27.087z
		 M58.209,21.526c-0.026,0.061-0.053,0.121-0.08,0.182c0.662,0.651,1.355,1.274,1.971,1.966c0.244,0.274,0.447,0.701,0.448,1.058
		c0.021,17.998,0.016,35.996,0.031,53.994c0.001,0.578-0.238,0.739-0.734,0.931c-1.289,0.499-2.62,0.973-3.78,1.7
		c-1.812,1.138-3.047,2.791-3.308,4.99c-0.078,0.655-0.339,0.762-0.913,0.758c-3.047-0.022-6.096,0.011-9.143-0.022
		c-1.095-0.012-1.925,0.439-2.308,1.392c-0.396,0.984-0.565,2.061-0.805,3.104c-0.133,0.579,0.108,0.807,0.73,0.794
		c1.751-0.037,3.503-0.014,5.254-0.014c11.735,0,23.47,0,35.205,0c1.775,0,3.551-0.015,5.326,0.011
		c0.536,0.007,0.774-0.167,0.676-0.707c-0.155-0.847-0.24-1.717-0.493-2.533c-0.455-1.466-1.314-2.034-2.833-2.034
		c-3.024,0-6.048-0.008-9.071,0.01c-0.502,0.003-0.722-0.128-0.766-0.672c-0.1-1.254-0.613-2.36-1.402-3.333
		c-1.446-1.783-3.345-2.856-5.54-3.408c-0.644-0.162-0.884-0.403-0.883-1.105c0.022-17.83,0.022-35.66,0.002-53.491
		c-0.001-0.739,0.198-1.272,0.75-1.752c0.6-0.522,1.135-1.118,1.834-1.817C64.838,21.526,61.524,21.526,58.209,21.526z"/>
	<path fill-rule="evenodd" clip-rule="evenodd" d="M91.289,27.087c-1.514,0-2.924,0.048-4.329-0.01
		c-2.815-0.117-5.536-0.66-7.954-2.199c-0.783-0.498-1.5-1.117-2.186-1.748c-2.054-1.892-4.504-2.98-7.176-3.63
		c-0.215-0.052-0.576,0.016-0.703,0.168c-0.396,0.472-0.882,0.49-1.427,0.488c-2.976-0.013-5.952,0-8.927-0.016
		c-0.291-0.002-0.687-0.048-0.852-0.234c-0.435-0.493-0.879-0.434-1.427-0.284c-2.489,0.681-4.818,1.691-6.675,3.522
		c-2.509,2.475-5.584,3.586-9,3.854c-1.571,0.124-3.161,0.013-4.742,0.005c-0.231-0.001-0.461-0.023-0.805-0.042
		c0.382,1.438,0.736,2.774,1.093,4.11c2.615,9.806,5.23,19.611,7.846,29.417c0.414,1.553,0.855,3.1,1.229,4.663
		c0.14,0.582,0.401,0.769,0.989,0.752c1.338-0.039,1.365-0.002,0.964,1.294c-0.86,2.776-2.885,4.414-5.495,5.39
		c-3.334,1.247-6.804,1.342-10.299,1.01c-2.24-0.213-4.404-0.731-6.356-1.915c-1.862-1.129-3.166-2.695-3.711-4.837
		c-0.223-0.874-0.159-0.954,0.727-0.955c1.149-0.001,1.153,0,1.44-1.074c3.152-11.823,6.302-23.646,9.454-35.469
		c0.173-0.649,0.307-1.313,0.535-1.941c0.19-0.525,0.039-0.744-0.441-0.991c-1.172-0.604-1.656-1.841-1.28-3.044
		c0.365-1.168,1.482-1.932,2.698-1.843c1.287,0.093,2.385,1.156,2.39,2.443c0.002,0.624,0.229,0.758,0.781,0.8
		c3.876,0.294,7.308-0.629,10.144-3.445c1.756-1.744,3.967-2.767,6.304-3.487c0.945-0.292,1.803-0.655,2.394-1.467
		c0.867-1.194,1.988-1.555,3.468-1.48c2.561,0.129,5.134,0.015,7.701,0.057c0.404,0.007,0.917,0.189,1.186,0.474
		c1.204,1.274,2.52,2.235,4.267,2.747c2.225,0.651,4.163,1.91,5.861,3.539c2.761,2.648,6.155,3.357,9.853,3.048
		c0.431-0.036,0.544-0.215,0.559-0.638c0.048-1.372,0.984-2.406,2.262-2.574c1.201-0.158,2.388,0.555,2.803,1.685
		c0.441,1.199-0.006,2.48-1.176,3.152c-0.446,0.256-0.515,0.494-0.386,0.971c2.445,9.106,4.87,18.218,7.3,27.328
		c0.916,3.43,1.855,6.855,2.73,10.295c0.183,0.721,0.472,0.98,1.215,0.934c1.104-0.067,1.166,0.043,0.86,1.121
		c-0.811,2.864-2.849,4.553-5.512,5.545c-3.667,1.365-7.47,1.403-11.295,0.898c-1.99-0.264-3.897-0.823-5.605-1.928
		c-1.784-1.154-3.03-2.706-3.511-4.813c-0.179-0.784-0.139-0.841,0.642-0.841c1.481,0,1.191,0.111,1.546-1.215
		c3.204-11.982,6.392-23.97,9.585-35.955C90.991,28.173,91.143,27.625,91.289,27.087z M44.085,65.893
		C41.109,54.729,38.169,43.7,35.229,32.67c-0.07,0.011-0.141,0.022-0.211,0.034c0,0.613,0,1.226,0,1.839
		c0,10.167,0.006,20.335-0.013,30.502c-0.001,0.651,0.157,0.874,0.841,0.862c2.445-0.041,4.892-0.016,7.338-0.016
		C43.438,65.893,43.692,65.893,44.085,65.893z M91.36,32.768c-0.068-0.009-0.137-0.018-0.205-0.027
		c-2.933,11.006-5.866,22.012-8.825,33.113c0.363,0.017,0.595,0.038,0.827,0.038c2.47,0.003,4.941-0.022,7.411,0.018
		c0.69,0.011,0.837-0.228,0.836-0.872c-0.013-10.553-0.003-21.106-0.001-31.66C91.404,33.175,91.375,32.971,91.36,32.768z
		 M33.656,32.696c-0.065-0.004-0.131-0.007-0.197-0.011c-0.131,0.505-0.26,1.011-0.395,1.515c-2.752,10.311-5.501,20.623-8.27,30.93
		c-0.181,0.673,0.05,0.777,0.645,0.772c2.447-0.022,4.895-0.039,7.341,0.007c0.746,0.014,0.92-0.22,0.919-0.938
		c-0.014-10.556,0.001-21.111,0.006-31.667C33.705,33.102,33.673,32.899,33.656,32.696z M92.898,32.67
		c-0.059,0.009-0.117,0.019-0.176,0.029c0,0.631,0,1.262,0,1.893c0,10.15,0.005,20.301-0.013,30.452
		c-0.001,0.653,0.159,0.875,0.844,0.864c2.447-0.041,4.895-0.016,7.343-0.015c0.915,0,0.907,0.004,0.672-0.88
		c-2.813-10.571-5.623-21.143-8.436-31.714C93.075,33.084,92.977,32.88,92.898,32.67z"/>
	<path fill-rule="evenodd" clip-rule="evenodd" d="M58.209,21.526c3.314,0,6.629,0,10.168,0c-0.7,0.699-1.235,1.295-1.834,1.817
		c-0.551,0.479-0.75,1.013-0.75,1.752c0.02,17.831,0.02,35.661-0.002,53.491c-0.001,0.702,0.24,0.943,0.883,1.105
		c2.195,0.552,4.094,1.625,5.54,3.408c0.789,0.973,1.302,2.079,1.402,3.333c0.043,0.544,0.263,0.675,0.766,0.672
		c3.023-0.018,6.047-0.01,9.071-0.01c1.519,0,2.379,0.568,2.833,2.034c0.253,0.816,0.338,1.687,0.493,2.533
		c0.099,0.54-0.14,0.714-0.676,0.707c-1.775-0.025-3.551-0.011-5.326-0.011c-11.735,0-23.47,0-35.205,0
		c-1.751,0-3.503-0.023-5.254,0.014c-0.622,0.013-0.863-0.215-0.73-0.794c0.239-1.043,0.409-2.119,0.805-3.104
		c0.383-0.952,1.213-1.403,2.308-1.392c3.047,0.033,6.096,0,9.143,0.022c0.574,0.004,0.835-0.103,0.913-0.758
		c0.26-2.199,1.496-3.853,3.308-4.99c1.161-0.728,2.492-1.201,3.78-1.7c0.496-0.191,0.735-0.353,0.734-0.931
		c-0.015-17.998-0.01-35.996-0.031-53.994c0-0.357-0.204-0.784-0.448-1.058c-0.616-0.692-1.309-1.315-1.971-1.966
		C58.156,21.647,58.183,21.586,58.209,21.526z"/>
</g>
<path fill="#02662C" d="M138.803,19.643h-3.461v10.311h-5.965V1.231h9.426c4.677,0,9.979,1.215,9.979,8.837v0.736
	C148.783,18.464,143.48,19.643,138.803,19.643L138.803,19.643z M142.744,10.253c0-3.24-2.063-3.867-3.683-3.867h-3.719v8.102h3.719
	c1.62,0,3.683-0.626,3.683-3.867V10.253L142.744,10.253z M161.302,30.432c-7.807,0-10.311-3.314-10.311-9.574V1.231h5.965v19.442
	c0,3.056,0.958,4.603,4.346,4.603s4.382-1.547,4.382-4.603V1.231h5.965v19.626C171.649,27.118,169.109,30.432,161.302,30.432
	L161.302,30.432z M189.688,29.953l-9.279-17.822l0.185,5.781v12.041h-5.634V1.231h6.297l9.242,17.822l-0.184-5.781V1.231h5.67
	v28.722H189.688L189.688,29.953z M206.734,30.432c-6.334,0-8.506-3.388-8.506-9.316v-0.957h5.634c0,3.388,0.626,5.119,2.725,5.119
	c2.136,0,2.726-1.731,2.726-4.824V1.231h5.965v19.958C215.277,27.044,212.809,30.432,206.734,30.432L206.734,30.432z
	 M232.642,29.953l-1.399-6.187h-7.033l-1.362,6.187h-6.407l7.181-28.795h8.211l7.181,28.795H232.642L232.642,29.953z M227.708,8.043
	l-2.356,10.568h4.713L227.708,8.043L227.708,8.043z M260.513,20.968v0.736c0,6.997-5.045,8.249-9.685,8.249h-9.722V1.231h9.427
	c4.493,0,9.243,1.215,9.243,7.954v0.736c0,2.614-1.142,4.234-2.799,5.192C259.041,16.108,260.513,17.875,260.513,20.968
	L260.513,20.968z M253.738,9.295c0-2.356-1.694-2.909-3.241-2.909h-3.424v6.297h3.424c1.547,0,3.241-0.552,3.241-2.909V9.295
	L253.738,9.295z M254.474,21.152c0-2.615-1.805-3.277-3.462-3.277h-3.939v6.923h3.939c1.657,0,3.462-0.699,3.462-3.314V21.152
	L254.474,21.152z"/>
<path d="M140.911,56.696l-0.992-4.382h-4.981l-0.966,4.382h-4.538l5.086-20.397h5.816l5.086,20.397H140.911L140.911,56.696z
	 M137.415,41.176l-1.669,7.486h3.339L137.415,41.176L137.415,41.176z M153.474,53.383h0.234c2.061,0,2.817-1.435,2.817-3.626h4.226
	v0.235c0,5.008-2.452,7.042-7.277,7.042c-5.295,0-7.643-2.947-7.643-9.99v-1.043c0-7.042,2.348-9.99,7.643-9.99
	c4.825,0,7.277,2.034,7.277,7.121v0.939h-4.226c0-2.791-0.6-4.408-2.817-4.408h-0.234c-2.713,0-3.365,2.269-3.365,6.338v1.043
	C150.109,51.114,150.761,53.383,153.474,53.383L153.474,53.383z M169.958,53.383h0.234c2.061,0,2.817-1.435,2.817-3.626h4.226v0.235
	c0,5.008-2.452,7.042-7.277,7.042c-5.295,0-7.643-2.947-7.643-9.99v-1.043c0-7.042,2.348-9.99,7.643-9.99
	c4.825,0,7.277,2.034,7.277,7.121v0.939h-4.226c0-2.791-0.601-4.408-2.817-4.408h-0.234c-2.713,0-3.365,2.269-3.365,6.338v1.043
	C166.593,51.114,167.246,53.383,169.958,53.383L169.958,53.383z M191.636,53.044v3.652h-12.442V36.351h12.442v3.651h-8.217v4.486
	h6.912v3.652h-6.912v4.904H191.636L191.636,53.044z M201.001,44.697c4.435,0.6,6.678,2.113,6.678,5.895v0.26
	c0,3.913-2.582,6.182-7.355,6.182c-4.8,0-7.329-2.139-7.329-7.042v-0.235h4.225c0,2.557,1.044,3.626,3,3.626h0.235
	c1.956,0,2.921-1.043,2.921-2.4v-0.131c0-1.46-0.757-2.269-3.704-2.66c-4.434-0.6-6.521-2.165-6.521-5.843v-0.287
	c0-3.678,2.53-6.051,7.173-6.051c5.008,0,7.199,2.217,7.199,6.99v0.548h-4.226c0-2.661-0.809-3.886-2.948-3.886h-0.234
	c-1.695,0-2.687,0.939-2.687,2.243v0.131C197.428,43.523,198.028,44.306,201.001,44.697L201.001,44.697z M217.147,44.697
	c4.435,0.6,6.678,2.113,6.678,5.895v0.26c0,3.913-2.582,6.182-7.355,6.182c-4.8,0-7.33-2.139-7.33-7.042v-0.235h4.226
	c0,2.557,1.044,3.626,3,3.626h0.234c1.956,0,2.922-1.043,2.922-2.4v-0.131c0-1.46-0.757-2.269-3.704-2.66
	c-4.435-0.6-6.521-2.165-6.521-5.843v-0.287c0-3.678,2.53-6.051,7.174-6.051c5.008,0,7.199,2.217,7.199,6.99v0.548h-4.226
	c0-2.661-0.809-3.886-2.948-3.886h-0.234c-1.695,0-2.687,0.939-2.687,2.243v0.131C213.574,43.523,214.173,44.306,217.147,44.697
	L217.147,44.697z M239.292,40.002v16.694h-4.226V40.002h-4.695v-3.651h13.642v3.651H239.292L239.292,40.002z M252.62,57.035
	c-5.269,0-7.747-2.947-7.747-9.99v-1.043c0-7.042,2.479-9.99,7.747-9.99c5.295,0,7.772,2.947,7.772,9.99v1.043
	C260.392,54.087,257.915,57.035,252.62,57.035L252.62,57.035z M256.088,46.001c0-4.069-0.729-6.338-3.339-6.338h-0.234
	c-2.608,0-3.365,2.269-3.365,6.338v1.043c0,4.069,0.757,6.339,3.365,6.339h0.234c2.609,0,3.339-2.27,3.339-6.339V46.001
	L256.088,46.001z"/>
<path d="M137.647,90.47c-6.031,0-8.101-3.227-8.101-8.873v-0.912h5.366c0,3.227,0.597,4.875,2.596,4.875
	c2.033,0,2.595-1.648,2.595-4.595V62.659h5.682v19.008C145.784,87.244,143.434,90.47,137.647,90.47L137.647,90.47z M158.612,90.47
	c-7.436,0-9.82-3.156-9.82-9.119V62.659h5.682v18.517c0,2.911,0.912,4.384,4.139,4.384c3.226,0,4.173-1.473,4.173-4.384V62.659
	h5.682v18.692C168.466,87.314,166.046,90.47,158.612,90.47L158.612,90.47z M181.529,73.881c5.962,0.807,8.979,2.841,8.979,7.926
	v0.352c0,5.26-3.472,8.312-9.89,8.312c-6.453,0-9.855-2.876-9.855-9.47v-0.315h5.682c0,3.437,1.403,4.875,4.033,4.875h0.315
	c2.631,0,3.928-1.402,3.928-3.227v-0.175c0-1.965-1.017-3.052-4.979-3.578c-5.962-0.807-8.768-2.91-8.768-7.855v-0.386
	c0-4.945,3.401-8.136,9.645-8.136c6.733,0,9.679,2.981,9.679,9.399v0.736h-5.682c0-3.577-1.087-5.226-3.963-5.226h-0.315
	c-2.279,0-3.612,1.263-3.612,3.017v0.175C176.724,72.303,177.531,73.356,181.529,73.881L181.529,73.881z M203.869,67.569v22.445
	h-5.682V67.569h-6.313v-4.91h18.341v4.91H203.869L203.869,67.569z M212.316,90.014V62.659h5.682v27.355H212.316L212.316,90.014z
	 M231.04,85.56h0.315c2.771,0,3.788-1.929,3.788-4.875h5.681V81c0,6.733-3.297,9.47-9.784,9.47c-7.119,0-10.275-3.964-10.275-13.433
	v-1.402c0-9.469,3.156-13.432,10.275-13.432c6.487,0,9.784,2.735,9.784,9.574v1.263h-5.681c0-3.752-0.808-5.927-3.788-5.927h-0.315
	c-3.647,0-4.524,3.051-4.524,8.522v1.402C226.515,82.508,227.392,85.56,231.04,85.56L231.04,85.56z M260.185,85.104v4.91h-16.728
	V62.659h16.728v4.91h-11.047v6.032h9.294v4.91h-9.294v6.593H260.185L260.185,85.104z"/>
<g>
	<path d="M137.874,112.496h-3.049v9.083h-5.255V96.277h8.304c4.12,0,8.791,1.07,8.791,7.785v0.648
		C146.665,111.458,141.994,112.496,137.874,112.496L137.874,112.496z M141.344,104.224c0-2.854-1.816-3.406-3.243-3.406h-3.276
		v7.137h3.276c1.427,0,3.243-0.552,3.243-3.406V104.224L141.344,104.224z M161.791,111.75l3.99,9.829h-5.677l-3.471-9.083h-2.692
		v9.083h-5.255V96.277h8.304c4.12,0,8.791,1.07,8.791,7.785v0.648C165.781,108.798,164.062,110.809,161.791,111.75L161.791,111.75z
		 M160.46,104.224c0-2.854-1.816-3.406-3.243-3.406h-3.276v7.137h3.276c1.427,0,3.243-0.552,3.243-3.406V104.224L160.46,104.224z
		 M177.338,122c-6.553,0-9.634-3.666-9.634-12.424v-1.298c0-8.758,3.081-12.424,9.634-12.424c6.585,0,9.667,3.666,9.667,12.424
		v1.298C187.005,118.334,183.923,122,177.338,122L177.338,122z M181.653,108.279c0-5.061-0.908-7.882-4.152-7.882h-0.292
		c-3.243,0-4.184,2.821-4.184,7.882v1.298c0,5.061,0.94,7.882,4.184,7.882h0.292c3.244,0,4.152-2.821,4.152-7.882V108.279
		L181.653,108.279z M196.157,122c-5.579,0-7.493-2.984-7.493-8.207v-0.844h4.963c0,2.984,0.551,4.509,2.4,4.509
		c1.881,0,2.4-1.524,2.4-4.249V96.277h5.255v17.582C203.682,119.016,201.508,122,196.157,122L196.157,122z M222.071,117.038v4.541
		h-15.473V96.277h15.473v4.541h-10.218v5.58h8.597v4.541h-8.597v6.099H222.071L222.071,117.038z M233.036,117.458h0.292
		c2.563,0,3.504-1.783,3.504-4.509h5.255v0.292c0,6.229-3.049,8.759-9.051,8.759c-6.585,0-9.504-3.666-9.504-12.424v-1.298
		c0-8.758,2.919-12.424,9.504-12.424c6.002,0,9.051,2.53,9.051,8.855v1.168h-5.255c0-3.471-0.746-5.481-3.504-5.481h-0.292
		c-3.373,0-4.185,2.821-4.185,7.882v1.298C228.851,114.637,229.663,117.458,233.036,117.458L233.036,117.458z M254.608,100.818
		v20.761h-5.255v-20.761h-5.839v-4.541h16.965v4.541H254.608L254.608,100.818z"/>
	<path fill="#003471" d="M130.926,129.276v1.467h2.226v1.193h-2.226v2.796h-1.381v-6.649h4.032v1.193H130.926L130.926,129.276z
		 M136.528,134.842c-1.807,0-2.387-0.767-2.387-2.216v-4.544h1.381v4.501c0,0.707,0.222,1.065,1.006,1.065s1.015-0.358,1.015-1.065
		v-4.501h1.381v4.544C138.923,134.076,138.335,134.842,136.528,134.842L136.528,134.842z M143.181,134.732l-2.148-4.126l0.043,1.338
		v2.788h-1.305v-6.649h1.458l2.14,4.126l-0.043-1.339v-2.787h1.313v6.649H143.181L143.181,134.732z M147.555,134.732h-2.037v-6.649
		h2.037c1.978,0,2.805,0.853,2.805,3.154v0.341C150.36,133.879,149.533,134.732,147.555,134.732L147.555,134.732z M148.954,131.237
		c0-1.33-0.324-1.961-1.476-1.961h-0.579v4.263h0.579c1.151,0,1.476-0.631,1.476-1.961V131.237L148.954,131.237z M155.161,133.539
		v1.193h-4.067v-6.649h4.067v1.193h-2.686v1.467h2.259v1.193h-2.259v1.603H155.161L155.161,133.539z M157.863,134.732h-2.038v-6.649
		h2.038c1.978,0,2.805,0.853,2.805,3.154v0.341C160.667,133.879,159.84,134.732,157.863,134.732L157.863,134.732z M159.26,131.237
		c0-1.33-0.323-1.961-1.475-1.961h-0.579v4.263h0.579c1.151,0,1.475-0.631,1.475-1.961V131.237L159.26,131.237z M167.676,132.652
		v0.171c0,1.619-1.168,1.909-2.242,1.909h-2.251v-6.649h2.183c1.04,0,2.14,0.281,2.14,1.841v0.171c0,0.605-0.265,0.98-0.648,1.202
		C167.334,131.526,167.676,131.936,167.676,132.652L167.676,132.652z M166.107,129.95c0-0.546-0.392-0.674-0.75-0.674h-0.793v1.458
		h0.793c0.358,0,0.75-0.128,0.75-0.674V129.95L166.107,129.95z M166.278,132.695c0-0.605-0.418-0.759-0.802-0.759h-0.912v1.603
		h0.912c0.384,0,0.802-0.162,0.802-0.768V132.695L166.278,132.695z M171.13,132.695v2.037h-1.381v-2.037l-1.91-4.612h1.509
		l1.091,2.906l1.083-2.906h1.509L171.13,132.695L171.13,132.695z M177.866,129.276v5.456h-1.381v-5.456h-1.535v-1.193h4.459v1.193
		H177.866L177.866,129.276z M183.296,134.732v-2.796h-1.936v2.796h-1.381v-6.649h1.381v2.66h1.936v-2.66h1.381v6.649H183.296
		L183.296,134.732z M189.623,133.539v1.193h-4.066v-6.649h4.066v1.193h-2.686v1.467h2.259v1.193h-2.259v1.603H189.623
		L189.623,133.539z M196.213,133.539v1.193h-4.066v-6.649h4.066v1.193h-2.686v1.467h2.259v1.193h-2.259v1.603H196.213
		L196.213,133.539z M199.245,134.842c-1.808,0-2.388-0.767-2.388-2.216v-4.544h1.382v4.501c0,0.707,0.222,1.065,1.006,1.065
		s1.014-0.358,1.014-1.065v-4.501h1.382v4.544C201.64,134.076,201.051,134.842,199.245,134.842L199.245,134.842z M205.931,132.149
		l1.049,2.583h-1.492l-0.912-2.387h-0.707v2.387h-1.382v-6.649h2.183c1.083,0,2.311,0.281,2.311,2.046v0.171
		C206.98,131.373,206.528,131.902,205.931,132.149L205.931,132.149z M205.582,130.171c0-0.75-0.477-0.896-0.853-0.896h-0.86v1.875
		h0.86c0.376,0,0.853-0.145,0.853-0.895V130.171L205.582,130.171z M210.098,134.842c-1.722,0-2.532-0.963-2.532-3.265v-0.341
		c0-2.302,0.811-3.266,2.532-3.266c1.73,0,2.54,0.964,2.54,3.266v0.341C212.638,133.879,211.829,134.842,210.098,134.842
		L210.098,134.842z M211.232,131.237c0-1.33-0.238-2.072-1.091-2.072h-0.077c-0.853,0-1.1,0.742-1.1,2.072v0.341
		c0,1.33,0.247,2.071,1.1,2.071h0.077c0.853,0,1.091-0.741,1.091-2.071V131.237L211.232,131.237z M215.556,132.345h-0.802v2.387
		h-1.381v-6.649h2.183c1.082,0,2.31,0.281,2.31,2.046v0.171C217.866,132.072,216.638,132.345,215.556,132.345L215.556,132.345z
		 M216.468,130.171c0-0.75-0.478-0.896-0.853-0.896h-0.861v1.875h0.861c0.375,0,0.853-0.145,0.853-0.895V130.171L216.468,130.171z
		 M222.544,133.539v1.193h-4.066v-6.649h4.066v1.193h-2.686v1.467h2.259v1.193h-2.259v1.603H222.544L222.544,133.539z
		 M226.79,134.732l-0.323-1.433h-1.629l-0.315,1.433h-1.483l1.663-6.667h1.9l1.662,6.667H226.79L226.79,134.732z M225.647,129.66
		l-0.545,2.446h1.091L225.647,129.66L225.647,129.66z M232.238,134.732l-2.148-4.126l0.043,1.338v2.788h-1.305v-6.649h1.458
		l2.14,4.126l-0.042-1.339v-2.787h1.313v6.649H232.238L232.238,134.732z M238.701,134.842c-1.807,0-2.387-0.767-2.387-2.216v-4.544
		h1.381v4.501c0,0.707,0.222,1.065,1.006,1.065s1.015-0.358,1.015-1.065v-4.501h1.381v4.544
		C241.096,134.076,240.508,134.842,238.701,134.842L238.701,134.842z M245.354,134.732l-2.148-4.126l0.043,1.338v2.788h-1.305
		v-6.649h1.458l2.14,4.126l-0.043-1.339v-2.787h1.313v6.649H245.354L245.354,134.732z M247.709,134.732v-6.649h1.382v6.649H247.709
		L247.709,134.732z M252.368,134.842c-1.723,0-2.532-0.963-2.532-3.265v-0.341c0-2.302,0.81-3.266,2.532-3.266
		c1.73,0,2.54,0.964,2.54,3.266v0.341C254.908,133.879,254.098,134.842,252.368,134.842L252.368,134.842z M253.501,131.237
		c0-1.33-0.239-2.072-1.091-2.072h-0.077c-0.853,0-1.1,0.742-1.1,2.072v0.341c0,1.33,0.247,2.071,1.1,2.071h0.077
		c0.852,0,1.091-0.741,1.091-2.071V131.237L253.501,131.237z"/>
	<polygon fill="#003471" points="260.51,128.083 259.198,128.083 259.198,130.87 259.241,132.208 257.1,128.083 255.643,128.083 
		255.643,134.732 256.947,134.732 256.947,131.944 256.905,130.606 259.052,134.732 260.51,134.732 260.51,128.083 	"/>
</g>
</svg>
