<?xml version="1.0" encoding="utf-8"?>
<!-- Generator: Adobe Illustrator 16.0.0, SVG Export Plug-In . SVG Version: 6.00 Build 0)  -->
<!DOCTYPE svg PUBLIC "-//W3C//DTD SVG 1.1//EN" "http://www.w3.org/Graphics/SVG/1.1/DTD/svg11.dtd">
<svg version="1.1" id="Layer_1" xmlns="http://www.w3.org/2000/svg" xmlns:xlink="http://www.w3.org/1999/xlink" x="0px" y="0px"
	 width="284px" height="200px" viewBox="0 0 284 200" enable-background="new 0 0 284 200" xml:space="preserve">
<path d="M166.98,81.867c-1.377,7.496,0.515,14.752-1.051,21.363c-1.07,4.52-1.934,12.896-4.554,16.461
	c-2.371,3.225-8.433,2.076-8.756,7.354c3.323,3.213,7.265,5.813,7.354,12.258c-0.351,0.352-0.701,0.7-1.051,1.051
	c-2.563,1.635-28.897,1.017-33.972,0.7c-0.761-1.192-1.05-1.641-1.05-3.853c-1.01-2.973,4.48-6.741,6.304-8.405
	c0.162-6.68-1.529-12.959-2.802-19.612c-0.831-4.342,0.165-8.654-0.7-12.958c-10.708-5.156-9.416-19.451-10.157-25.566
	c-0.117-4.903-0.233-9.807-0.35-14.709c-3.152-3.619-6.304-7.238-9.456-10.857c-2.926-1.602-4.57-0.001-5.954-3.152
	c-2.348-3.488-1.625-7.135,0.016-10.614l3.669,0.306c2.94,3.266,7.72,12.693,12.075,12.41c3.714-2.22,4.349-9.29,6.654-12.958
	c1.776-2.826,6.03-3.319,8.081-5.859l0.726,1.186c-0.251,0.157-0.501,0.313-0.752,0.47c0.327,1.207,0.384,1.908,1.051,2.452
	c0.361-0.021,0.753-0.214,1.167-0.526l4.74,7.745c0.445,1.488,0.871,3.104,1.111,4.337c-0.043,0-0.1,0-0.165,0.001
	c-0.299,0-0.6,0-0.899,0l0,0c-0.015-0.147-0.476-1.287-0.476-1.401c-0.934-1.518-1.742-3.036-2.676-4.553
	c-0.233,0.117-0.467,0.233-0.701,0.35c-1.209,1.069-1.274,1.085-1.877,2.802c-2.496,3.301-3.903,10.466-3.849,15.13
	c1.201,0.57,4.48,1.819,5.726,2.381c0-0.117,0-0.234,0-0.35c0.117-0.467,0.234-0.934,0.351-1.401
	c-1.189-2.016-1.772-8.743-0.351-10.856c0,0.117,0,0.233,0,0.35c0.351,4.553,0.701,9.106,1.051,13.659
	c1.105-0.586,2.188-1.371,2.802-2.452c0.117-0.701,0.233-1.401,0.35-2.102c0.463,0.706,0.284,0.598,1.051,1.051
	c0.452-0.617,0.659-0.653,1.051-1.401c1.089-2.543-2.222-7.452-2.452-11.207c0,0.003,0.001,0.007,0.001,0.009
	c0.19,0,0.551-0.006,0.831-0.009c0.051,0,0.167,0,0.218,0c0.426,2.45,1.307,6.926,3.501,7.705c0.391-2.384,1.602-1.996,2.451-3.502
	c1.094-3.737,2.188-7.475,3.282-11.212l2.134-2.133c-0.343,0.832-0.648,1.572-0.863,2.138c0,2.334,0,4.67,0,7.004
	c-0.582,2.452-1.166,4.903-1.75,7.354c2.031,0.169,1.709,0.52,2.802,1.401c0.267-2.637,1.514-9.433,4.202-9.806
	c0.117,0.7,0.234,1.401,0.352,2.102c-3.293,7.135-4.941,15.085-7.355,22.414c-0.59,1.793-0.381,4.456-1.051,5.604
	c-2.916,5-7.048,10.903-9.104,16.46c-0.583,3.619-1.167,7.238-1.751,10.857c-1.59,5.625-6.833,11.476-5.604,17.861
	c0.682-0.313,0.118-0.023,0.7-0.35c6.574-4.604,7.243-17.301,10.156-25.566c0.117,0,0.234,0,0.351,0
	c0.117,1.05,0.233,2.101,0.35,3.152c0.497-0.51,0.268-0.352,1.051-0.701c0,1.401,0,2.802,0,4.203
	c-4.379,7.018-1.946,19.607-10.507,22.414c0,0.467,0,0.934,0,1.4c3.374-0.748,2.955-0.611,3.853-1.051
	c1.401-1.399,2.802-2.802,4.203-4.203c3.319-7.037,1.827-23.263,9.105-27.316c0.351-0.117,0.701-0.233,1.051-0.35
	c3.8,10.527,2.814,13.865-1.751,23.465c-0.233,0-0.468,0-0.7,0c0-0.234,0-0.467,0-0.7c-1.072-2.587-0.205-8.029-1.751-9.457
	c0,0.117,0,0.234,0,0.35c-1.051,4.319-2.103,8.639-3.151,12.958c-2.784,5.455-7.202,6.109-12.259,8.406
	c1.452,0.741,3.89,0.758,6.304,0.7c4.525-4.226,10.171-6.622,14.009-11.558c1.639-2.109,2.744-7.551,4.902-9.105
	c0,0.699,0,1.4,0,2.102c-1.443,2.963,0.465,7.549-0.701,11.207c-0.867,2.725-3.074,4.176-3.502,8.055c0.233,0,0.467,0,0.7,0
	c1.984-1.664,5.861-2.073,7.005-4.553c-1.965-2.408-2.643-7.916-2.102-12.607c1.27-10.992,0.634-25.129,0.699-38.174
	c-0.115-0.117-0.232-0.234-0.35-0.351c-0.584,0.117-1.168,0.234-1.752,0.351c-0.152-1.309-0.277-1.294-0.699-2.102
	c-0.233,0-0.468,0-0.701,0c0,0.817,0,1.635,0,2.452c-0.185,0.378,2.451,19.443,2.451,24.165c0.002,3.255,0.436,7.64-1.399,9.106
	c0-1.285,0-2.568,0-3.854c0-4.319,0-8.64,0-12.958c-1.903-8.04-3.597-17.833-2.802-26.967c1.962-1.459,2.652-3.306,5.953-3.502
	c3.931,2.271,5.478,2.881,5.254,9.456c-0.117,0-0.233,0-0.352,0c-0.124-2.199-0.835-4.487-2.102-5.604c-0.116,0-0.233,0-0.35,0
	c-0.117,0.7-0.233,1.401-0.352,2.101c0.467,0.467,0.936,0.934,1.4,1.401c-1.641,3.186-2.459,6.899-2.451,11.908
	c0.232,0,0.467,0,0.701,0c0.115-0.233,0.232-0.467,0.35-0.7c0.584-1.518,1.168-3.036,1.751-4.553c0.117,0,0.233,0,0.351,0
	c0,0.351,0,0.701,0,1.051c-4.687,6.901-3.136,23.525-0.351,31.169c0.233-0.116,0.467-0.233,0.701-0.35
	c2.791-4.334,0.766-18.484,0.7-25.216c0.467-0.233,0.934-0.467,1.4-0.7c0.116,1.167,0.232,2.334,0.35,3.501
	c0.117-0.233,0.233-0.467,0.352-0.7c2.991-5.978-1.105-20.976-2.452-24.516c-1.71-4.495-1.292-10.884-3.151-15.76
	c-1.168-1.518-2.336-3.036-3.502-4.553c-0.604-1.808-1.205-3.615-1.808-5.422l1.11-1.111c1.479,2.721,3.76,4.821,4.898,7.583
	c0.584,3.269,1.168,6.538,1.752,9.807C166.57,55.043,169.574,67.758,166.98,81.867L166.98,81.867z M130.558,35.988
	c0.467-0.934,0.934-1.868,1.401-2.802c-1.653-0.851-2.078-1.604-4.553-1.751c-2.524,5.533-5.247,11.776-9.105,16.11
	c-2.869-2.617-12.06-6.519-12.258-10.857c0.62-0.863,0.083-0.596-0.7-1.051c-0.467-0.116-0.934-0.233-1.401-0.35
	c0.233,1.984,0.467,3.969,0.7,5.954c3.022,1.05,16.224,12.796,16.811,15.41c-0.117,0.117-0.233,0.233-0.35,0.35
	c-1.167-0.35-1.958-0.071-3.125-0.421c0,2.802,0,5.73,0,8.531c0.117,4.085,0.485,7.574,0.602,11.659
	c0.408,3.511,0.941,6.52,1.822,9.999c1.937-0.743,3.215-1.89,4.632-3.53c1.137-1.272-0.891-1.688-2.92-6.748
	c-0.98-3.463-1.589-8.829-1.578-10.197c-0.299-9.689,3.049-15.939,6.521-23.303C129.83,37.105,129.613,39.085,130.558,35.988
	L130.558,35.988z M126.336,56.102c0.095,0.094-1.227,7.172,0.47,10.385c-0.001,0.001-0.001,0.003,0.002,0.005
	c0-0.001-0.001-0.003-0.002-0.005c0.069-0.082,6.511,0.099,9.228-1.538c-0.094,0-1.983-3.022,1.89-7.178
	C137.924,57.771,132.161,61.58,126.336,56.102L126.336,56.102z M142.814,51.748c-1.507,4.308-3.771,7.505-4.902,12.958
	c0.583,0,1.167,0,1.751,0c0.65-0.915,0.766-0.596,1.051-2.101C141.819,60.683,143.695,53.766,142.814,51.748L142.814,51.748z
	 M143.516,72.762c0-0.234,0-0.467,0-0.701c1.616-2.436-0.008-3.471,1.051-7.004c1.422-4.743,3.832-9.061,3.854-15.76
	c-0.232,0-0.467,0-0.699,0C147.098,54.777,139.277,65.907,143.516,72.762L143.516,72.762z M138.262,83.268
	c1.581-3.16,2.295-6.904,3.152-10.857c-0.233,0-0.467,0-0.7,0c-1.284,3.501-2.568,7.004-3.853,10.506
	C137.328,83.034,137.795,83.151,138.262,83.268L138.262,83.268z M141.064,66.107c-0.234,0-0.467,0-0.701,0
	c-0.949,0.769-1.331,1.156-2.102,2.102c-0.571-1.091-0.08-0.666-1.401-1.05c-1.188,1.224-8.281,0.898-10.511,1.716
	c0.117,0.117,0.233,0.233,0.35,0.35c1.945,1.439,3.608,1.808,5.27,1.358c1.163-0.308,1.923-1.433,3.141-2.023c0,0.233,0,0.467,0,0.7
	c-1.492,1.197-8.868,5.317-9.142,8.197c0.117,0.117,0.233,0.233,0.35,0.35c0,0.117,0,0.234,0,0.351
	c6.454,0.187,7.399-5.044,8.792-5.746c0,0.234,0,0.467,0,0.701c-1.274,2.509-7.049,7.573-3.853,11.207
	c-0.817,0.117-1.635,0.233-2.452,0.351c-1.069,1.322-2.299,1.909-2.801,3.852c0.583,0.233,1.167,0.467,1.751,0.701
	c-0.117,0.233-0.233,0.467-0.351,0.7c-1.4,0.233-2.802,0.467-4.203,0.701c0,0.117,0,0.233,0,0.35c0.117,0,0.233,0,0.35,0
	c0.716,0.677,0.967,0.656,2.452,0.7c2.648-2.253,5.452-3.249,7.354-6.304c-0.117-0.117-0.233-0.233-0.351-0.35c-0.35,0-0.7,0-1.05,0
	c-0.117-0.117-0.233-0.233-0.351-0.35c2.688-2.316,3.688-9.373,5.253-12.608c0.117,0,0.233,0,0.35,0c0,0.583,0,1.167,0,1.751
	c-0.817,2.568-1.634,5.137-2.451,7.705c0.117,0,0.233,0,0.35,0c0.117-0.117,0.233-0.233,0.35-0.35
	C137.426,76.567,140.687,72.063,141.064,66.107L141.064,66.107z M130.908,104.281c0-0.117,0-0.233,0-0.352
	c3.219-3.125,4.744-8.974,5.253-14.708c-0.233,0-0.467,0-0.701,0c-1.441,2.408-4.781,2.764-5.604,5.604
	c2.293,3.175,0.293,5.19-0.351,8.756C129.974,103.814,130.441,104.048,130.908,104.281L130.908,104.281z M136.511,124.595
	c-0.117-0.116-0.233-0.233-0.35-0.351c-1.167,0-2.335,0-3.502,0c0.701,2.102,1.401,4.203,2.102,6.304
	c0.979-0.563,1.297-0.538,1.751-1.751C135.498,127.33,135.993,126.093,136.511,124.595L136.511,124.595z M143.516,125.995
	c-0.584-0.935-1.167-1.868-1.75-2.802c-0.934,0-1.868,0-2.802,0c0.296,3.283,0.334,6.123,0,8.756c0.233,0,0.467,0,0.7,0
	C141.728,129.802,143.604,130.616,143.516,125.995L143.516,125.995z M148.068,122.143c0.232,1.168,0.467,2.336,0.699,3.502
	c0.234,0,0.469,0,0.701,0c0-0.115,0-0.232,0-0.35c1.047-0.411,1.283-0.835,2.102-1.4c-0.994-1.047-1.489-1.229-1.752-3.152
	c0.233-0.35,0.469-0.7,0.701-1.051c-0.584,0-1.168,0-1.752,0C148.322,120.555,148.184,120.686,148.068,122.143L148.068,122.143z
	 M152.973,115.488c0.467-1.519,0.934-3.035,1.399-4.553c-0.149,0-0.688,0.938-0.763,1.008c-0.676,0.662-3.709,3.408-4.49,5.296
	c0.232,0,0.467,0,0.699,0C151.031,116.544,152.111,116.523,152.973,115.488L152.973,115.488z M145.268,136.854
	c-0.233,0.467-0.468,0.934-0.701,1.399c0.352,0,0.701,0,1.052,0c0.622-0.401,9.718,0.313,12.958,0.351
	c0.115-0.467,0.232-0.935,0.351-1.4c-0.7-0.116-1.401-0.233-2.102-0.35C153.456,138.434,149.203,137.285,145.268,136.854
	L145.268,136.854z M160.677,97.977c-0.034,6.501-2.265,12.61-0.7,18.562c0.351,0,0.7,0,1.051,0
	c-0.084-2.561,1.039-3.018,1.752-5.253C164.563,105.684,162.938,102.003,160.677,97.977L160.677,97.977z M136.673,44.464
	c0.767,1.25,2.41,5.234,1.613,6.745C138.053,49.107,136.906,46.565,136.673,44.464L136.673,44.464z"/>
<path d="M142.993,16.604c0,0,2.789-0.417,2.754-0.401c0.01,0.015,2.599,0.465,2.599,0.465l-0.063,0.737h-5.309L142.993,16.604
	L142.993,16.604z M160.089,31.366l-2.087,1.241c-1.287-2.798-2.508-6.103-3.066-8.751c-1.151-5.452,3.008-15.792-1.974-18.06
	c0.058,1.157-0.63,2.095-1.049,3.848c0.231,0,0.466,0,0.698,0c0.66-0.625,0.476-0.511,1.75-0.7c0,0.117,0,0.233,0,0.35
	c-0.579,0.611-0.598,0.929-1.399,1.399c-2.099,0-4.196,0-6.296,0c0,0.35,0,0.7,0,1.049c0.116,1.049,0.232,2.099,0.35,3.148
	c-2.209,1.107-3.011,1.599-3.498-1.749c0.232-0.816,0.467-1.632,0.699-2.449c-0.115-0.116-0.232-0.233-0.35-0.35
	c-1.166,0.233-2.332,0.466-3.498,0.7c-0.117,0-0.233,0-0.35,0c0,0.233,0,0.466,0,0.699c-0.478,2.496,1.445,3.833,0.972,6.738
	c-0.01,0.023,2.782,1.416,2.743,1.368c0.232,0,3.049-0.032,3.281-0.032c1.6-0.636,1.613-0.626,3.498-1.427
	c-0.57-2.265,0.789-3.953,1.049-6.646c0.467,0,0.934,0,1.398,0c0.117,0.233,0.232,0.467,0.35,0.7
	c-1.138,5.536-0.061,11.56-1.748,17.14c-0.742,2.451-1.694,5.315-2.521,8.355l-1.988,1.183c1.873-6.165,2.821-13.059,5.211-19.683
	c-0.234,0-0.468,0-0.699,0c-1.869,3.481-5.528,3.629-9.795,3.148c-0.674,2.886-2.049,8.06,2.797,8.045
	c0.633,0.461,0.916,0.371,1.399,1.049c-0.698,0-1.399,0-2.099,0c-2.715-1.611-4.96-1.966-8.046-1.399
	c-0.51,0.095-0.133,0.01-1.399,0.35c0.518,0.783,1.047,1.528,1.569,2.3l-3.204-3.489c1.273-0.921,2.255-2.603,4.083-3.009
	c0.513,0.356,1.282,0.721,1.749,1.049c0.546-4.128-0.646-9.716-1.049-12.592c-0.117,0-0.233,0-0.35,0
	c-0.7,2.681-0.728,2.677-1.868,5.568c-0.63,1.298-1.125,2.4-2.004,4.401c-0.664,1.509-1.672,1.697-2.663,2.294l-0.523-0.569
	c7.072-6.712,0.23-23.35,14.754-26.036c2.345-0.434,4.576,1.032,5.945,1.749c10.334,5.41,2.258,13.945,5.595,22.517
	C157.75,26.945,158.896,29.17,160.089,31.366L160.089,31.366z M149.814,3.697c-0.233,0-0.467,0-0.7,0
	c-1.13,0.576-5.947,1.399-5.947,1.399c-0.521-0.38-0.351-0.358-1.049-0.7c0,0.35,0,0.7,0,1.049c0.944,0.839,0.391,1.701,0,3.148
	c0.35,0,0.698,0,1.049,0c0.467-0.116,0.935-0.233,1.399-0.35c0,0.233,0,0.466,0,0.7c0.938,1.376,0.646,3.421,0.351,5.247
	c-0.006-0.009,0.899,0.58,0.927,0.57c0.055,0.006,0.736-0.649,0.729-0.707c-0.609-2.203-0.467-5.114,1.843-5.461
	c0.741,0.459,1.101,0.626,1.75,0.35c0.116-0.35,0.233-0.7,0.351-1.049c-0.729-0.482-0.947-0.593-1.399-1.399
	C150.037,5.12,149.247,4.843,149.814,3.697L149.814,3.697z"/>
<path d="M103.996,10.469c0,0,2.534,0.217,2.317,2.752c-0.217,2.535-2.752,2.317-2.752,2.317s-5.069-0.434-4.635-5.503
	c0.434-5.069,5.503-4.635,5.503-4.635s7.604,0.651,6.953,8.255c-0.651,7.604-6.155,12.239-6.588,17.308
	c-0.435,5.069-0.321,3.017-0.321,3.017l-2.535-0.217l0.32-3.017c0,0,0.953-4.661,2.977-7.635c3.574-5.253,3.778-9.602,3.778-9.602
	s0.268-5.141-4.802-5.575c0,0-2.535-0.217-2.752,2.317c-0.217,2.535,2.318,2.752,2.318,2.752S106.313,13.221,103.996,10.469
	L103.996,10.469z"/>
<path d="M35.674,168.652c0,0,35.385-33.387,106.157-33.387c70.772,0,106.157,33.387,106.157,33.387s-35.385-26.537-106.157-26.537
	C71.059,142.115,35.674,168.652,35.674,168.652L35.674,168.652z"/>
<path d="M20.5,189.829c-0.55-0.312-1.859-0.468-3.931-0.468l-0.337-1.646c1.422,0.1,3.238,0.149,5.446,0.149
	c2.208,0,4.048-0.05,5.521-0.149l0.299,1.646c-1.223,0-1.996,0.156-2.32,0.468c-0.325,0.313-0.486,1.005-0.486,2.078v2.957
	c0,1.922-0.075,2.882-0.225,2.882c-2.87,1.622-6.176,2.434-9.919,2.434c-4.393,0-7.842-1.217-10.35-3.649
	c-2.508-2.433-3.762-5.728-3.762-9.882s1.385-7.518,4.155-10.088c2.77-2.569,6.263-3.854,10.48-3.854
	c1.497,0,3.294,0.219,5.39,0.653c2.096,0.438,3.294,0.668,3.593,0.693c0.174,0.374,0.262,1.211,0.262,2.508
	c0,1.299-0.063,2.633-0.187,4.006l-1.048-0.112c-0.2-1.447-0.612-2.57-1.235-3.369c-0.625-0.799-1.567-1.435-2.827-1.909
	c-1.26-0.474-2.751-0.711-4.473-0.711c-3.195,0-5.69,1.092-7.486,3.275c-1.797,2.184-2.695,4.859-2.695,8.029
	c0,3.717,0.936,6.736,2.808,9.058s4.504,3.481,7.898,3.481c2.321,0,4.055-0.449,5.203-1.349c0.698-0.549,1.048-1.26,1.048-2.134
	v-2.919C21.323,190.834,21.048,190.143,20.5,189.829L20.5,189.829z M44.07,197.671c-1.635,1.673-3.675,2.509-6.12,2.509
	c-2.446,0-4.455-0.755-6.026-2.265c-1.572-1.51-2.358-3.494-2.358-5.952c0-2.457,0.804-4.535,2.414-6.232
	c1.61-1.695,3.644-2.545,6.102-2.545s4.479,0.768,6.064,2.303c1.584,1.533,2.376,3.531,2.376,5.988
	C46.522,193.936,45.704,196,44.07,197.671L44.07,197.671z M41.562,186.893c-1.036-1.424-2.352-2.135-3.949-2.135
	c-1.597,0-2.77,0.58-3.519,1.74c-0.749,1.16-1.123,2.72-1.123,4.679s0.48,3.669,1.441,5.128c0.96,1.461,2.258,2.189,3.893,2.189
	c1.634,0,2.845-0.561,3.631-1.684s1.179-2.701,1.179-4.735C43.116,190.042,42.598,188.313,41.562,186.893L41.562,186.893z
	 M63.212,197.671c-1.635,1.673-3.675,2.509-6.12,2.509c-2.446,0-4.455-0.755-6.026-2.265c-1.572-1.51-2.358-3.494-2.358-5.952
	c0-2.457,0.805-4.535,2.415-6.232c1.609-1.695,3.643-2.545,6.101-2.545s4.479,0.768,6.064,2.303
	c1.584,1.533,2.377,3.531,2.377,5.988C65.665,193.936,64.846,196,63.212,197.671L63.212,197.671z M60.704,186.893
	c-1.036-1.424-2.352-2.135-3.949-2.135c-1.597,0-2.77,0.58-3.519,1.74s-1.123,2.72-1.123,4.679s0.48,3.669,1.441,5.128
	c0.96,1.461,2.258,2.189,3.893,2.189c1.634,0,2.845-0.561,3.631-1.684c0.786-1.123,1.179-2.701,1.179-4.735
	C62.258,190.042,61.739,188.313,60.704,186.893L60.704,186.893z M83.608,199.468c-0.624,0.126-1.535,0.361-2.732,0.712
	c-0.325,0-0.486-0.101-0.486-0.3l-0.112-2.246c-0.449,0.624-1.186,1.204-2.208,1.74c-1.023,0.537-2.109,0.806-3.257,0.806
	c-2.046,0-3.718-0.705-5.016-2.115c-1.298-1.41-1.946-3.313-1.946-5.707c0-2.944,0.798-5.209,2.396-6.795
	c1.597-1.584,3.519-2.377,5.765-2.377c1.521,0,2.882,0.287,4.08,0.86v-7.522c0-1.473-0.674-2.209-2.021-2.209
	c-0.325,0-0.649,0.037-0.974,0.112l-0.336-1.122c2.57-0.75,4.516-1.423,5.839-2.021c0.449,0,0.674,0.236,0.674,0.711v23.433
	c0,1.622,0.548,2.433,1.647,2.433h0.449l0.636-0.036l0.262,1.196L83.608,199.468L83.608,199.468z M80.089,188.313
	c0-1.098-0.387-1.965-1.16-2.602c-0.774-0.636-1.884-0.954-3.332-0.954c-1.448,0-2.533,0.599-3.256,1.796
	c-0.724,1.198-1.085,2.803-1.085,4.812s0.468,3.631,1.404,4.866c0.936,1.233,2.139,1.853,3.612,1.853
	c0.599,0,1.154-0.094,1.666-0.28c0.511-0.188,0.855-0.343,1.03-0.468c0.224-0.149,0.599-0.412,1.123-0.786v-8.236H80.089z
	 M119.092,196.118c-2.645,2.708-5.945,4.062-9.9,4.062c-3.956,0-7.206-1.223-9.75-3.669c-2.546-2.444-3.818-5.639-3.818-9.582
	c0-3.942,1.354-7.299,4.061-10.069c2.708-2.77,6.032-4.153,9.976-4.153c3.943,0,7.162,1.241,9.657,3.724
	c2.495,2.483,3.743,5.708,3.743,9.678C123.06,190.073,121.737,193.41,119.092,196.118L119.092,196.118z M114.488,176.298
	c-1.597-1.222-3.543-1.834-5.839-1.834c-2.77,0-4.979,1.048-6.625,3.146c-1.647,2.096-2.471,4.679-2.471,7.748
	c0,3.442,0.836,6.414,2.508,8.908c0.824,1.248,1.94,2.233,3.35,2.957c1.41,0.725,3.014,1.086,4.81,1.086
	c2.77,0,4.947-1.018,6.532-3.052c1.584-2.032,2.377-4.598,2.377-7.69C119.13,182.398,117.582,178.645,114.488,176.298
	L114.488,176.298z M151.006,199.73l-4.043,0.11l-0.299-1.497c1.197-0.099,1.915-0.205,2.152-0.318
	c0.235-0.11,0.354-0.43,0.354-0.953v-7.037c0-1.598-0.313-2.715-0.937-3.35c-0.625-0.638-1.592-0.955-2.9-0.955
	s-2.552,0.412-3.725,1.234c0.125,0.624,0.188,1.223,0.188,1.797v8.311c0,0.449,0.112,0.755,0.337,0.917
	c0.224,0.163,0.773,0.28,1.646,0.354l0.338,1.497l-3.668-0.11l-4.042,0.11l-0.299-1.497c1.198-0.099,1.915-0.205,2.152-0.318
	c0.237-0.11,0.355-0.43,0.355-0.953v-7.037c0-1.598-0.305-2.721-0.917-3.369c-0.612-0.648-1.516-0.973-2.714-0.973
	c-1.198,0-2.446,0.35-3.743,1.048v10.331c0,0.449,0.112,0.755,0.337,0.917c0.225,0.163,0.773,0.28,1.647,0.354l0.337,1.497
	l-3.668-0.11l-4.043,0.11l-0.299-1.497c1.198-0.099,1.915-0.205,2.152-0.318c0.237-0.11,0.356-0.43,0.356-0.953v-8.76
	c0-0.897-0.163-1.521-0.487-1.871c-0.325-0.35-0.836-0.523-1.535-0.523l-0.561,0.037l-0.337-1.085
	c1.747-0.425,3.032-0.849,3.855-1.272c0.824-0.425,1.285-0.66,1.385-0.712c0.324,0,0.511,0.025,0.562,0.075
	c0.099,0.1,0.174,0.898,0.224,2.396c1.997-1.447,3.806-2.172,5.428-2.172c2.146,0,3.644,0.75,4.492,2.246
	c2.096-1.496,4.042-2.246,5.839-2.246c3.618,0,5.429,1.859,5.429,5.578v8.31c0,0.448,0.111,0.755,0.336,0.917
	c0.226,0.162,0.772,0.281,1.646,0.355l0.337,1.496L151.006,199.73L151.006,199.73z M170.092,190.635h-10.855v0.486
	c0,1.82,0.513,3.4,1.535,4.734c1.023,1.336,2.383,2.002,4.08,2.002c1.696,0,3.094-0.549,4.192-1.646
	c0.075-0.074,0.138-0.111,0.188-0.111c0.049,0,0.11,0.037,0.187,0.111l0.823,0.938c-1.871,2.021-4.036,3.031-6.494,3.031
	s-4.393-0.772-5.803-2.32c-1.409-1.547-2.113-3.612-2.113-6.194c0-2.583,0.798-4.644,2.396-6.177
	c1.597-1.535,3.418-2.303,5.465-2.303c2.045,0,3.654,0.617,4.828,1.854c1.172,1.236,1.76,2.964,1.76,5.186
	C170.279,190.497,170.216,190.635,170.092,190.635L170.092,190.635z M163.354,184.758c-1.123,0-2.033,0.393-2.731,1.18
	c-0.699,0.785-1.123,1.766-1.272,2.938h7.188C166.536,186.13,165.475,184.758,163.354,184.758L163.354,184.758z M187.729,199.73
	l-4.043,0.11l-0.299-1.497c1.197-0.099,1.915-0.205,2.152-0.318c0.236-0.11,0.355-0.43,0.355-0.953v-7.037
	c0-1.598-0.313-2.707-0.937-3.331c-0.624-0.624-1.61-0.937-2.957-0.937c-1.349,0-2.746,0.351-4.192,1.049v10.256
	c0,0.449,0.112,0.755,0.336,0.917c0.227,0.163,0.773,0.28,1.647,0.354l0.337,1.497l-3.668-0.11l-4.043,0.11l-0.3-1.497
	c1.198-0.099,1.915-0.205,2.153-0.318c0.235-0.11,0.354-0.43,0.354-0.953v-8.76c0-0.897-0.163-1.521-0.487-1.871
	c-0.324-0.35-0.836-0.523-1.533-0.523l-0.563,0.037l-0.337-1.085c1.746-0.425,3.032-0.849,3.854-1.272
	c0.823-0.425,1.285-0.66,1.385-0.711c0.324,0,0.513,0.024,0.563,0.074c0.1,0.1,0.174,0.898,0.225,2.396
	c1.197-0.725,2.252-1.268,3.164-1.629c0.91-0.361,1.901-0.543,2.976-0.543c3.468,0,5.203,1.859,5.203,5.578v8.31
	c0,0.448,0.112,0.755,0.337,0.917s0.773,0.281,1.646,0.355l0.336,1.496L187.729,199.73L187.729,199.73z M220.406,177.928
	l-1.197-0.113c-0.3-1.771-0.85-3.013-1.646-3.724c-0.799-0.711-2.01-1.065-3.631-1.065l-3.855,0.037
	c-1.747,0.073-2.62,0.273-2.62,0.599v11.135c0,0.25,0.125,0.374,0.374,0.374h5.578c0.599,0,1.004-0.279,1.216-0.842
	s0.317-1.604,0.317-3.126l1.235-0.187l-0.075,4.979l0.075,4.604l-1.235,0.188c0-1.474-0.088-2.421-0.262-2.845
	c-0.175-0.426-0.599-0.637-1.271-0.637h-5.578c-0.249,0-0.374,0.111-0.374,0.336v8.76c0,0.748,0.256,1.234,0.769,1.459
	c0.51,0.226,1.59,0.338,3.236,0.338l0.375,1.609l-5.166-0.074c-0.324,0-2.133,0.037-5.427,0.11l-0.3-1.646
	c1.396-0.149,2.252-0.293,2.563-0.432c0.312-0.137,0.492-0.479,0.542-1.029v-22.363c0-0.523-0.175-0.873-0.523-1.048
	c-0.351-0.175-1.16-0.312-2.434-0.411l-0.337-1.646l4.679,0.111h5.652l9.246,0.037c0.174,0.374,0.262,1.211,0.262,2.508
	C220.594,175.22,220.531,176.555,220.406,177.928L220.406,177.928z M225.729,199.73l-4.043,0.11l-0.3-1.497
	c1.198-0.099,1.915-0.205,2.152-0.318c0.237-0.11,0.356-0.43,0.356-0.953v-9.508c0-1.248-0.625-1.871-1.873-1.871
	c-0.299,0-0.537,0.013-0.711,0.037l-0.336-1.086c1.621-0.398,2.656-0.687,3.105-0.86l2.283-0.898c0.324,0,0.523,0.032,0.6,0.095
	c0.074,0.063,0.112,0.23,0.112,0.504v13.589c0,0.448,0.11,0.755,0.336,0.917s0.772,0.281,1.647,0.355l0.336,1.496L225.729,199.73
	L225.729,199.73z M225.505,178.469c-0.624,0-1.142-0.193-1.554-0.58c-0.412-0.386-0.617-0.892-0.617-1.516
	c0-0.623,0.211-1.16,0.637-1.609c0.424-0.449,0.954-0.674,1.59-0.674c0.638,0,1.16,0.188,1.572,0.563
	c0.412,0.373,0.618,0.879,0.618,1.516s-0.22,1.18-0.655,1.629C226.658,178.244,226.128,178.469,225.505,178.469L225.505,178.469z
	 M235.641,199.73l-4.041,0.11l-0.301-1.497c1.198-0.099,1.915-0.205,2.152-0.318c0.236-0.11,0.355-0.43,0.355-0.953v-20.588
	c0-0.822-0.145-1.385-0.432-1.685s-0.674-0.448-1.16-0.448s-0.816,0.013-0.992,0.037l-0.337-1.123
	c1.923-0.574,3.73-1.234,5.429-1.983c0.449,0,0.674,0.237,0.674,0.711v25.079c0,0.449,0.125,0.755,0.373,0.917
	c0.25,0.163,0.813,0.28,1.686,0.354l0.337,1.497L235.641,199.73L235.641,199.73z M266.705,199.73l-4.043,0.11l-0.299-1.497
	c1.197-0.099,1.914-0.205,2.15-0.318c0.237-0.11,0.356-0.43,0.356-0.953v-7.037c0-1.598-0.313-2.715-0.937-3.35
	c-0.625-0.638-1.592-0.955-2.9-0.955c-1.311,0-2.553,0.412-3.725,1.234c0.123,0.624,0.188,1.223,0.188,1.797v8.311
	c0,0.449,0.111,0.755,0.337,0.917c0.226,0.163,0.772,0.28,1.646,0.354l0.338,1.497l-3.668-0.11l-4.043,0.11l-0.301-1.497
	c1.198-0.099,1.915-0.205,2.153-0.318c0.235-0.11,0.354-0.43,0.354-0.953v-7.037c0-1.598-0.307-2.721-0.918-3.369
	c-0.61-0.648-1.516-0.973-2.713-0.973s-2.445,0.35-3.742,1.048v10.331c0,0.449,0.111,0.755,0.336,0.917
	c0.226,0.163,0.773,0.28,1.646,0.354l0.337,1.497l-3.668-0.11l-4.043,0.11l-0.3-1.497c1.197-0.099,1.915-0.205,2.152-0.318
	c0.236-0.11,0.355-0.43,0.355-0.953v-8.76c0-0.897-0.163-1.521-0.486-1.871c-0.324-0.35-0.836-0.523-1.535-0.523l-0.562,0.037
	l-0.337-1.085c1.746-0.425,3.032-0.849,3.855-1.272c0.822-0.425,1.285-0.66,1.385-0.712c0.324,0,0.512,0.025,0.562,0.075
	c0.101,0.1,0.175,0.898,0.226,2.396c1.996-1.447,3.805-2.172,5.428-2.172c2.146,0,3.643,0.75,4.49,2.246
	c2.098-1.496,4.044-2.246,5.841-2.246c3.616,0,5.427,1.859,5.427,5.578v8.31c0,0.448,0.112,0.755,0.338,0.917
	c0.225,0.162,0.772,0.281,1.646,0.355l0.337,1.496L266.705,199.73L266.705,199.73z M281.531,188.052
	c-0.125-0.997-0.512-1.803-1.16-2.415c-0.648-0.609-1.441-0.917-2.377-0.917c-0.938,0-1.674,0.2-2.209,0.601
	c-0.537,0.398-0.805,0.923-0.805,1.572c0,0.647,0.306,1.196,0.916,1.646c0.611,0.448,1.354,0.817,2.229,1.104
	c0.873,0.287,1.753,0.599,2.639,0.936c0.887,0.337,1.635,0.893,2.246,1.666s0.917,1.82,0.917,3.145c0,1.322-0.543,2.451-1.628,3.387
	c-1.086,0.937-2.479,1.404-4.174,1.404c-1.697,0-3.557-0.375-5.577-1.123c-0.125-0.074-0.237-0.648-0.337-1.722
	c-0.102-1.073-0.15-1.946-0.15-2.621v-0.187l1.76-0.149c0.398,2.745,1.785,4.116,4.156,4.116c2.045,0,3.067-0.823,3.067-2.471
	c0-0.697-0.306-1.277-0.917-1.74c-0.611-0.461-1.347-0.848-2.208-1.159c-0.86-0.313-1.729-0.656-2.603-1.03
	c-0.873-0.373-1.615-0.936-2.227-1.684c-0.611-0.749-0.918-1.754-0.918-3.014s0.557-2.283,1.666-3.069
	c1.11-0.786,2.439-1.179,3.986-1.179s3.23,0.287,5.054,0.859c0.249,0.149,0.374,0.699,0.374,1.647s-0.075,1.797-0.225,2.545
	L281.531,188.052L281.531,188.052z"/>
</svg>
