<svg xmlns="http://www.w3.org/2000/svg" width="284" height="200" viewBox="0 0 284 200"><path d="M166.98 81.867c-1.377 7.496.515 14.752-1.051 21.363-1.07 4.52-1.934 12.896-4.554 16.461-2.371 3.225-8.433 2.076-8.756 7.354 3.323 3.213 7.265 5.813 7.354 12.258l-1.051 1.051c-2.563 1.635-28.897 1.017-33.972.7-.761-1.192-1.05-1.641-1.05-3.853-1.01-2.973 4.48-6.741 6.304-8.405.162-6.68-1.529-12.959-2.802-19.612-.831-4.342.165-8.654-.7-12.958-10.708-5.156-9.416-19.451-10.157-25.566l-.35-14.709-9.456-10.857c-2.926-1.602-4.57-.001-5.954-3.152-2.348-3.488-1.625-7.135.016-10.614l3.669.306c2.94 3.266 7.72 12.693 12.075 12.41 3.714-2.22 4.349-9.29 6.654-12.958 1.776-2.826 6.03-3.319 8.081-5.859l.726 1.186-.752.47c.327 1.207.384 1.908 1.051 2.452.361-.021.753-.214 1.167-.526l4.74 7.745c.445 1.488.871 3.104 1.111 4.337l-.165.001h-.899c-.015-.147-.476-1.287-.476-1.401-.934-1.518-1.742-3.036-2.676-4.553l-.701.35c-1.209 1.069-1.274 1.085-1.877 2.802-2.496 3.301-3.903 10.466-3.849 15.13 1.201.57 4.48 1.819 5.726 2.381v-.35l.351-1.401c-1.189-2.016-1.772-8.743-.351-10.856v.35l1.051 13.659c1.105-.586 2.188-1.371 2.802-2.452l.35-2.102c.463.706.284.598 1.051 1.051.452-.617.659-.653 1.051-1.401 1.089-2.543-2.222-7.452-2.452-11.207l.001.009c.19 0 .551-.006.831-.009h.218c.426 2.45 1.307 6.926 3.501 7.705.391-2.384 1.602-1.996 2.451-3.502l3.282-11.212 2.134-2.133a91.78 91.78 0 0 0-.863 2.138v7.004c-.582 2.452-1.166 4.903-1.75 7.354 2.031.169 1.709.52 2.802 1.401.267-2.637 1.514-9.433 4.202-9.806l.352 2.102c-3.293 7.135-4.941 15.085-7.355 22.414-.59 1.793-.381 4.456-1.051 5.604-2.916 5-7.048 10.903-9.104 16.46l-1.751 10.857c-1.59 5.625-6.833 11.476-5.604 17.861.682-.313.118-.023.7-.35 6.574-4.604 7.243-17.301 10.156-25.566h.351l.35 3.152c.497-.51.268-.352 1.051-.701v4.203c-4.379 7.018-1.946 19.607-10.507 22.414v1.4c3.374-.748 2.955-.611 3.853-1.051 1.401-1.399 2.802-2.802 4.203-4.203 3.319-7.037 1.827-23.263 9.105-27.316l1.051-.35c3.8 10.527 2.814 13.865-1.751 23.465h-.7v-.7c-1.072-2.587-.205-8.029-1.751-9.457v.35c-1.051 4.319-2.103 8.639-3.151 12.958-2.784 5.455-7.202 6.109-12.259 8.406 1.452.741 3.89.758 6.304.7 4.525-4.226 10.171-6.622 14.009-11.558 1.639-2.109 2.744-7.551 4.902-9.105v2.102c-1.443 2.963.465 7.549-.701 11.207-.867 2.725-3.074 4.176-3.502 8.055h.7c1.984-1.664 5.861-2.073 7.005-4.553-1.965-2.408-2.643-7.916-2.102-12.607 1.27-10.992.634-25.129.699-38.174a38.553 38.553 0 0 0-.35-.351l-1.752.351c-.152-1.309-.277-1.294-.699-2.102h-.701v2.452c-.185.378 2.451 19.443 2.451 24.165.002 3.255.436 7.64-1.399 9.106v-3.854-12.958c-1.903-8.04-3.597-17.833-2.802-26.967 1.962-1.459 2.652-3.306 5.953-3.502 3.931 2.271 5.478 2.881 5.254 9.456h-.352c-.124-2.199-.835-4.487-2.102-5.604h-.35c-.117.7-.233 1.401-.352 2.101.467.467.936.934 1.4 1.401-1.641 3.186-2.459 6.899-2.451 11.908h.701c.115-.233.232-.467.35-.7l1.751-4.553h.351v1.051c-4.687 6.901-3.136 23.525-.351 31.169l.701-.35c2.791-4.334.766-18.484.7-25.216l1.4-.7c.116 1.167.232 2.334.35 3.501.117-.233.233-.467.352-.7 2.991-5.978-1.105-20.976-2.452-24.516-1.71-4.495-1.292-10.884-3.151-15.76l-3.502-4.553c-.604-1.808-1.205-3.615-1.808-5.422l1.11-1.111c1.479 2.721 3.76 4.821 4.898 7.583l1.752 9.807c3.1 12.051 6.104 24.766 3.51 38.875zm-36.422-45.879l1.401-2.802c-1.653-.851-2.078-1.604-4.553-1.751-2.524 5.533-5.247 11.776-9.105 16.11-2.869-2.617-12.06-6.519-12.258-10.857.62-.863.083-.596-.7-1.051l-1.401-.35.7 5.954c3.022 1.05 16.224 12.796 16.811 15.41l-.35.35c-1.167-.35-1.958-.071-3.125-.421v8.531c.117 4.085.485 7.574.602 11.659.408 3.511.941 6.52 1.822 9.999 1.937-.743 3.215-1.89 4.632-3.53 1.137-1.272-.891-1.688-2.92-6.748-.98-3.463-1.589-8.829-1.578-10.197-.299-9.689 3.049-15.939 6.521-23.303 2.773-5.886 2.556-3.906 3.501-7.003zm-4.222 20.114c.095.094-1.227 7.172.47 10.385-.001.001-.001.003.002.005a.017.017 0 0 0-.002-.005c.069-.082 6.511.099 9.228-1.538-.094 0-1.983-3.022 1.89-7.178 0 0-5.763 3.809-11.588-1.669zm16.478-4.354c-1.507 4.308-3.771 7.505-4.902 12.958h1.751c.65-.915.766-.596 1.051-2.101 1.105-1.922 2.981-8.839 2.1-10.857zm.702 21.014v-.701c1.616-2.436-.008-3.471 1.051-7.004 1.422-4.743 3.832-9.061 3.854-15.76h-.699c-.624 5.48-8.445 16.61-4.206 23.465zm-5.254 10.506c1.581-3.16 2.295-6.904 3.152-10.857h-.7l-3.853 10.506 1.401.351zm2.802-17.161h-.701c-.949.769-1.331 1.156-2.102 2.102-.571-1.091-.08-.666-1.401-1.05-1.188 1.224-8.281.898-10.511 1.716l.35.35c1.945 1.439 3.608 1.808 5.27 1.358 1.163-.308 1.923-1.433 3.141-2.023v.7c-1.492 1.197-8.868 5.317-9.142 8.197l.35.35v.351c6.454.187 7.399-5.044 8.792-5.746v.701c-1.274 2.509-7.049 7.573-3.853 11.207-.817.117-1.635.233-2.452.351-1.069 1.322-2.299 1.909-2.801 3.852l1.751.701c-.117.233-.233.467-.351.7l-4.203.701v.35h.35c.716.677.967.656 2.452.7 2.648-2.253 5.452-3.249 7.354-6.304l-.351-.35h-1.05l-.351-.35c2.688-2.316 3.688-9.373 5.253-12.608h.35v1.751l-2.451 7.705h.35l.35-.35c1.969-4.602 5.23-9.106 5.607-15.062zm-10.156 38.174v-.352c3.219-3.125 4.744-8.974 5.253-14.708h-.701c-1.441 2.408-4.781 2.764-5.604 5.604 2.293 3.175.293 5.19-.351 8.756l1.403.7zm5.603 20.314l-.35-.351h-3.502l2.102 6.304c.979-.563 1.297-.538 1.751-1.751-1.014-1.467-.519-2.704-.001-4.202zm7.005 1.4l-1.75-2.802h-2.802c.296 3.283.334 6.123 0 8.756h.7c2.064-2.147 3.94-1.333 3.852-5.954zm4.552-3.852c.232 1.168.467 2.336.699 3.502h.701v-.35c1.047-.411 1.283-.835 2.102-1.4-.994-1.047-1.489-1.229-1.752-3.152.233-.35.469-.7.701-1.051h-1.752c-.445.863-.583.994-.699 2.451zm4.905-6.655c.467-1.519.934-3.035 1.399-4.553-.149 0-.688.938-.763 1.008-.676.662-3.709 3.408-4.49 5.296h.699c1.213-.695 2.293-.716 3.155-1.751zm-7.705 21.366l-.701 1.399h1.052c.622-.401 9.718.313 12.958.351.115-.467.232-.935.351-1.4l-2.102-.35c-3.37 1.58-7.623.431-11.558 0zm15.409-38.877c-.034 6.501-2.265 12.61-.7 18.562h1.051c-.084-2.561 1.039-3.018 1.752-5.253 1.783-5.602.158-9.283-2.103-13.309zm-24.004-53.513c.767 1.25 2.41 5.234 1.613 6.745-.233-2.102-1.38-4.644-1.613-6.745z"/><path d="M142.993 16.604s2.789-.417 2.754-.401c.01.015 2.599.465 2.599.465l-.063.737h-5.309l.019-.801zm17.096 14.762l-2.087 1.241c-1.287-2.798-2.508-6.103-3.066-8.751-1.151-5.452 3.008-15.792-1.974-18.06.058 1.157-.63 2.095-1.049 3.848h.698c.66-.625.476-.511 1.75-.7v.35c-.579.611-.598.929-1.399 1.399h-6.296v1.049c.116 1.049.232 2.099.35 3.148-2.209 1.107-3.011 1.599-3.498-1.749.232-.816.467-1.632.699-2.449a57.746 57.746 0 0 0-.35-.35l-3.498.7h-.35v.699c-.478 2.496 1.445 3.833.972 6.738-.01.023 2.782 1.416 2.743 1.368.232 0 3.049-.032 3.281-.032 1.6-.636 1.613-.626 3.498-1.427-.57-2.265.789-3.953 1.049-6.646h1.398c.117.233.232.467.35.7-1.138 5.536-.061 11.56-1.748 17.14-.742 2.451-1.694 5.315-2.521 8.355l-1.988 1.183c1.873-6.165 2.821-13.059 5.211-19.683h-.699c-1.869 3.481-5.528 3.629-9.795 3.148-.674 2.886-2.049 8.06 2.797 8.045.633.461.916.371 1.399 1.049h-2.099c-2.715-1.611-4.96-1.966-8.046-1.399-.51.095-.133.01-1.399.35.518.783 1.047 1.528 1.569 2.3l-3.204-3.489c1.273-.921 2.255-2.603 4.083-3.009.513.356 1.282.721 1.749 1.049.546-4.128-.646-9.716-1.049-12.592h-.35c-.7 2.681-.728 2.677-1.868 5.568-.63 1.298-1.125 2.4-2.004 4.401-.664 1.509-1.672 1.697-2.663 2.294l-.523-.569c7.072-6.712.23-23.35 14.754-26.036 2.345-.434 4.576 1.032 5.945 1.749 10.334 5.41 2.258 13.945 5.595 22.517 1.294 2.132 2.44 4.357 3.633 6.553zM149.814 3.697h-.7c-1.13.576-5.947 1.399-5.947 1.399-.521-.38-.351-.358-1.049-.7v1.049c.944.839.391 1.701 0 3.148h1.049l1.399-.35v.7c.938 1.376.646 3.421.351 5.247-.006-.009.899.58.927.57.055.006.736-.649.729-.707-.609-2.203-.467-5.114 1.843-5.461.741.459 1.101.626 1.75.35.116-.35.233-.7.351-1.049-.729-.482-.947-.593-1.399-1.399.919-1.374.129-1.651.696-2.797zM103.996 10.469s2.534.217 2.317 2.752c-.217 2.535-2.752 2.317-2.752 2.317s-5.069-.434-4.635-5.503c.434-5.069 5.503-4.635 5.503-4.635s7.604.651 6.953 8.255c-.651 7.604-6.155 12.239-6.588 17.308-.435 5.069-.321 3.017-.321 3.017l-2.535-.217.32-3.017s.953-4.661 2.977-7.635c3.574-5.253 3.778-9.602 3.778-9.602s.268-5.141-4.802-5.575c0 0-2.535-.217-2.752 2.317-.217 2.535 2.318 2.752 2.318 2.752s2.536.218.219-2.534zM35.674 168.652s35.385-33.387 106.157-33.387c70.772 0 106.157 33.387 106.157 33.387s-35.385-26.537-106.157-26.537c-70.772 0-106.157 26.537-106.157 26.537zM20.5 189.829c-.55-.312-1.859-.468-3.931-.468l-.337-1.646c1.422.1 3.238.149 5.446.149 2.208 0 4.048-.05 5.521-.149l.299 1.646c-1.223 0-1.996.156-2.32.468-.325.313-.486 1.005-.486 2.078v2.957c0 1.922-.075 2.882-.225 2.882-2.87 1.622-6.176 2.434-9.919 2.434-4.393 0-7.842-1.217-10.35-3.649-2.508-2.433-3.762-5.728-3.762-9.882s1.385-7.518 4.155-10.088c2.77-2.569 6.263-3.854 10.48-3.854 1.497 0 3.294.219 5.39.653 2.096.438 3.294.668 3.593.693.174.374.262 1.211.262 2.508 0 1.299-.063 2.633-.187 4.006l-1.048-.112c-.2-1.447-.612-2.57-1.235-3.369-.625-.799-1.567-1.435-2.827-1.909s-2.751-.711-4.473-.711c-3.195 0-5.69 1.092-7.486 3.275-1.797 2.184-2.695 4.859-2.695 8.029 0 3.717.936 6.736 2.808 9.058s4.504 3.481 7.898 3.481c2.321 0 4.055-.449 5.203-1.349.698-.549 1.048-1.26 1.048-2.134v-2.919c.001-1.073-.274-1.764-.822-2.078zm23.57 7.842c-1.635 1.673-3.675 2.509-6.12 2.509-2.446 0-4.455-.755-6.026-2.265-1.572-1.51-2.358-3.494-2.358-5.952 0-2.457.804-4.535 2.414-6.232 1.61-1.695 3.644-2.545 6.102-2.545s4.479.768 6.064 2.303c1.584 1.533 2.376 3.531 2.376 5.988 0 2.459-.818 4.523-2.452 6.194zm-2.508-10.778c-1.036-1.424-2.352-2.135-3.949-2.135s-2.77.58-3.519 1.74c-.749 1.16-1.123 2.72-1.123 4.679s.48 3.669 1.441 5.128c.96 1.461 2.258 2.189 3.893 2.189 1.634 0 2.845-.561 3.631-1.684s1.179-2.701 1.179-4.735c.001-2.033-.517-3.762-1.553-5.182zm21.65 10.778c-1.635 1.673-3.675 2.509-6.12 2.509-2.446 0-4.455-.755-6.026-2.265-1.572-1.51-2.358-3.494-2.358-5.952 0-2.457.805-4.535 2.415-6.232 1.609-1.695 3.643-2.545 6.101-2.545s4.479.768 6.064 2.303c1.584 1.533 2.377 3.531 2.377 5.988 0 2.459-.819 4.523-2.453 6.194zm-2.508-10.778c-1.036-1.424-2.352-2.135-3.949-2.135s-2.77.58-3.519 1.74-1.123 2.72-1.123 4.679.48 3.669 1.441 5.128c.96 1.461 2.258 2.189 3.893 2.189 1.634 0 2.845-.561 3.631-1.684.786-1.123 1.179-2.701 1.179-4.735.001-2.033-.518-3.762-1.553-5.182zm22.904 12.575c-.624.126-1.535.361-2.732.712-.325 0-.486-.101-.486-.3l-.112-2.246c-.449.624-1.186 1.204-2.208 1.74a6.91 6.91 0 0 1-3.257.806c-2.046 0-3.718-.705-5.016-2.115-1.298-1.41-1.946-3.313-1.946-5.707 0-2.944.798-5.209 2.396-6.795 1.597-1.584 3.519-2.377 5.765-2.377 1.521 0 2.882.287 4.08.86v-7.522c0-1.473-.674-2.209-2.021-2.209-.325 0-.649.037-.974.112l-.336-1.122c2.57-.75 4.516-1.423 5.839-2.021.449 0 .674.236.674.711v23.433c0 1.622.548 2.433 1.647 2.433h.449l.636-.036.262 1.196-2.66.447zm-3.519-11.155c0-1.098-.387-1.965-1.16-2.602-.774-.636-1.884-.954-3.332-.954s-2.533.599-3.256 1.796c-.724 1.198-1.085 2.803-1.085 4.812s.468 3.631 1.404 4.866c.936 1.233 2.139 1.853 3.612 1.853.599 0 1.154-.094 1.666-.28.511-.188.855-.343 1.03-.468.224-.149.599-.412 1.123-.786v-8.236h-.002zm39.003 7.805c-2.645 2.708-5.945 4.062-9.9 4.062-3.956 0-7.206-1.223-9.75-3.669-2.546-2.444-3.818-5.639-3.818-9.582 0-3.942 1.354-7.299 4.061-10.069 2.708-2.77 6.032-4.153 9.976-4.153 3.943 0 7.162 1.241 9.657 3.724s3.743 5.708 3.743 9.678c-.001 3.964-1.324 7.301-3.969 10.009zm-4.604-19.82c-1.597-1.222-3.543-1.834-5.839-1.834-2.77 0-4.979 1.048-6.625 3.146-1.647 2.096-2.471 4.679-2.471 7.748 0 3.442.836 6.414 2.508 8.908.824 1.248 1.94 2.233 3.35 2.957 1.41.725 3.014 1.086 4.81 1.086 2.77 0 4.947-1.018 6.532-3.052 1.584-2.032 2.377-4.598 2.377-7.69 0-5.169-1.548-8.922-4.642-11.269zm36.518 23.432l-4.043.11-.299-1.497c1.197-.099 1.915-.205 2.152-.318.235-.11.354-.43.354-.953v-7.037c0-1.598-.313-2.715-.937-3.35-.625-.638-1.592-.955-2.9-.955s-2.552.412-3.725 1.234c.125.624.188 1.223.188 1.797v8.311c0 .449.112.755.337.917.224.163.773.28 1.646.354l.338 1.497-3.668-.11-4.042.11-.299-1.497c1.198-.099 1.915-.205 2.152-.318.237-.11.355-.43.355-.953v-7.037c0-1.598-.305-2.721-.917-3.369-.612-.648-1.516-.973-2.714-.973s-2.446.35-3.743 1.048v10.331c0 .449.112.755.337.917.225.163.773.28 1.647.354l.337 1.497-3.668-.11-4.043.11-.299-1.497c1.198-.099 1.915-.205 2.152-.318.237-.11.356-.43.356-.953v-8.76c0-.897-.163-1.521-.487-1.871-.325-.35-.836-.523-1.535-.523l-.561.037-.337-1.085c1.747-.425 3.032-.849 3.855-1.272.824-.425 1.285-.66 1.385-.712.324 0 .511.025.562.075.099.1.174.898.224 2.396 1.997-1.447 3.806-2.172 5.428-2.172 2.146 0 3.644.75 4.492 2.246 2.096-1.496 4.042-2.246 5.839-2.246 3.618 0 5.429 1.859 5.429 5.578v8.31c0 .448.111.755.336.917.226.162.772.281 1.646.355l.337 1.496-3.667-.111zm19.086-9.095h-10.855v.486c0 1.82.513 3.4 1.535 4.734 1.023 1.336 2.383 2.002 4.08 2.002 1.696 0 3.094-.549 4.192-1.646.075-.074.138-.111.188-.111.049 0 .11.037.187.111l.823.938c-1.871 2.021-4.036 3.031-6.494 3.031s-4.393-.772-5.803-2.32c-1.409-1.547-2.113-3.612-2.113-6.194 0-2.583.798-4.644 2.396-6.177 1.597-1.535 3.418-2.303 5.465-2.303 2.045 0 3.654.617 4.828 1.854 1.172 1.236 1.76 2.964 1.76 5.186-.002.271-.065.409-.189.409zm-6.738-5.877c-1.123 0-2.033.393-2.731 1.18-.699.785-1.123 1.766-1.272 2.938h7.188c-.003-2.746-1.064-4.118-3.185-4.118zm24.375 14.972l-4.043.11-.299-1.497c1.197-.099 1.915-.205 2.152-.318.236-.11.355-.43.355-.953v-7.037c0-1.598-.313-2.707-.937-3.331-.624-.624-1.61-.937-2.957-.937-1.349 0-2.746.351-4.192 1.049v10.256c0 .449.112.755.336.917.227.163.773.28 1.647.354l.337 1.497-3.668-.11-4.043.11-.3-1.497c1.198-.099 1.915-.205 2.153-.318.235-.11.354-.43.354-.953v-8.76c0-.897-.163-1.521-.487-1.871-.324-.35-.836-.523-1.533-.523l-.563.037-.337-1.085c1.746-.425 3.032-.849 3.854-1.272.823-.425 1.285-.66 1.385-.711.324 0 .513.024.563.074.1.1.174.898.225 2.396 1.197-.725 2.252-1.268 3.164-1.629.91-.361 1.901-.543 2.976-.543 3.468 0 5.203 1.859 5.203 5.578v8.31c0 .448.112.755.337.917s.773.281 1.646.355l.336 1.496-3.664-.111zm32.677-21.802l-1.197-.113c-.3-1.771-.85-3.013-1.646-3.724-.799-.711-2.01-1.065-3.631-1.065l-3.855.037c-1.747.073-2.62.273-2.62.599v11.135c0 .25.125.374.374.374h5.578c.599 0 1.004-.279 1.216-.842s.317-1.604.317-3.126l1.235-.187-.075 4.979.075 4.604-1.235.188c0-1.474-.088-2.421-.262-2.845-.175-.426-.599-.637-1.271-.637h-5.578c-.249 0-.374.111-.374.336v8.76c0 .748.256 1.234.769 1.459.51.226 1.59.338 3.236.338l.375 1.609-5.166-.074c-.324 0-2.133.037-5.427.11l-.3-1.646c1.396-.149 2.252-.293 2.563-.432.312-.137.492-.479.542-1.029v-22.363c0-.523-.175-.873-.523-1.048-.351-.175-1.16-.312-2.434-.411l-.337-1.646 4.679.111h5.652l9.246.037c.174.374.262 1.211.262 2.508 0 1.296-.063 2.631-.188 4.004zm5.323 21.802l-4.043.11-.3-1.497c1.198-.099 1.915-.205 2.152-.318.237-.11.356-.43.356-.953v-9.508c0-1.248-.625-1.871-1.873-1.871-.299 0-.537.013-.711.037l-.336-1.086c1.621-.398 2.656-.687 3.105-.86l2.283-.898c.324 0 .523.032.6.095.074.063.112.23.112.504v13.589c0 .448.11.755.336.917s.772.281 1.647.355l.336 1.496-3.664-.112zm-.224-21.261c-.624 0-1.142-.193-1.554-.58-.412-.386-.617-.892-.617-1.516 0-.623.211-1.16.637-1.609.424-.449.954-.674 1.59-.674.638 0 1.16.188 1.572.563.412.373.618.879.618 1.516s-.22 1.18-.655 1.629a2.149 2.149 0 0 1-1.591.671zm10.136 21.261l-4.041.11-.301-1.497c1.198-.099 1.915-.205 2.152-.318.236-.11.355-.43.355-.953v-20.588c0-.822-.145-1.385-.432-1.685s-.674-.448-1.16-.448-.816.013-.992.037l-.337-1.123a46.189 46.189 0 0 0 5.429-1.983c.449 0 .674.237.674.711v25.079c0 .449.125.755.373.917.25.163.813.28 1.686.354l.337 1.497-3.743-.11zm31.064 0l-4.043.11-.299-1.497c1.197-.099 1.914-.205 2.15-.318.237-.11.356-.43.356-.953v-7.037c0-1.598-.313-2.715-.937-3.35-.625-.638-1.592-.955-2.9-.955-1.311 0-2.553.412-3.725 1.234.123.624.188 1.223.188 1.797v8.311c0 .449.111.755.337.917.226.163.772.28 1.646.354l.338 1.497-3.668-.11-4.043.11-.301-1.497c1.198-.099 1.915-.205 2.153-.318.235-.11.354-.43.354-.953v-7.037c0-1.598-.307-2.721-.918-3.369-.61-.648-1.516-.973-2.713-.973s-2.445.35-3.742 1.048v10.331c0 .449.111.755.336.917.226.163.773.28 1.646.354l.337 1.497-3.668-.11-4.043.11-.3-1.497c1.197-.099 1.915-.205 2.152-.318.236-.11.355-.43.355-.953v-8.76c0-.897-.163-1.521-.486-1.871-.324-.35-.836-.523-1.535-.523l-.562.037-.337-1.085c1.746-.425 3.032-.849 3.855-1.272.822-.425 1.285-.66 1.385-.712.324 0 .512.025.562.075.101.1.175.898.226 2.396 1.996-1.447 3.805-2.172 5.428-2.172 2.146 0 3.643.75 4.49 2.246 2.098-1.496 4.044-2.246 5.841-2.246 3.616 0 5.427 1.859 5.427 5.578v8.31c0 .448.112.755.338.917.225.162.772.281 1.646.355l.337 1.496-3.663-.111zm14.826-11.678c-.125-.997-.512-1.803-1.16-2.415-.648-.609-1.441-.917-2.377-.917-.938 0-1.674.2-2.209.601-.537.398-.805.923-.805 1.572 0 .647.306 1.196.916 1.646.611.448 1.354.817 2.229 1.104.873.287 1.753.599 2.639.936.887.337 1.635.893 2.246 1.666s.917 1.82.917 3.145c0 1.322-.543 2.451-1.628 3.387-1.086.937-2.479 1.404-4.174 1.404-1.697 0-3.557-.375-5.577-1.123-.125-.074-.237-.648-.337-1.722a28.676 28.676 0 0 1-.15-2.621v-.187l1.76-.149c.398 2.745 1.785 4.116 4.156 4.116 2.045 0 3.067-.823 3.067-2.471 0-.697-.306-1.277-.917-1.74-.611-.461-1.347-.848-2.208-1.159a50.658 50.658 0 0 1-2.603-1.03 5.777 5.777 0 0 1-2.227-1.684c-.611-.749-.918-1.754-.918-3.014s.557-2.283 1.666-3.069c1.11-.786 2.439-1.179 3.986-1.179s3.23.287 5.054.859c.249.149.374.699.374 1.647s-.075 1.797-.225 2.545l-1.495-.148z"/></svg>