<?xml version="1.0" encoding="utf-8"?>
<!-- Generator: Adobe Illustrator 17.1.0, SVG Export Plug-In . SVG Version: 6.00 Build 0)  -->
<!DOCTYPE svg PUBLIC "-//W3C//DTD SVG 1.1//EN" "http://www.w3.org/Graphics/SVG/1.1/DTD/svg11.dtd">
<svg version="1.1" id="Layer_1" xmlns="http://www.w3.org/2000/svg" xmlns:xlink="http://www.w3.org/1999/xlink" x="0px" y="0px"
	 viewBox="0 0 288 177.303" enable-background="new 0 0 288 177.303" xml:space="preserve">
<g>
	<g>
		<path fill="#6D6E71" d="M27.687,142.258v35.044h-3.406v-16.387H3.501v16.387H0.046v-35.044h3.455v15.597h20.78v-15.597H27.687z"/>
		<path fill="#6D6E71" d="M50.687,174.44c2.204,0,4.039-0.419,5.504-1.258c1.464-0.839,2.632-1.941,3.505-3.307
			c0.871-1.365,1.481-2.92,1.826-4.665c0.346-1.744,0.518-3.505,0.518-5.281v-17.671h3.455v17.671c0,2.369-0.264,4.615-0.79,6.737
			c-0.527,2.123-1.374,3.99-2.542,5.602c-1.169,1.613-2.69,2.896-4.566,3.85c-1.876,0.955-4.163,1.432-6.861,1.432
			c-2.764,0-5.092-0.501-6.984-1.505c-1.893-1.004-3.414-2.328-4.566-3.974c-1.152-1.645-1.974-3.521-2.468-5.627
			c-0.494-2.105-0.741-4.277-0.741-6.515v-17.671h3.406v17.671c0,1.843,0.18,3.636,0.543,5.38c0.361,1.745,0.979,3.291,1.851,4.639
			c0.871,1.35,2.031,2.436,3.48,3.258C46.705,174.029,48.515,174.44,50.687,174.44z"/>
		<path fill="#6D6E71" d="M104.784,177.303v-28.777L92,170.787h-2.023l-12.784-22.261v28.777h-3.455v-35.044h3.553l13.672,23.988
			l13.771-23.988h3.505v35.044H104.784z"/>
		<path fill="#6D6E71" d="M140.717,174.193c-1.35,1.054-2.822,1.876-4.418,2.469c-1.597,0.592-3.316,0.888-5.158,0.888
			c-2.436,0-4.664-0.51-6.688-1.53c-2.024-1.019-3.76-2.352-5.207-3.998c-1.448-1.645-2.566-3.537-3.356-5.675
			c-0.79-2.14-1.185-4.327-1.185-6.565c0-2.335,0.42-4.573,1.259-6.712c0.839-2.139,1.999-4.03,3.48-5.676
			c1.481-1.645,3.225-2.953,5.232-3.924c2.007-0.97,4.178-1.456,6.515-1.456c2.435,0,4.664,0.518,6.688,1.554
			c2.024,1.037,3.751,2.394,5.182,4.072c1.432,1.678,2.542,3.579,3.333,5.701c0.789,2.123,1.183,4.287,1.183,6.491
			c0,2.402-0.435,4.688-1.306,6.86c-0.873,2.172-2.082,4.081-3.629,5.726l4.146,4.886h-3.405L140.717,174.193z M131.141,174.44
			c1.481,0,2.846-0.238,4.096-0.716c1.25-0.476,2.402-1.126,3.455-1.95l-4.393-5.232h3.406l2.813,3.357
			c1.152-1.383,2.04-2.953,2.665-4.714c0.625-1.76,0.938-3.561,0.938-5.405c0-1.907-0.321-3.742-0.963-5.503
			c-0.642-1.76-1.539-3.315-2.69-4.665c-1.153-1.348-2.518-2.434-4.097-3.257s-3.324-1.235-5.232-1.235
			c-1.975,0-3.768,0.42-5.38,1.259c-1.613,0.839-2.979,1.95-4.097,3.331c-1.119,1.383-1.983,2.954-2.591,4.714
			c-0.609,1.761-0.913,3.547-0.913,5.355c0,1.909,0.312,3.743,0.938,5.504c0.625,1.761,1.513,3.323,2.665,4.688
			c1.152,1.366,2.517,2.452,4.096,3.258C127.439,174.037,129.199,174.44,131.141,174.44z"/>
		<path fill="#6D6E71" d="M163.62,142.258h2.912l14.561,35.044h-3.652l-4.541-10.957h-15.745l-4.493,10.957h-3.701L163.62,142.258z
			 M172.109,163.63l-7.058-17.325l-7.157,17.325H172.109z"/>
		<path fill="#6D6E71" d="M186.126,177.303v-35.044h11.895c2.797,0,5.241,0.461,7.33,1.382c2.09,0.921,3.833,2.172,5.232,3.751
			c1.398,1.579,2.451,3.43,3.159,5.553c0.707,2.122,1.061,4.385,1.061,6.787c0,2.665-0.395,5.076-1.185,7.231
			c-0.789,2.155-1.917,3.998-3.381,5.528c-1.464,1.53-3.224,2.715-5.281,3.554c-2.057,0.839-4.368,1.258-6.936,1.258H186.126z
			 M211.349,159.731c0-2.105-0.296-4.039-0.888-5.8c-0.592-1.76-1.456-3.282-2.591-4.566c-1.136-1.283-2.526-2.278-4.171-2.986
			c-1.645-0.708-3.537-1.061-5.676-1.061h-8.44v28.924h8.44c2.172,0,4.089-0.37,5.751-1.11c1.661-0.741,3.052-1.761,4.17-3.061
			c1.118-1.299,1.966-2.829,2.542-4.59C211.061,163.721,211.349,161.804,211.349,159.731z"/>
		<path fill="#6D6E71" d="M231.043,142.258h2.912l14.561,35.044h-3.652l-4.541-10.957h-15.745l-4.493,10.957h-3.701L231.043,142.258
			z M239.533,163.63l-7.058-17.325l-7.157,17.325H239.533z"/>
		<path fill="#6D6E71" d="M284.597,177.303v-28.777l-12.784,22.261h-2.024l-12.783-22.261v28.777h-3.456v-35.044h3.554
			l13.672,23.988l13.771-23.988h3.505v35.044H284.597z"/>
	</g>
	<rect x="0.046" y="0" fill="#4BAD48" width="287.954" height="127.643"/>
	<g>
		
			<rect x="143.649" y="25.305" transform="matrix(0.7071 0.7071 -0.7071 0.7071 65.1748 -96.3203)" fill="#FFFFFF" width="10.416" height="10.416"/>
		
			<rect x="160.214" y="25.305" transform="matrix(0.7071 0.7071 -0.7071 0.7071 70.0284 -108.0351)" fill="#FFFFFF" width="10.416" height="10.416"/>
		<path fill="#FFFFFF" d="M64.62,49.22h-7.144h-0.081v24.025H26.171v5.555v1.669v24.025h7.224V80.47h24.001h7.224h18.12h7.224
			v-7.224V56.445V49.22H82.74H64.62z M82.74,73.246H64.62V56.445h18.12V73.246z"/>
		<polygon fill="#FFFFFF" points="256.989,90.598 256.989,99.997 247.59,99.997 247.59,90.598 243.092,90.598 243.092,99.997 
			243.092,104.495 247.59,104.495 256.989,104.495 261.124,104.495 261.487,104.495 261.487,90.598 		"/>
		<path fill="#FFFFFF" d="M236.985,80.299h24.502v-7.099v-0.013V49.22h-5.689h-1.49v23.967h-17.118V49.22h-1.397h-5.783v23.967
			h-12.856h-31.307h-12.878V49.22h-0.181h-7.112h-17.072h-7.112v7.112v16.855h-12.99V49.22h-5.698h-1.414v23.967h-2.614h-21.77
			v0.095v7.017v0.055v0.04h31.495l0.248-0.04h26.092l-13.35,0.04h31.296v-0.04h13.059v24.141h31.307V80.354h19.831V80.299z
			 M148.603,56.332h17.072v16.855h-9.868h-7.205V56.332z M210.23,97.745h-17.348V80.397h17.348V97.745z"/>
	</g>
</g>
</svg>
