<svg xmlns="http://www.w3.org/2000/svg" viewBox="0 0 288 177.303"><g fill="#6D6E71"><path d="M27.687 142.258v35.044h-3.406v-16.387H3.501v16.387H.046v-35.044h3.455v15.597h20.78v-15.597h3.406zM50.687 174.44c2.204 0 4.039-.419 5.504-1.258 1.464-.839 2.632-1.941 3.505-3.307.871-1.365 1.481-2.92 1.826-4.665.346-1.744.518-3.505.518-5.281v-17.671h3.455v17.671c0 2.369-.264 4.615-.79 6.737-.527 2.123-1.374 3.99-2.542 5.602-1.169 1.613-2.69 2.896-4.566 3.85-1.876.955-4.163 1.432-6.861 1.432-2.764 0-5.092-.501-6.984-1.505-1.893-1.004-3.414-2.328-4.566-3.974-1.152-1.645-1.974-3.521-2.468-5.627a28.423 28.423 0 0 1-.741-6.515v-17.671h3.406v17.671c0 1.843.18 3.636.543 5.38.361 1.745.979 3.291 1.851 4.639.871 1.35 2.031 2.436 3.48 3.258 1.448.823 3.258 1.234 5.43 1.234zM104.784 177.303v-28.777L92 170.787h-2.023l-12.784-22.261v28.777h-3.455v-35.044h3.553l13.672 23.988 13.771-23.988h3.505v35.044h-3.455zM140.717 174.193a16.441 16.441 0 0 1-4.418 2.469c-1.597.592-3.316.888-5.158.888-2.436 0-4.664-.51-6.688-1.53-2.024-1.019-3.76-2.352-5.207-3.998-1.448-1.645-2.566-3.537-3.356-5.675a18.812 18.812 0 0 1-1.185-6.565c0-2.335.42-4.573 1.259-6.712.839-2.139 1.999-4.03 3.48-5.676a16.84 16.84 0 0 1 5.232-3.924c2.007-.97 4.178-1.456 6.515-1.456 2.435 0 4.664.518 6.688 1.554 2.024 1.037 3.751 2.394 5.182 4.072a18.843 18.843 0 0 1 3.333 5.701 18.498 18.498 0 0 1 1.183 6.491c0 2.402-.435 4.688-1.306 6.86-.873 2.172-2.082 4.081-3.629 5.726l4.146 4.886h-3.405l-2.666-3.111zm-9.576.247c1.481 0 2.846-.238 4.096-.716a13.195 13.195 0 0 0 3.455-1.95l-4.393-5.232h3.406l2.813 3.357a15.279 15.279 0 0 0 2.665-4.714c.625-1.76.938-3.561.938-5.405 0-1.907-.321-3.742-.963-5.503-.642-1.76-1.539-3.315-2.69-4.665-1.153-1.348-2.518-2.434-4.097-3.257s-3.324-1.235-5.232-1.235c-1.975 0-3.768.42-5.38 1.259a12.82 12.82 0 0 0-4.097 3.331 15.44 15.44 0 0 0-2.591 4.714 16.285 16.285 0 0 0-.913 5.355c0 1.909.312 3.743.938 5.504.625 1.761 1.513 3.323 2.665 4.688a13.1 13.1 0 0 0 4.096 3.258c1.582.808 3.342 1.211 5.284 1.211zM163.62 142.258h2.912l14.561 35.044h-3.652l-4.541-10.957h-15.745l-4.493 10.957h-3.701l14.659-35.044zm8.489 21.372l-7.058-17.325-7.157 17.325h14.215zM186.126 177.303v-35.044h11.895c2.797 0 5.241.461 7.33 1.382 2.09.921 3.833 2.172 5.232 3.751 1.398 1.579 2.451 3.43 3.159 5.553.707 2.122 1.061 4.385 1.061 6.787 0 2.665-.395 5.076-1.185 7.231-.789 2.155-1.917 3.998-3.381 5.528-1.464 1.53-3.224 2.715-5.281 3.554-2.057.839-4.368 1.258-6.936 1.258h-11.894zm25.223-17.572c0-2.105-.296-4.039-.888-5.8-.592-1.76-1.456-3.282-2.591-4.566-1.136-1.283-2.526-2.278-4.171-2.986-1.645-.708-3.537-1.061-5.676-1.061h-8.44v28.924h8.44c2.172 0 4.089-.37 5.751-1.11 1.661-.741 3.052-1.761 4.17-3.061 1.118-1.299 1.966-2.829 2.542-4.59.575-1.76.863-3.677.863-5.75zM231.043 142.258h2.912l14.561 35.044h-3.652l-4.541-10.957h-15.745l-4.493 10.957h-3.701l14.659-35.044zm8.49 21.372l-7.058-17.325-7.157 17.325h14.215zM284.597 177.303v-28.777l-12.784 22.261h-2.024l-12.783-22.261v28.777h-3.456v-35.044h3.554l13.672 23.988 13.771-23.988h3.505v35.044h-3.455z"/></g><path fill="#4BAD48" d="M.046 0H288v127.643H.046z"/><g fill="#FFF"><path d="M148.856 23.147l7.365 7.365-7.365 7.365-7.365-7.365zM165.423 23.145l7.365 7.366-7.365 7.365-7.366-7.365zM64.62 49.22H57.395v24.025H26.171v31.249h7.224V80.47h56.569V49.22H64.62zm18.12 24.026H64.62V56.445h18.12v16.801zM256.989 90.598v9.399h-9.399v-9.399h-4.498V104.495H261.487V90.598zM236.985 80.299h24.502V49.22h-7.179v23.967H237.19V49.22H230.01v23.967h-57.041V49.22H141.492v23.967h-12.99V49.22h-7.112v23.967H97.006v7.207h31.495l.248-.04h26.092l-13.35.04h31.296v-.04h13.059v24.141h31.307V80.354h19.831v-.055zm-88.382-23.967h17.072v16.855h-17.073V56.332zm61.627 41.413h-17.348V80.397h17.348v17.348z"/></g></svg>