<?xml version="1.0" encoding="utf-8"?>
<!-- Generator: Adobe Illustrator 19.0.0, SVG Export Plug-In . SVG Version: 6.00 Build 0)  -->
<svg version="1.1" id="Layer_1" xmlns="http://www.w3.org/2000/svg" xmlns:xlink="http://www.w3.org/1999/xlink" x="0px" y="0px"
	 viewBox="0 0 199 51.6" xml:space="preserve">
<g id="XMLID_2_">
	<path id="XMLID_4_" fill="#00AEC5" d="M45.4,0L0,0l0.3,2.4C1.5,10.8,5.5,15.2,9,17.4c0.2,3.5,1.6,13.5,10.8,17.9l0.3,1.5
		c2.4,14.3,13.3,14.8,14.6,14.8c0.1,0,0.1,0,0.2,0h11.5l0.2,0c21.4-3.8,22.7-23.7,22.7-23.9l0-0.1C69.1,3.8,45.6,0,45.4,0z
		 M14.3,22.9c-0.4-1.2-0.7-2.4-0.8-3.4c0.3,0.1,0.5,0.1,0.7,0.2l0.2,0.1l0.2,0l0,0l0.2,0l30.8,0.5c1.6,0.5,4,1.8,3.8,5.4
		c-0.1,1.3-0.4,2.3-0.8,3.1c-1.3,2.3-3.5,3-4.1,3.1H22C18.4,30.2,15.8,27.2,14.3,22.9z M45.8,47.5H34.7l-0.1,0
		c-1.4,0-8.7-0.5-10.4-11.3l0-0.2h20.4h0.1l0.1,0c0,0,0.1,0,0.1,0l0,0c0,0,0,0,0,0c2.1-0.2,5.5-1.6,7.4-5.4c0.6-1.2,1.1-2.7,1.2-4.4
		c0,0,0-0.1,0-0.1c0,0,0,0,0,0c0,0,0,0,0,0c0,0,0,0,0-0.1c0.3-3.1-0.4-5.5-2-7.3c-1.9-2.1-4.5-2.5-5.4-2.5c-0.7-0.2-1.2-0.2-1.3-0.3
		l-29.6-0.3l-3.2-1.3c-2.4-1.4-5.6-4.3-7-10.2h40c0.8,0.1,5.4,1.1,10,4.1c6.6,4.3,10,10.8,10,19.3C64.8,28.7,63.4,44.2,45.8,47.5z"
		/>
	<g id="XMLID_179_">
		<path id="XMLID_180_" fill="#404040" d="M79.6,16h3.7v16.7h-3.7V16z"/>
		<path id="XMLID_182_" fill="#404040" d="M87.1,19.9h3.6v1.8c0.2-0.3,0.4-0.5,0.7-0.8c0.2-0.2,0.5-0.5,0.8-0.7c0.3-0.2,0.6-0.3,1-0.5
			s0.8-0.2,1.2-0.2c1.4,0,2.5,0.4,3.2,1.3c0.8,0.8,1.1,2,1.1,3.5v8.3h-3.6v-7.1c0-0.9-0.2-1.5-0.6-1.9C94.3,23.2,93.7,23,93,23
			c-0.7,0-1.3,0.2-1.7,0.7c-0.4,0.4-0.6,1.1-0.6,1.9v7.1h-3.6V19.9z"/>
		<path id="XMLID_184_" fill="#404040" d="M102.6,23h-1.5v-3h1.5v-0.8c0-1.4,0.3-2.4,1-3.1c0.7-0.7,1.6-1,2.9-1c0.6,0,1.1,0,1.5,0.1
			c0.4,0.1,0.8,0.2,1.1,0.3v3c-0.3-0.1-0.5-0.2-0.8-0.2c-0.3-0.1-0.5-0.1-0.9-0.1c-0.9,0-1.3,0.5-1.3,1.4V20h2.9v3h-2.9v9.7h-3.6V23
			z M111.3,15.3h3.6v17.4h-3.6V15.3z"/>
		<path id="XMLID_187_" fill="#404040" d="M118.4,15.3h3.8v3.2h-3.8V15.3z M118.5,19.9h3.6v12.8h-3.6V19.9z"/>
		<path id="XMLID_190_" fill="#404040" d="M131.3,36.6c-1.1,0-2.1-0.1-3-0.3c-1-0.2-1.8-0.6-2.7-1l1.2-2.7c0.7,0.4,1.3,0.7,2,0.9
			s1.4,0.3,2.3,0.3c1.2,0,2.2-0.3,2.8-0.9s0.9-1.5,0.9-2.6v-0.6c-0.5,0.7-1.1,1.2-1.8,1.5c-0.6,0.4-1.4,0.5-2.4,0.5
			c-0.7,0-1.5-0.1-2.1-0.4c-0.7-0.3-1.3-0.6-1.8-1.2c-0.5-0.5-0.9-1.1-1.3-1.9c-0.3-0.7-0.5-1.6-0.5-2.5v0c0-1,0.2-1.8,0.5-2.5
			c0.3-0.7,0.7-1.4,1.3-1.9c0.5-0.5,1.1-0.9,1.8-1.2s1.4-0.4,2.1-0.4c1,0,1.8,0.2,2.4,0.5c0.6,0.4,1.2,0.8,1.7,1.4v-1.7h3.6v9.9
			c0,2.3-0.5,4-1.6,5c-0.6,0.6-1.4,1-2.3,1.3C133.6,36.4,132.5,36.6,131.3,36.6z M131.7,28.6c0.4,0,0.9-0.1,1.2-0.2
			c0.4-0.1,0.7-0.3,1-0.6c0.3-0.3,0.5-0.6,0.7-0.9c0.2-0.4,0.2-0.8,0.2-1.2v0c0-0.4-0.1-0.8-0.2-1.2c-0.2-0.4-0.4-0.7-0.7-0.9
			c-0.3-0.3-0.6-0.5-1-0.6c-0.4-0.1-0.8-0.2-1.2-0.2c-0.4,0-0.9,0.1-1.2,0.2c-0.4,0.1-0.7,0.3-1,0.6c-0.3,0.3-0.5,0.6-0.7,0.9
			s-0.2,0.8-0.2,1.2v0c0,0.9,0.3,1.6,0.9,2.1C130.1,28.4,130.8,28.6,131.7,28.6z"/>
		<path id="XMLID_193_" fill="#404040" d="M141.7,15.3h3.6v6.5c0.2-0.3,0.4-0.5,0.7-0.8c0.2-0.2,0.5-0.5,0.8-0.7c0.3-0.2,0.6-0.3,1-0.5
			s0.8-0.2,1.2-0.2c1.4,0,2.5,0.4,3.2,1.3c0.8,0.8,1.1,2,1.1,3.5v8.3h-3.6v-7.1c0-0.9-0.2-1.5-0.6-1.9c-0.4-0.4-0.9-0.7-1.6-0.7
			c-0.7,0-1.3,0.2-1.7,0.7c-0.4,0.4-0.6,1.1-0.6,1.9v7.1h-3.6V15.3z"/>
		<path id="XMLID_195_" fill="#404040" d="M160.9,32.9c-0.6,0-1.1-0.1-1.5-0.2c-0.5-0.1-0.8-0.3-1.2-0.6c-0.3-0.3-0.6-0.7-0.8-1.2
			c-0.2-0.5-0.3-1.1-0.3-1.9V23h-1.5v-3.1h1.5v-3.3h3.6v3.3h3V23h-3v5.5c0,0.8,0.4,1.2,1.2,1.2c0.6,0,1.2-0.2,1.8-0.5v2.9
			c-0.4,0.2-0.8,0.4-1.3,0.5C162,32.8,161.5,32.9,160.9,32.9z"/>
		<path id="XMLID_197_" fill="#404040" d="M165.4,16h4.1l4.4,11.8l4.4-11.8h4l-6.8,16.8h-3.2L165.4,16z"/>
		<path id="XMLID_199_" fill="#404040" d="M184.7,16h7.6c2.1,0,3.7,0.6,4.9,1.7c1,1,1.4,2.2,1.4,3.8v0c0,1.4-0.3,2.5-1,3.3
			c-0.7,0.9-1.5,1.5-2.6,1.9l4.1,6h-4.3l-3.6-5.3h0h-2.8v5.3h-3.7V16z M192.1,24.1c0.9,0,1.6-0.2,2.1-0.6c0.5-0.4,0.7-1,0.7-1.7v0
			c0-0.8-0.3-1.4-0.8-1.8c-0.5-0.4-1.2-0.6-2.1-0.6h-3.7v4.8H192.1z"/>
	</g>
</g>
</svg>
