<svg xmlns="http://www.w3.org/2000/svg" viewBox="0 0 199 51.6"><path fill="#00AEC5" d="M45.4 0H0l.3 2.4c1.2 8.4 5.2 12.8 8.7 15 .2 3.5 1.6 13.5 10.8 17.9l.3 1.5c2.4 14.3 13.3 14.8 14.6 14.8H46.6C68 47.8 69.3 27.9 69.3 27.7v-.1C69.1 3.8 45.6 0 45.4 0zM14.3 22.9c-.4-1.2-.7-2.4-.8-3.4.3.1.5.1.7.2l.2.1h.4l30.8.5c1.6.5 4 1.8 3.8 5.4-.1 1.3-.4 2.3-.8 3.1-1.3 2.3-3.5 3-4.1 3.1H22c-3.6-1.7-6.2-4.7-7.7-9zm31.5 24.6H34.6c-1.4 0-8.7-.5-10.4-11.3V36H44.9c2.1-.2 5.5-1.6 7.4-5.4.6-1.2 1.1-2.7 1.2-4.4v-.1-.1c.3-3.1-.4-5.5-2-7.3-1.9-2.1-4.5-2.5-5.4-2.5-.7-.2-1.2-.2-1.3-.3l-29.6-.3-3.2-1.3C9.6 12.9 6.4 10 5 4.1h40c.8.1 5.4 1.1 10 4.1 6.6 4.3 10 10.8 10 19.3-.2 1.2-1.6 16.7-19.2 20z"/><g fill="#404040"><path d="M79.6 16h3.7v16.7h-3.7V16zM87.1 19.9h3.6v1.8c.2-.3.4-.5.7-.8.2-.2.5-.5.8-.7.3-.2.6-.3 1-.5s.8-.2 1.2-.2c1.4 0 2.5.4 3.2 1.3.8.8 1.1 2 1.1 3.5v8.3h-3.6v-7.1c0-.9-.2-1.5-.6-1.9-.2-.4-.8-.6-1.5-.6s-1.3.2-1.7.7c-.4.4-.6 1.1-.6 1.9v7.1h-3.6V19.9zM102.6 23h-1.5v-3h1.5v-.8c0-1.4.3-2.4 1-3.1.7-.7 1.6-1 2.9-1 .6 0 1.1 0 1.5.1.4.1.8.2 1.1.3v3c-.3-.1-.5-.2-.8-.2-.3-.1-.5-.1-.9-.1-.9 0-1.3.5-1.3 1.4v.4h2.9v3h-2.9v9.7h-3.6V23zm8.7-7.7h3.6v17.4h-3.6V15.3zM118.4 15.3h3.8v3.2h-3.8v-3.2zm.1 4.6h3.6v12.8h-3.6V19.9zM131.3 36.6c-1.1 0-2.1-.1-3-.3-1-.2-1.8-.6-2.7-1l1.2-2.7c.7.4 1.3.7 2 .9s1.4.3 2.3.3c1.2 0 2.2-.3 2.8-.9s.9-1.5.9-2.6v-.6c-.5.7-1.1 1.2-1.8 1.5-.6.4-1.4.5-2.4.5-.7 0-1.5-.1-2.1-.4-.7-.3-1.3-.6-1.8-1.2-.5-.5-.9-1.1-1.3-1.9-.3-.7-.5-1.6-.5-2.5 0-1 .2-1.8.5-2.5s.7-1.4 1.3-1.9c.5-.5 1.1-.9 1.8-1.2s1.4-.4 2.1-.4c1 0 1.8.2 2.4.5.6.4 1.2.8 1.7 1.4v-1.7h3.6v9.9c0 2.3-.5 4-1.6 5-.6.6-1.4 1-2.3 1.3-.8.3-1.9.5-3.1.5zm.4-8c.4 0 .9-.1 1.2-.2.4-.1.7-.3 1-.6.3-.3.5-.6.7-.9.2-.4.2-.8.2-1.2 0-.4-.1-.8-.2-1.2-.2-.4-.4-.7-.7-.9-.3-.3-.6-.5-1-.6-.4-.1-.8-.2-1.2-.2-.4 0-.9.1-1.2.2-.4.1-.7.3-1 .6-.3.3-.5.6-.7.9s-.2.8-.2 1.2c0 .9.3 1.6.9 2.1.6.6 1.3.8 2.2.8zM141.7 15.3h3.6v6.5c.2-.3.4-.5.7-.8.2-.2.5-.5.8-.7.3-.2.6-.3 1-.5s.8-.2 1.2-.2c1.4 0 2.5.4 3.2 1.3.8.8 1.1 2 1.1 3.5v8.3h-3.6v-7.1c0-.9-.2-1.5-.6-1.9-.4-.4-.9-.7-1.6-.7-.7 0-1.3.2-1.7.7-.4.4-.6 1.1-.6 1.9v7.1h-3.6V15.3zM160.9 32.9c-.6 0-1.1-.1-1.5-.2-.5-.1-.8-.3-1.2-.6-.3-.3-.6-.7-.8-1.2-.2-.5-.3-1.1-.3-1.9v-6h-1.5v-3.1h1.5v-3.3h3.6v3.3h3V23h-3v5.5c0 .8.4 1.2 1.2 1.2.6 0 1.2-.2 1.8-.5v2.9c-.4.2-.8.4-1.3.5-.4.2-.9.3-1.5.3zM165.4 16h4.1l4.4 11.8 4.4-11.8h4l-6.8 16.8h-3.2L165.4 16zM184.7 16h7.6c2.1 0 3.7.6 4.9 1.7 1 1 1.4 2.2 1.4 3.8 0 1.4-.3 2.5-1 3.3-.7.9-1.5 1.5-2.6 1.9l4.1 6h-4.3l-3.6-5.3h-2.8v5.3h-3.7V16zm7.4 8.1c.9 0 1.6-.2 2.1-.6.5-.4.7-1 .7-1.7 0-.8-.3-1.4-.8-1.8-.5-.4-1.2-.6-2.1-.6h-3.7v4.8h3.8z"/></g></svg>