<svg version="1.1" id="Layer_1" xmlns="http://www.w3.org/2000/svg" xmlns:xlink="http://www.w3.org/1999/xlink" x="0px" y="0px" width="150px" viewBox="0 0 258 82" enable-background="new 0 0 258 82" xml:space="preserve">
    <g>
        <path fill="#B90504" d="M21.032,14.875v27.343c0,9.843-0.748,17.902-8.865,24.521c-3.511,2.936-6.965,4.433-10.303,5.238
            l-1.267-3.051c4.72-2.129,7.195-5.065,8.116-10.764c0.749-4.778,0.921-10.131,0.921-16.003V14.875c0-7.195-0.921-7.713-7.426-8.289
            V3.592h25.73v2.994C21.896,7.161,21.032,7.68,21.032,14.875L21.032,14.875z M56.825,38.496c-1.669,0.288-12.088,1.036-20.378,1.382
            c0.461,9.037,5.354,13.469,11.513,13.469c3.281,0,6.62-1.15,9.612-3.684l1.439,2.015c-5.181,7.771-11.973,9.44-15.427,9.44
            c-11.397,0-17.672-8.289-17.672-18.017c0-6.102,2.476-11.398,6.274-15.082c3.914-3.741,8.692-5.929,13.182-5.929h0.057
            c7.829,0,13.931,6.62,13.931,13.412C59.243,37.057,58.667,38.266,56.825,38.496L56.825,38.496z M43.585,25.429h-0.057
            c-3.281,0-6.16,3.684-6.735,10.419c3.511,0,6.792-0.115,10.246-0.288c1.267,0,1.727-0.173,1.727-1.497
            C48.881,29.689,46.867,25.429,43.585,25.429L43.585,25.429z M57.582,60.14v-2.764c5.066-0.863,5.583-1.15,5.583-6.619V12.363
            c0-5.123-0.518-5.296-5.181-5.871v-2.59c4.95-0.519,11.283-1.727,16.118-2.936v49.792c0,5.699,0.461,6.044,5.756,6.619v2.764
            H57.582L57.582,60.14z M76.426,60.14v-2.764c5.065-0.863,5.583-1.15,5.583-6.619V12.363c0-5.123-0.518-5.296-5.181-5.871v-2.59
            c4.951-0.519,11.283-1.727,16.118-2.936v49.792c0,5.699,0.46,6.044,5.756,6.619v2.764H76.426L76.426,60.14z M127.851,31.876
            c-2.13,4.202-5.066,11.512-10.074,23.14c-5.929,13.585-7.656,18.766-9.21,23.716c-0.691,1.842-1.785,2.303-3.108,2.303
            c-2.36,0-6.044-2.36-6.044-5.469c0-1.439,0.576-2.188,2.36-3.281c3.396-1.842,5.526-3.511,7.195-6.331
            c0.863-1.382,1.266-2.304,1.612-3.282c0.403-1.381,0.23-2.705-0.288-4.029c-4.317-12.03-9.21-24.061-10.707-27.687
            c-1.497-3.454-2.59-4.432-6.792-5.181v-2.706h21.298v2.706c-3.511,0.806-4.375,1.151-3.454,3.684l6.562,18.708
            c1.842-4.317,4.95-13.239,6.447-17.787c0.92-2.591,0.057-3.799-4.029-4.605v-2.706h15.427v2.706
            C130.958,26.523,130.095,27.271,127.851,31.876L127.851,31.876z M155.778,60.14v-2.764c3.684-0.518,4.202-1.093,4.202-6.216V33.143
            c0-5.124-0.288-5.929-4.548-5.929h-9.152v24.119c0,4.893,1.036,5.468,5.123,6.043v2.764h-21.298v-2.764
            c4.605-0.402,5.296-1.15,5.296-6.043V27.214h-5.986l-0.288-1.094l2.59-3.051h3.685v-2.015c0-2.936,0.806-5.353,2.072-7.943
            c1.438-2.764,3.684-5.066,6.792-7.368c3.972-3.051,8.922-4.72,12.606-4.778c5.181,0.172,8.174,2.072,9.958,4.029
            c1.324,1.554,1.439,3.339,0.749,4.663c-0.576,1.094-1.497,2.13-2.591,2.706c-1.612,0.921-2.764,0.749-3.511-0.288
            c-1.439-1.842-4.433-6.792-9.671-6.792c-2.303,0-4.029,1.842-4.663,4.893c-0.575,2.188-0.863,6.274-0.863,9.958v2.936h8.577
            c3.856,0,11.282-0.173,15.944-0.979V51.16c0,5.123,0.461,5.698,5.181,6.216v2.764H155.778L155.778,60.14z M188.765,25.429
            c-2.188,0-4.375,1.669-4.375,4.432c0,2.59,1.899,4.548,6.447,6.39c6.965,2.936,11.455,5.872,11.455,12.376
            c0,8.404-8.116,12.491-15.427,12.491c-4.317,0-8.865-1.554-10.649-2.82c-0.46-1.324-1.209-7.196-1.324-11.57l2.533-0.115
            c1.842,5.296,5.871,11.167,11.167,11.167c2.648,0,4.605-1.899,4.605-4.433c0-2.359-1.094-4.374-6.447-6.85
            c-3.856-1.842-10.994-5.123-10.994-12.491c0-6.677,5.41-11.916,14.333-11.916c4.029-0.115,6.389,0.633,8.288,1.381
            c0.922,1.957,1.958,8.001,2.073,9.728l-2.591,0.806C195.614,29.056,192.852,25.429,188.765,25.429L188.765,25.429z M224.61,60.14
            v-2.764c4.202-0.575,4.433-1.266,4.433-5.813V37c0-6.562-2.936-8.75-6.39-8.75c-2.015,0-4.316,0.633-6.159,2.475v20.837
            c0,4.548,0.288,5.238,3.973,5.813v2.764h-20.263v-2.764c4.835-0.518,5.354-0.748,5.354-6.101V12.075
            c0-5.181-0.346-5.181-4.777-5.698V3.901c4.432-0.519,10.591-1.727,15.714-2.936v26.537c2.994-2.936,7.253-5.411,11.397-5.411
            c7.368,0,11.974,4.663,11.974,14.045v15.14c0,5.353,0.518,5.353,4.95,6.101v2.764H224.61L224.61,60.14z"></path>
        <path id="jellyfish-dot" fill-rule="evenodd" clip-rule="evenodd" fill="#B90504" d="M252.087,50.557c2.936,0,5.315,2.38,5.315,5.314
            c0,2.937-2.38,5.315-5.315,5.315s-5.314-2.379-5.314-5.315C246.772,52.937,249.151,50.557,252.087,50.557L252.087,50.557z"></path>
    </g>
    </svg>
