<?xml version="1.0" encoding="utf-8"?>
<!-- Generator: Adobe Illustrator 16.0.0, SVG Export Plug-In . SVG Version: 6.00 Build 0)  -->
<!DOCTYPE svg PUBLIC "-//W3C//DTD SVG 1.1//EN" "http://www.w3.org/Graphics/SVG/1.1/DTD/svg11.dtd">
<svg version="1.1" id="Layer_1" xmlns="http://www.w3.org/2000/svg" xmlns:xlink="http://www.w3.org/1999/xlink" x="0px" y="0px"
	 width="165px" height="195px" viewBox="55.5 -57.5 165 195" enable-background="new 55.5 -57.5 165 195" xml:space="preserve">
<path fill="#0CC48E" d="M137.705,46.546c-14.557,14.559-38.162,14.559-52.717,0c-14.561-14.556-14.561-38.16,0-52.717
	c14.555-14.56,38.16-14.56,52.717,0C152.264,8.382,152.264,31.987,137.705,46.546L137.705,46.546z"/>
<path fill="#FF8830" d="M199.302,55.177c-13.406,13.407-31.145,19.779-48.707,19.246c7.039-3.193,13.659-7.606,19.448-13.396
	c25.788-25.789,25.788-67.596,0-93.385c-12.378-12.38-28.455-18.751-44.675-19.244c24.323-11.027,53.934-6.61,73.934,13.392
	C225.089-12.423,225.089,29.389,199.302,55.177L199.302,55.177z"/>
<path fill="#F6EC36" d="M170.043,61.027c-5.818,5.823-12.474,10.257-19.553,13.444c3.014-2.013,5.88-4.342,8.536-6.997
	c21.982-21.983,21.982-57.615,0-79.598c-21.976-21.979-57.613-21.979-79.595,0C63.008,4.305,58.869,28.361,66.993,48.64
	c-15.493-25.415-12.322-59.016,9.662-81c25.789-25.789,67.599-25.789,93.388,0C195.831-6.571,195.829,35.241,170.043,61.027
	L170.043,61.027z"/>
<path fill="#178893" d="M153.958,64.204c-19.43,19.432-50.939,19.432-70.371,0c-5.914-5.913-10.001-12.955-12.317-20.423
	c1.87,3.098,4.088,6.042,6.761,8.714c17.79,17.79,46.633,17.79,64.422,0c17.786-17.79,17.786-46.632,0-64.421
	c-2.347-2.351-4.898-4.367-7.581-6.094c6.966,2.378,13.527,6.29,19.084,11.849C173.39,13.261,173.39,44.764,153.958,64.204
	L153.958,64.204z"/>
<path fill="#178893" d="M148.02,58.263l5.889,5.89c-17.688,17.799-17.657,46.562,0.101,64.312c2.666,2.675,5.612,4.896,8.704,6.765
	c-7.467-2.316-14.501-6.408-20.413-12.321c-19.433-19.428-19.433-50.933,0-70.367c7.086-7.089,15.788-11.563,24.92-13.478
	L148.02,58.263L148.02,58.263z"/>
<path fill="#178893" d="M83.832,137.466c0,0,29.288-4.925,58.563-4.925c29.248,0,58.485,4.925,58.485,4.925v0.034H83.832V137.466
	L83.832,137.466z"/>
</svg>
