<svg xmlns="http://www.w3.org/2000/svg" width="165" height="195" viewBox="55.5 -57.5 165 195"><path fill="#0CC48E" d="M137.705 46.546c-14.557 14.559-38.162 14.559-52.717 0-14.561-14.556-14.561-38.16 0-52.717 14.555-14.56 38.16-14.56 52.717 0 14.559 14.553 14.559 38.158 0 52.717z"/><path fill="#FF8830" d="M199.302 55.177c-13.406 13.407-31.145 19.779-48.707 19.246 7.039-3.193 13.659-7.606 19.448-13.396 25.788-25.789 25.788-67.596 0-93.385-12.378-12.38-28.455-18.751-44.675-19.244 24.323-11.027 53.934-6.61 73.934 13.392 25.787 25.787 25.787 67.599 0 93.387z"/><path fill="#F6EC36" d="M170.043 61.027c-5.818 5.823-12.474 10.257-19.553 13.444a56.26 56.26 0 0 0 8.536-6.997c21.982-21.983 21.982-57.615 0-79.598-21.976-21.979-57.613-21.979-79.595 0C63.008 4.305 58.869 28.361 66.993 48.64c-15.493-25.415-12.322-59.016 9.662-81 25.789-25.789 67.599-25.789 93.388 0 25.788 25.789 25.786 67.601 0 93.387z"/><path fill="#178893" d="M153.958 64.204c-19.43 19.432-50.939 19.432-70.371 0A49.53 49.53 0 0 1 71.27 43.781c1.87 3.098 4.088 6.042 6.761 8.714 17.79 17.79 46.633 17.79 64.422 0 17.786-17.79 17.786-46.632 0-64.421a45.38 45.38 0 0 0-7.581-6.094c6.966 2.378 13.527 6.29 19.084 11.849 19.434 19.432 19.434 50.935.002 70.375z"/><path fill="#178893" d="M148.02 58.263l5.889 5.89c-17.688 17.799-17.657 46.562.101 64.312 2.666 2.675 5.612 4.896 8.704 6.765a49.516 49.516 0 0 1-20.413-12.321c-19.433-19.428-19.433-50.933 0-70.367 7.086-7.089 15.788-11.563 24.92-13.478L148.02 58.263z"/><path fill="#178893" d="M83.832 137.466s29.288-4.925 58.563-4.925c29.248 0 58.485 4.925 58.485 4.925v.034H83.832v-.034z"/></svg>