<?xml version="1.0" encoding="utf-8"?>
<!-- Generator: Adobe Illustrator 16.0.0, SVG Export Plug-In . SVG Version: 6.00 Build 0)  -->
<!DOCTYPE svg PUBLIC "-//W3C//DTD SVG 1.1//EN" "http://www.w3.org/Graphics/SVG/1.1/DTD/svg11.dtd">
<svg version="1.1" id="Layer_1" xmlns="http://www.w3.org/2000/svg" xmlns:xlink="http://www.w3.org/1999/xlink" x="0px" y="0px"
	 width="343.852px" height="178.477px" viewBox="0 0 343.852 178.477" enable-background="new 0 0 343.852 178.477"
	 xml:space="preserve">
<g>
	<g>
		<polyline fill="#47C0EF" points="287.327,0 343.852,0 343.852,24.506 333.579,24.506 333.579,112.14 343.852,112.14 
			343.852,136.665 287.327,136.665 287.327,112.14 297.616,112.14 297.616,24.506 287.327,24.506 		"/>
		<polyline fill="#1F2A5B" points="287.327,0 240.917,0 206.942,61.523 170.975,0 123.133,0 123.133,24.506 136.463,24.506 
			132.023,112.14 123.133,112.14 123.133,136.665 174.061,136.665 174.061,111.983 163.598,111.983 166.184,54.774 199.702,108.924 
			211.338,108.924 241.782,55.566 244.129,111.983 233.979,111.983 233.979,136.665 287.327,136.665 287.327,112.14 278.463,112.14 
			273.997,24.506 287.327,24.506 		"/>
		<path fill="#1F2A5B" d="M46.584,27.305V66.49h10.28l8.671-0.411c23.139-1.121,23.79-38.388,0.53-38.667l-9.2-0.106 M-0.126,0
			h73.453c46.749,1.058,64.18,61.63,23.625,83.005l14.105,29.136H123.2v24.524H84.267L64.428,91.998l-0.103-0.237H46.584v20.381
			h11.252v24.524H-0.126V112.14h10.289V24.506H-0.126V0z"/>
	</g>
	<g enable-background="new    ">
		<path fill="#47C0EF" d="M-0.658,178.325v-17.169h4.392c1.773,0,3.181,0.43,4.223,1.29s1.562,2.024,1.562,3.49
			c0,1-0.255,1.864-0.766,2.593c-0.51,0.73-1.242,1.275-2.196,1.635c0.56,0.361,1.108,0.853,1.644,1.475
			c0.535,0.623,1.288,1.709,2.259,3.258c0.61,0.975,1.1,1.708,1.468,2.199l0.928,1.229H9.87l-0.765-1.132
			c-0.025-0.041-0.075-0.109-0.15-0.209l-0.489-0.676l-0.777-1.254l-0.839-1.341c-0.518-0.705-0.993-1.267-1.424-1.683
			c-0.431-0.418-0.821-0.719-1.168-0.902c-0.347-0.184-0.932-0.275-1.752-0.275H1.852v7.472H-0.658z M2.604,163.245H1.852v5.42
			h0.954c1.271,0,2.144-0.106,2.616-0.319s0.841-0.535,1.104-0.965c0.264-0.43,0.396-0.92,0.396-1.469
			c0-0.541-0.146-1.03-0.439-1.469c-0.293-0.438-0.705-0.748-1.236-0.928S3.834,163.245,2.604,163.245z"/>
		<path fill="#47C0EF" d="M14.789,161.156h9.938v2.188h-7.429v5.235h7.178v2.2h-7.178v5.334h7.667v2.188H14.789V161.156z"/>
		<path fill="#47C0EF" d="M39.998,161.156h2.51v17.169h-2.51v-7.472h-9.851v7.472h-2.509v-17.169h2.509v7.423h9.851V161.156z"/>
		<path fill="#47C0EF" d="M60.313,161.156h2.347v17.169h-2.522v-13.359l-5.389,6.637h-0.464l-5.452-6.637v13.359h-2.51v-17.169
			h2.376l5.825,7.051L60.313,161.156z"/>
		<path fill="#47C0EF" d="M72.034,161.057h1.764l7.86,17.268H79.09l-2.336-5.088h-7.479l-2.19,5.088h-2.579L72.034,161.057z
			 M75.722,171.049l-2.828-6.219l-2.623,6.219H75.722z"/>
		<path fill="#47C0EF" d="M97.506,161.156h2.384v17.169h-2.158l-11.72-13.224v13.224h-2.359v-17.169h2.033l11.82,13.335V161.156z"/>
		<path fill="#47C0EF" d="M124.724,161.156h2.347v17.169h-2.522v-13.359l-5.389,6.637h-0.464l-5.452-6.637v13.359h-2.51v-17.169
			h2.376l5.825,7.051L124.724,161.156z"/>
		<path fill="#47C0EF" d="M130.847,161.156h9.938v2.188h-7.429v5.235h7.178v2.2h-7.178v5.334h7.667v2.188h-10.176V161.156z"/>
		<path fill="#47C0EF" d="M143.722,178.301v-17.145h5.91c2.384,0,4.271,0.35,5.659,1.051c1.389,0.7,2.493,1.73,3.313,3.091
			c0.82,1.36,1.229,2.843,1.229,4.448c0,1.148-0.226,2.246-0.678,3.295c-0.452,1.049-1.096,1.971-1.932,2.765
			c-0.854,0.819-1.845,1.438-2.974,1.856c-0.661,0.254-1.267,0.424-1.819,0.51s-1.606,0.129-3.162,0.129H143.722z M149.368,163.344
			h-3.137v12.77h3.212c1.255,0,2.229-0.084,2.923-0.252s1.274-0.381,1.738-0.639c0.464-0.259,0.889-0.576,1.273-0.953
			c1.238-1.229,1.857-2.781,1.857-4.658c0-1.844-0.636-3.347-1.908-4.51c-0.468-0.435-1.006-0.791-1.612-1.07
			c-0.606-0.277-1.182-0.463-1.725-0.553C151.447,163.388,150.573,163.344,149.368,163.344z"/>
		<path fill="#47C0EF" d="M162.996,161.156h2.51v17.169h-2.51V161.156z"/>
	</g>
	<g enable-background="new    ">
		<path fill="#47C0EF" d="M184.504,174.344v2.703c-1.841,0.983-3.966,1.475-6.375,1.475c-1.957,0-3.618-0.385-4.981-1.154
			c-1.364-0.771-2.443-1.832-3.238-3.184s-1.192-2.814-1.192-4.388c0-2.499,0.91-4.601,2.729-6.305
			c1.82-1.704,4.063-2.557,6.733-2.557c1.84,0,3.885,0.472,6.135,1.413v2.643c-2.049-1.146-4.053-1.721-6.01-1.721
			c-2.008,0-3.675,0.621-5,1.862c-1.327,1.241-1.989,2.796-1.989,4.664c0,1.885,0.652,3.433,1.958,4.646
			c1.305,1.213,2.973,1.818,5.006,1.818C180.405,176.26,182.479,175.621,184.504,174.344z"/>
	</g>
	<g enable-background="new    ">
		<path fill="#47C0EF" d="M193.805,161.057h1.764l7.859,17.268h-2.568l-2.336-5.088h-7.479l-2.191,5.088h-2.578L193.805,161.057z
			 M197.493,171.049l-2.828-6.219l-2.623,6.219H197.493z"/>
		<path fill="#47C0EF" d="M205.348,161.156h2.51v14.932h7.893v2.237h-10.402V161.156z"/>
		<path fill="#47C0EF" d="M225.112,161.156h2.51v17.169h-2.51V161.156z"/>
		<path fill="#47C0EF" d="M245.44,161.156h2.385v17.169h-2.158l-11.721-13.224v13.224h-2.359v-17.169h2.033l11.82,13.335V161.156z"
			/>
		<path fill="#47C0EF" d="M255.918,171.131l-1.908-1.135c-1.195-0.715-2.047-1.419-2.553-2.111s-0.76-1.489-0.76-2.391
			c0-1.352,0.479-2.449,1.438-3.293c0.957-0.844,2.201-1.267,3.732-1.267c1.465,0,2.807,0.402,4.028,1.208v2.789
			c-1.263-1.189-2.622-1.785-4.078-1.785c-0.819,0-1.493,0.186-2.021,0.558c-0.527,0.371-0.791,0.847-0.791,1.426
			c0,0.515,0.195,0.996,0.583,1.444c0.388,0.449,1.013,0.921,1.872,1.414l1.918,1.111c2.138,1.251,3.207,2.843,3.207,4.776
			c0,1.376-0.471,2.495-1.412,3.355s-2.164,1.29-3.67,1.29c-1.732,0-3.309-0.521-4.73-1.563v-3.122
			c1.354,1.682,2.924,2.523,4.705,2.523c0.786,0,1.441-0.215,1.964-0.644s0.784-0.966,0.784-1.61
			C258.227,173.06,257.458,172.069,255.918,171.131z"/>
		<path fill="#47C0EF" d="M261.853,161.131h14.644v2.188h-6.11v15.007h-2.522v-15.007h-6.011V161.131z"/>
		<path fill="#47C0EF" d="M278.894,161.156h2.51v17.169h-2.51V161.156z"/>
		<path fill="#47C0EF" d="M283.799,161.131h14.645v2.188h-6.111v15.007h-2.521v-15.007h-6.012V161.131z"/>
		<path fill="#47C0EF" d="M313.012,161.156h2.521v9.746c0,1.318-0.098,2.314-0.295,2.986c-0.195,0.672-0.439,1.23-0.727,1.678
			c-0.289,0.446-0.643,0.846-1.061,1.197c-1.389,1.172-3.205,1.758-5.445,1.758c-2.285,0-4.117-0.582-5.498-1.744
			c-0.418-0.361-0.771-0.765-1.059-1.211c-0.289-0.447-0.527-0.994-0.717-1.641c-0.188-0.647-0.281-1.664-0.281-3.049v-9.721h2.521
			v9.746c0,1.613,0.189,2.736,0.564,3.367c0.377,0.631,0.949,1.137,1.719,1.518c0.771,0.381,1.678,0.572,2.725,0.572
			c1.488,0,2.701-0.382,3.639-1.144c0.492-0.409,0.848-0.894,1.066-1.45c0.217-0.557,0.326-1.512,0.326-2.863V161.156z"/>
		<path fill="#47C0EF" d="M317.518,161.131h14.643v2.188h-6.111v15.007h-2.521v-15.007h-6.01V161.131z"/>
		<path fill="#47C0EF" d="M334.534,161.156h9.938v2.188h-7.428v5.235h7.178v2.2h-7.178v5.334h7.666v2.188h-10.176V161.156z"/>
	</g>
</g>
</svg>
