<svg xmlns="http://www.w3.org/2000/svg" width="1915.89" height="258.483" viewBox="139.997 169.758 1915.89 258.483"><path fill="#333" d="M478.438 231.355c-23.592-11.273-48.312-13.16-73.414-6.492-32.673 8.676-55.109 29.128-66.886 60.922-5.265 14.233-6.657 29.079-6.107 44.172.47 12.792 2.744 25.193 7.539 37.094 8.6 21.354 22.723 37.917 43.177 48.684 24.907 13.112 51.21 15.812 78.272 8.578 29.454-7.859 50.77-25.781 63.373-53.737 6.613-14.677 9.199-30.161 9.146-47.248.072-9.765-1.065-20.491-4.117-30.924-8.119-27.725-24.745-48.524-50.983-61.049zm27.129 137.954c-3.375 9.213-7.864 17.82-13.987 25.551-8.909 11.242-20.167 19.113-33.82 23.428-15.282 4.827-30.769 5.124-46.234 1.056-19.243-5.059-33.485-16.76-43.535-33.713-7.704-12.991-11.896-27.159-13.681-42.097-1.331-11.143-1.478-22.295-.495-33.475 1.55-17.604 6.027-34.328 15.771-49.27 12.365-18.964 29.838-30 52.346-32.839 15.063-1.895 29.69-.254 43.607 6.055 16.779 7.62 28.536 20.292 36.365 36.789 5.668 11.936 8.836 24.558 9.971 37.69.469 5.367.662 10.768.981 16.156-.213 15.274-2.022 30.247-7.289 44.669zm-193.043 27.574c-.378.07-.596.061-.723.162-.611.436-1.214.9-1.809 1.365-8.823 6.988-18.286 12.812-28.995 16.504-15.278 5.273-30.951 7.058-47.021 5.559-11.68-1.094-22.617-4.535-32.686-10.602-14.773-8.879-24.716-21.812-31.252-37.551-5.552-13.379-8.013-27.379-8.558-41.785-.553-14.594.538-28.979 4.782-43.004 4.988-16.501 13.339-30.896 26.709-42.086 11.317-9.454 24.196-15.44 38.9-17.305 8.694-1.113 17.379-.676 26.084-.031 17.302 1.28 32.388 7.96 45.915 18.547.634.507 1.297.964 2.424 1.796 0-2.948-.062-5.39.021-7.82.043-1.309-.489-2.055-1.574-2.727-7.746-4.813-15.744-9.074-24.567-11.629-8.681-2.531-17.535-3.901-26.545-4.507-12.751-.856-25.376-.305-37.772 3.032-31.581 8.498-54.429 27.394-67.832 57.346-5.702 12.723-7.825 26.248-8.014 40.11-.235 17.06 2.277 33.61 9.197 49.32 10.837 24.616 28.78 41.651 54.284 50.513 10 3.469 20.299 5.309 30.857 5.916 11.416.65 22.722-.05 33.937-2.187 14.529-2.767 27.318-9.493 39.248-17.884 6.652-4.684 5.096-2.589 5.137-10.629.002-.087-.057-.177-.147-.423zm1032.544 0c-.381.07-.592.061-.724.162-.614.436-1.216.9-1.812 1.365-8.821 6.988-18.283 12.812-28.99 16.504-15.282 5.273-30.956 7.058-47.022 5.559-11.684-1.094-22.615-4.535-32.687-10.602-14.769-8.879-24.712-21.812-31.254-37.551-5.546-13.379-8.015-27.379-8.554-41.785-.554-14.594.537-28.979 4.778-43.004 4.988-16.501 13.343-30.896 26.712-42.086 11.315-9.454 24.191-15.44 38.898-17.305 8.696-1.113 17.379-.676 26.084-.031 17.302 1.28 32.384 7.96 45.915 18.547.632.507 1.297.964 2.426 1.796 0-2.948-.065-5.39.023-7.82.042-1.309-.491-2.055-1.578-2.727-7.747-4.813-15.745-9.074-24.566-11.629-8.679-2.531-17.532-3.901-26.547-4.507-12.754-.856-25.37-.305-37.771 3.032-31.577 8.498-54.428 27.394-67.832 57.346-5.692 12.723-7.822 26.248-8.012 40.11-.231 17.06 2.276 33.61 9.192 49.32 10.848 24.616 28.786 41.651 54.295 50.513 9.991 3.469 20.292 5.309 30.854 5.916 11.409.65 22.72-.05 33.93-2.187 14.531-2.767 27.315-9.493 39.254-17.884 6.652-4.684 5.094-2.589 5.133-10.629.002-.087-.057-.177-.145-.423zm-410.504-137.86c-1.977-11.144-7.588-19.925-17.701-25.41-2.738-1.473-5.658-2.676-8.599-3.679-6.771-2.301-13.812-3.179-20.918-3.719-10.275-.777-20.482-.36-30.477 2.191-23.938 6.104-45.605 16.753-64.594 32.657-.913.768-1.745 1.484-3.354.757v-32.086c-6.553.301-12.751.586-19.03.878v197.629h20.316v-3.921c0-50.784.018-101.582-.066-152.369-.002-2.441.751-4.011 2.54-5.555 7.363-6.327 15.293-11.82 23.76-16.522 14.595-8.121 29.87-14.402 46.626-16.24 10.538-1.148 21.031-.521 31.2 2.711 9.605 3.067 16.438 9.168 19.625 18.962 1.453 4.468 1.68 9.104 1.68 13.754.009 51.832.004 103.664.004 155.495v3.652h20.086v-3.253c0-51.364.031-102.721-.04-154.079a67.932 67.932 0 0 0-1.058-11.853zm-201.901 0c-1.98-11.144-7.585-19.925-17.706-25.41-2.727-1.473-5.653-2.676-8.593-3.679-6.771-2.301-13.813-3.179-20.918-3.719-10.279-.777-20.485-.36-30.478 2.191-23.937 6.104-45.609 16.753-64.602 32.657-.901.768-1.742 1.484-3.347.757v-32.086c-6.557.301-12.753.586-19.032.878v197.629h20.312v-3.921c0-50.784.024-101.582-.055-152.369-.004-2.441.744-4.011 2.54-5.555 7.357-6.327 15.285-11.82 23.749-16.522 14.596-8.121 29.878-14.402 46.629-16.24 10.538-1.148 21.034-.521 31.204 2.711 9.604 3.067 16.437 9.168 19.621 18.962 1.453 4.468 1.684 9.104 1.684 13.754.007 51.832.007 103.664.007 155.495v3.652h20.091v-3.253c0-51.364.02-102.721-.047-154.079a69.115 69.115 0 0 0-1.059-11.853zm266.928 39.536h151.013c.138-1.589.349-2.898.354-4.211.015-7.122-.395-14.204-2.011-21.164-5.475-23.438-19.032-39.704-42.374-46.868-16.814-5.164-34.071-6.367-51.431-3.574-18.255 2.948-34.074 11.083-47.534 23.805-11.259 10.65-18.935 23.56-24.121 38.027-5.352 14.926-6.888 30.387-6.351 46.146.492 14.24 3.072 28.025 8.703 41.163 9.597 22.397 25.638 38.339 48.04 47.894 11.715 4.991 23.98 7.441 36.661 8.22 21.392 1.309 41.651-2.621 60.655-12.651 6.391-3.38 12.301-7.465 17.664-12.32.674-.612 1.531-1.396 1.631-2.18.231-1.916.072-3.871.072-5.826-.521.041-.75-.021-.871.07-.522.404-1.009.852-1.519 1.286-9.326 7.931-19.729 14.142-31.186 18.363-18.749 6.922-38.117 8.004-57.651 4.366-19.963-3.727-35.312-14.491-46.112-31.73-7.567-12.085-11.708-25.374-13.773-39.386-1.875-12.712-1.919-25.484-1.029-38.277.25-3.646.755-7.263 1.17-11.153zm2.14-10.169c2.663-12.127 6.701-23.702 14.034-33.871 10.742-14.898 25.28-23.73 43.456-26.266 12.404-1.741 24.777-1.104 36.898 2.2 17.62 4.812 28.378 16.286 32.406 34.08 1.935 8.542 2.677 17.205 2.822 25.937.012.555-.06 1.113-.081 1.64-2.123.595-126.996.727-130.246.13.233-1.28.428-2.584.711-3.85zm667.778 129.782c-6.78 3.488-14.109 4.285-21.548 3.96-9.469-.412-14.325-4.546-16.718-13.706-.046-.18-.07-.379-.114-.555-1.245-4.719-1.393-9.551-1.393-14.383-.021-43.684.018-87.371-.058-131.04-.011-3.859-.294-7.811-1.131-11.565-2.342-10.485-9.146-17.394-18.7-21.787-7.648-3.526-15.786-5.243-24.088-6.323-10.443-1.348-20.953-1.5-31.476-1.339-14.084.215-27.985 1.645-41.479 5.886-4.125 1.287-8.195 2.755-12.244 4.125v7.324c.484 0 .692.06.85 0a234.716 234.716 0 0 0 3.648-1.581c8.973-3.918 18.256-6.847 27.977-8.195 13.757-1.915 27.57-2.235 41.396-1.021 7.377.646 14.618 1.994 21.509 4.911 5.853 2.472 9.757 6.707 11.851 12.652 1.403 3.982 1.859 8.101 1.853 12.296-.022 8.246-.101 16.497.046 24.738.05 2.811-.775 5.142-2.239 7.438-2.865 4.461-6.754 7.905-10.937 11.043-9.617 7.212-20.278 12.552-31.303 17.198-13.693 5.755-27.485 11.303-41.205 17.018-6.489 2.713-12.605 6.12-18.181 10.452-7.379 5.724-12.874 12.821-15.397 21.931-2.087 7.494-2.32 15.145-1.382 22.832 1.803 14.789 9.157 25.595 22.876 31.854 7.166 3.285 14.738 4.874 22.511 5.489 6.903.546 13.807.456 20.676-.731 9.507-1.64 18.521-4.727 27.088-9.103 10.47-5.35 19.979-11.973 27.289-21.385.25-.33.674-.525 1.272-.974.181 1.015.313 1.726.438 2.452.426 2.512.639 5.078 1.304 7.539 3.021 11.133 9.737 18.788 21.296 21.258 11.801 2.522 23.354 1.676 34.339-3.789 2.876-1.434 2.927-1.508 2.135-5.133-.258.073-.535.093-.761.214zm-61.56-25.606c-13.412 15.77-30.474 24.988-50.858 27.854-8.772 1.229-17.59.586-26.086-2.319-10.103-3.445-17.069-10.166-20.031-20.441-3.685-12.812-3.368-25.665 1.247-38.219 3.687-10.035 11.098-16.892 20.38-21.604 7.243-3.675 14.795-6.748 22.304-9.875 11.972-4.982 24.002-9.835 35.134-16.593 3.469-2.104 6.811-4.457 10.092-6.849 3.539-2.59 6.65-5.628 8.914-9.458.197.04.395.07.593.099v2.749c0 29.919-.016 59.852.035 89.771 0 1.919-.468 3.417-1.724 4.885zm-141.72 20.137c-3.752 2.261-7.756 3.921-11.946 5.188-7.607 2.305-15.414 2.978-23.302 2.957-4.849 0-9.616-.641-14.198-2.4-7.706-2.967-12.726-8.295-14.823-16.344-1.186-4.514-1.653-9.11-1.653-13.777-.004-51.34-.004-102.7 0-154.055 0-.811.105-1.638.181-2.705h20.925c6.916 0 13.833.029 20.751-.011 6.863-.04 13.73.176 20.587-.141v-5.824h-37.37c-4.17 0-8.336.009-12.51 0-4.123-.011-8.25-.04-12.619-.06v-55.772c-6.858 2.633-13.354 5.118-20 7.665v48.128c-10.167.696-20.126 1.368-30.093 2.055v4h30.15v3.974c0 48.89-.002 97.783.006 146.669 0 2.169-.022 4.364.108 6.54.402 6.566 1.729 12.938 4.79 18.844 5.289 10.199 13.922 16.095 24.894 18.557 13.816 3.098 27.654 2.58 41.368-.832 5.619-1.398 11.037-3.414 16.064-6.344.738-.435 1.649-1.242 1.739-1.965.246-1.915.085-3.88.085-6.186-1.356.798-2.25 1.312-3.134 1.839zm365.306-179.851c-19.812 48.152-39.609 96.304-59.414 144.46-4.176 10.16-8.343 20.328-12.562 30.457-.392.953-.388 2.332-2.298 2.612-11.909-29.911-23.675-59.922-35.531-89.896-11.91-30.093-23.765-60.206-35.604-90.202-3.859-.531-19.824-.38-22.072.237 26.955 65.97 53.899 131.907 80.789 197.719h14.542c27.438-66.113 54.787-132.004 82.218-198.097h-8.884c-.426.976-.832 1.828-1.184 2.71z"/><path fill="#00B3F1" d="M2055.887 292.403c-8.123-27.724-24.751-48.523-50.988-61.048-23.59-11.273-48.312-13.16-73.416-6.492-32.673 8.676-55.109 29.128-66.88 60.922-5.269 14.233-6.661 29.079-6.109 44.172.466 12.792 2.744 25.193 7.535 37.094 8.602 21.354 22.729 37.917 43.18 48.684 24.911 13.112 51.208 15.812 78.277 8.578 29.446-7.859 50.763-25.781 63.363-53.737 6.617-14.677 9.201-30.161 9.148-47.248.072-9.766-1.059-20.492-4.11-30.925z"/></svg>