<svg id="settings-icon" xmlns="http://www.w3.org/2000/svg" viewBox="0 0 26.22 26.38">
  <defs>
    <style>
      .cls-1, .cls-2 {
        fill: #00b3f1;
      }

      .cls-1 {
        stroke: #fff;
        stroke-linecap: round;
        stroke-linejoin: round;
      }

      .cls-3 {
        fill: #fff;
      }

      .cls-4 {
        fill: #fff;
      }
    </style>
  </defs>
  <title>settings-icon</title>
  <g>
    <line class="cls-1" x1="13.16" y1="17.82" x2="13.16" y2="25.85"/>
    <line class="cls-1" x1="13.16" y1="8.83" x2="13.16" y2="0.5"/>
    <g>
      <circle class="cls-2" cx="13.16" cy="13.33" r="1.65"/>
      <path class="cls-3" d="M514.2,162.3a1.15,1.15,0,1,1-1.15,1.15,1.15,1.15,0,0,1,1.15-1.15m0-1a2.15,2.15,0,1,0,2.15,2.15,2.15,2.15,0,0,0-2.15-2.15h0Z" transform="translate(-501.04 -150.12)"/>
    </g>
    <line class="cls-1" x1="24.07" y1="7.42" x2="24.07" y2="25.88"/>
    <g>
      <circle class="cls-4" cx="24.07" cy="2.93" r="1.65"/>
      <path class="cls-3" d="M525.11,151.9A1.15,1.15,0,1,1,524,153a1.15,1.15,0,0,1,1.15-1.15m0-1a2.15,2.15,0,1,0,2.15,2.15,2.15,2.15,0,0,0-2.15-2.15h0Z" transform="translate(-501.04 -150.12)"/>
    </g>
    <line class="cls-1" x1="2.15" y1="19.02" x2="2.15" y2="0.57"/>
    <g>
      <circle class="cls-4" cx="2.15" cy="23.51" r="1.65"/>
      <path class="cls-3" d="M503.19,172.48a1.15,1.15,0,1,1-1.15,1.15,1.15,1.15,0,0,1,1.15-1.15m0-1a2.15,2.15,0,1,0,2.15,2.15,2.15,2.15,0,0,0-2.15-2.15h0Z" transform="translate(-501.04 -150.12)"/>
    </g>
  </g>
</svg>
