<svg width="64" height="54" viewBox="0 0 64 54" xmlns="http://www.w3.org/2000/svg"><path d="M63 11H11.91C11.432 8.167 8.968 6 6 6c-3.309 0-6 2.691-6 6v37c0 2.757 2.243 5 5 5h58a1 1 0 0 0 1-1V12a1 1 0 0 0-1-1zM6 8c2.206 0 4 1.794 4 4v32.531a5.98 5.98 0 0 0-8 .009V12c0-2.206 1.794-4 4-4zm56 44H5c-1.654 0-3-1.346-3-3 0-2.206 1.794-4 4-4s4 1.794 4 4a1 1 0 1 0 2 0V13h50v39z"/><path d="M15 50h44a1 1 0 0 0 1-1V32a1 1 0 0 0-1-1h-7a1 1 0 0 0-1 1v9H15a1 1 0 0 0-1 1v7a1 1 0 0 0 1 1zm1-7h36a1 1 0 0 0 1-1v-9h5v4h-2v2h2v4h-2v2h2v3h-6v-2h-2v2h-4v-3h-2v3h-4v-2h-2v2h-4v-3h-2v3h-4v-2h-2v2h-4v-3h-2v3h-4v-5zm4.445-34.168c.164.109.358.168.555.168h28a1 1 0 0 0 1-1V4a1 1 0 0 0-1-1h-5V1a1 1 0 0 0-1-1h-7v2h6v1H21c-.197 0-.391.059-.555.168L17.697 5H15v2h2.697l2.748 1.832zM24 5h20v2H24V5zm24 2h-2V5h2v2zM21.303 5H22v2h-.697l-1.5-1 1.5-1zm28.111 12H60v-2H49a.996.996 0 0 0-.707.293l-3 3 1.414 1.414L49.414 17z"/><path d="M50 19h3v2h-3zm5 0h5v2h-5zm2 4h3v2h-3zm-7 0h5v2h-5zM19 39h16a1 1 0 0 0 1-1v-4h-2v3H20V25h3v-2h-4a1 1 0 0 0-1 1v14a1 1 0 0 0 1 1z"/><path d="M26 32h16a1 1 0 0 0 1-1V17a1 1 0 0 0-1-1H26a1 1 0 0 0-1 1v14a1 1 0 0 0 1 1zm1-14h14v12H27V18z"/></svg>