<svg width="60" height="60" viewBox="0 0 60 60" xmlns="http://www.w3.org/2000/svg"><path d="M22 25.002A3.005 3.005 0 0 0 25.002 22 3.005 3.005 0 0 0 22 18.998 3.005 3.005 0 0 0 18.998 22 3.005 3.005 0 0 0 22 25.002zm0-4.004a1.003 1.003 0 0 1 0 2.004 1.003 1.003 0 0 1 0-2.004z"/><path d="M59 0H1a1 1 0 0 0-1 1v42a1 1 0 0 0 1 1h25v10H14c-2.757 0-5 2.243-5 5a1 1 0 0 0 1 1h40a1 1 0 0 0 1-1c0-2.757-2.243-5-5-5H34V44h25a1 1 0 0 0 1-1V1a1 1 0 0 0-1-1zM40 26.586V23h3a1 1 0 0 0 1-1v-6h2v4h2v-4h2v4h2v-4h2v4h2v-4h2v14H43.414L40 26.586zM28.128 37.19c-.984.317-1.178.38-2.156.702l-1.428-2.343a1 1 0 0 0-.854-.48h-3.38a1 1 0 0 0-.854.48l-1.428 2.343a275.77 275.77 0 0 0-2.156-.702l.225-2.73a.999.999 0 0 0-.41-.89l-1.043-.756c-.512-.37-.925-.668-1.684-1.222a1.004 1.004 0 0 0-.974-.116l-2.542 1.057L8.105 30.7l1.794-2.089a1 1 0 0 0 .192-.962l-1.05-3.22a1.002 1.002 0 0 0-.72-.661L5.65 23.13v-2.263l2.674-.645a1 1 0 0 0 .716-.66l1.05-3.211a1 1 0 0 0-.191-.962l-1.794-2.09 1.34-1.833 2.541 1.057a1 1 0 0 0 .974-.116c.76-.554 1.172-.852 1.684-1.222l1.043-.755a.999.999 0 0 0 .41-.892l-.225-2.73c.984-.316 1.178-.38 2.156-.7l1.428 2.342a1 1 0 0 0 .854.48h3.38a1 1 0 0 0 .854-.48l1.428-2.343c.97.319 1.169.384 2.156.702l-.225 2.73a.999.999 0 0 0 .41.89l1.043.756c.512.37.925.668 1.684 1.222.281.206.65.248.974.116l2.542-1.057 1.339 1.834-1.794 2.089a.998.998 0 0 0-.192.96l.07.215-5.272-5.271A1 1 0 0 0 28 11h-6a1 1 0 0 0-.707.293l-4 4A1 1 0 0 0 18 17h6.586L27 19.414v5.172L24.586 27H18a1 1 0 0 0-.707 1.707l4 4A1 1 0 0 0 22 33h6a1 1 0 0 0 .707-.293l5.272-5.271-.07.214a.998.998 0 0 0 .192.961l1.794 2.09-1.34 1.833-2.541-1.057a1.009 1.009 0 0 0-.974.116c-.76.554-1.172.852-1.684 1.222l-1.043.755a.999.999 0 0 0-.41.892l.225 2.73zM35.83 24H35a1 1 0 0 0-.707.293L27.586 31h-5.172l-2-2H25a1 1 0 0 0 .707-.293l3-3A1 1 0 0 0 29 25v-6a1 1 0 0 0-.293-.707l-3-3A1 1 0 0 0 25 15h-4.586l2-2h5.172l6.707 6.707A1 1 0 0 0 35 20h7v1h-3a1 1 0 0 0-1 1v2h-2.17zM2 2h56v12H43a1 1 0 0 0-1 1v3h-5.447c-.2-.606-.342-1.04-.568-1.735L37.929 14a1 1 0 0 0 .048-1.242L35.708 9.65a1 1 0 0 0-1.192-.335l-2.75 1.145-1.239-.898-.584-.422.244-2.96c.038-.462-.29-.905-.732-1.046-1.687-.543-1.687-.543-2.95-.957l-.663-.218a.997.997 0 0 0-1.166.43l-1.548 2.54h-2.256l-1.548-2.54a.997.997 0 0 0-1.166-.43l-.664.218c-1.262.414-1.262.414-2.99.97a1 1 0 0 0-.69 1.034l.243 2.959-.584.422c-.403.291-.744.538-1.238.898L9.484 9.316a1.001 1.001 0 0 0-1.192.335L6.023 12.76A1 1 0 0 0 6.071 14l1.944 2.264-.702 2.144-2.897.7a1 1 0 0 0-.766.971v3.84a1 1 0 0 0 .768.973l2.895.69.702 2.152L6.071 30a.992.992 0 0 0-.168 1H4v2h2v-1.806c.01.015.013.033.023.047l2.269 3.108c.271.373.763.51 1.192.335l2.75-1.145 1.239.898.584.422-.244 2.96c-.038.462.29.905.732 1.046 1.687.543 1.687.543 2.95.957l.663.218a.998.998 0 0 0 1.166-.43l1.548-2.54h2.256l1.548 2.54a1.001 1.001 0 0 0 1.166.43l.664-.218c1.262-.414 1.262-.414 2.99-.97a1 1 0 0 0 .69-1.034l-.243-2.959.584-.422c.403-.291.744-.538 1.238-.898l2.751 1.145a1 1 0 0 0 1.192-.335l2.269-3.108A1 1 0 0 0 37.929 30l-1.944-2.264.078-.24c.183-.561.315-.967.489-1.495H38v1a1 1 0 0 0 .293.707L42 31.414V42H2V2zm46.829 56H11.17A3.005 3.005 0 0 1 14 56h32c1.304 0 2.416.836 2.829 2zM32 54h-4V44h4v10zm26-12H44V32h14v10z"/><path d="M54 8h2V5a1 1 0 0 0-1-1h-7v2h6v2zm0 2h2v2h-2zM6 35H4v4a1 1 0 0 0 1 1h4v-2H6v-3z"/></svg>