<svg width="60" height="60" viewBox="0 0 60 60" xmlns="http://www.w3.org/2000/svg"><path d="M12.446 28.554H6.86V18.15a.938.938 0 0 0-.93-.946.938.938 0 0 0-.931.946v21.756c0 .523.417.946.93.946a.938.938 0 0 0 .931-.946v-9.459h5.585v.525c0 .93.741 1.684 1.656 1.684h.838a15.458 15.458 0 0 0 2.122 5.202l-.596.606a1.703 1.703 0 0 0 0 2.365l2.048 2.08a1.638 1.638 0 0 0 2.326 0l.596-.605a14.936 14.936 0 0 0 5.119 2.157v.851c-.001.449.173.879.485 1.196.312.317.735.494 1.176.493h2.895c.915 0 1.656-.754 1.656-1.684v-.851a14.936 14.936 0 0 0 5.119-2.157l.596.606a1.638 1.638 0 0 0 2.326 0l2.048-2.082a1.703 1.703 0 0 0 0-2.364l-.596-.606a15.458 15.458 0 0 0 2.122-5.202h.838c.44 0 .864-.177 1.176-.494.312-.317.486-.747.485-1.195v-.525h3.258v12.297c0 .523.416.946.93.946s.931-.423.931-.946v-22.23a.938.938 0 0 0-.93-.945.938.938 0 0 0-.931.946v8.04H46.88v-.525c0-.93-.742-1.684-1.656-1.684h-.838a15.458 15.458 0 0 0-2.122-5.202l.596-.606a1.703 1.703 0 0 0 0-2.365l-2.03-2.085a1.638 1.638 0 0 0-2.326 0l-.596.605a14.936 14.936 0 0 0-5.119-2.157v-.851a1.7 1.7 0 0 0-.493-1.2A1.643 1.643 0 0 0 31.111 12h-2.895c-.915 0-1.656.754-1.656 1.684v.851a14.936 14.936 0 0 0-5.12 2.157l-.595-.605a1.638 1.638 0 0 0-2.327 0l-2.052 2.062a1.703 1.703 0 0 0 0 2.365l.596.605a15.458 15.458 0 0 0-2.122 5.203h-.838c-.443 0-.868.18-1.18.501a1.7 1.7 0 0 0-.476 1.206v.525zm1.86-.317h1.397a.935.935 0 0 0 .93-.8 13.514 13.514 0 0 1 2.383-5.84.957.957 0 0 0-.093-1.23l-.996-1.012 1.755-1.783.996 1.012a.92.92 0 0 0 1.21.095 13.07 13.07 0 0 1 5.746-2.422.942.942 0 0 0 .787-.946v-1.419h2.48v1.419c-.005.47.33.873.787.946a13.07 13.07 0 0 1 5.747 2.422.92.92 0 0 0 1.21-.095l.995-1.012 1.755 1.783-.991 1.017a.957.957 0 0 0-.094 1.23 13.514 13.514 0 0 1 2.383 5.836.935.935 0 0 0 .93.8h1.397v2.52h-1.396a.935.935 0 0 0-.93.8 13.514 13.514 0 0 1-2.384 5.84.957.957 0 0 0 .094 1.23l.995 1.013-1.754 1.783-.996-1.012a.92.92 0 0 0-1.21-.095 13.07 13.07 0 0 1-5.747 2.426.942.942 0 0 0-.786.946v1.42H28.42v-1.42a.942.942 0 0 0-.787-.946 13.07 13.07 0 0 1-5.747-2.421.92.92 0 0 0-1.21.094l-.995 1.012-1.755-1.783.996-1.012a.957.957 0 0 0 .093-1.23 13.514 13.514 0 0 1-2.382-5.84.935.935 0 0 0-.931-.8h-1.396v-2.526z"/><path d="M30 41c5.523 0 10-4.701 10-10.5S35.523 20 30 20s-10 4.701-10 10.5S24.477 41 30 41zm-7.273-11.455h-.854a8.775 8.775 0 0 1 1.74-4.4l.6.63a.88.88 0 0 0 .88.247.933.933 0 0 0 .642-.675.988.988 0 0 0-.235-.923l-.6-.606a7.94 7.94 0 0 1 4.19-1.852v.898c0 .527.408.954.91.954s.91-.427.91-.954v-.898a7.94 7.94 0 0 1 4.19 1.852l-.6.606a.988.988 0 0 0-.235.923c.084.33.329.587.643.675a.88.88 0 0 0 .878-.247l.6-.63a8.775 8.775 0 0 1 1.741 4.4h-.854c-.502 0-.91.428-.91.955 0 .527.408.955.91.955h.854a8.775 8.775 0 0 1-1.74 4.4l-.6-.63a.88.88 0 0 0-.88-.247.933.933 0 0 0-.642.675.988.988 0 0 0 .235.923l.6.606a7.94 7.94 0 0 1-4.19 1.852v-.898c0-.527-.408-.954-.91-.954s-.91.427-.91.954v.898a7.94 7.94 0 0 1-4.19-1.852l.6-.63a.988.988 0 0 0 .235-.923.933.933 0 0 0-.643-.675.88.88 0 0 0-.878.247l-.6.63a8.773 8.773 0 0 1-1.741-4.376h.854c.502 0 .91-.428.91-.955 0-.527-.408-.955-.91-.955z"/><path d="M26 31h4a1 1 0 0 0 1-1v-4a1 1 0 0 0-2 0v3h-3a1 1 0 0 0 0 2zm33.909 28.468a.918.918 0 0 0-.124-.99l-2.645-3.145v-8.4a.943.943 0 0 0-.953-.933H43.8a.943.943 0 0 0-.953.933v8.4l-2.644 3.16a.918.918 0 0 0-.108.978c.156.32.484.524.846.529h18.106a.955.955 0 0 0 .863-.532zM44.752 47.867h10.482V54.4H44.752v-6.533zm-1.801 10.266l1.563-1.866h10.959l1.563 1.866H42.95zM2.321 17h8.358C11.96 17 13 15.971 13 14.703V4.595c0-.61-.245-1.194-.68-1.625a2.334 2.334 0 0 0-1.641-.673H9.286v-.46A1.848 1.848 0 0 0 7.429 0H5.57a1.848 1.848 0 0 0-1.857 1.838v.46H2.321C1.04 2.297 0 3.325 0 4.594v10.108C0 15.97 1.04 17 2.321 17zm3.25-15.162H7.43v1.838H5.57V1.838zM1.857 4.595c0-.254.208-.46.464-.46h1.393v.46c0 .507.416.919.929.919h3.714a.924.924 0 0 0 .929-.92v-.459h1.393c.256 0 .464.206.464.46v10.108c0 .253-.208.46-.464.46H2.32a.462.462 0 0 1-.464-.46V4.595z"/><path d="M4.98 9h4.04A.99.99 0 0 0 10 8a.99.99 0 0 0-.98-1H4.98A.99.99 0 0 0 4 8c0 .552.439 1 .98 1zm0 4h4.04a.99.99 0 0 0 .98-1 .99.99 0 0 0-.98-1H4.98A.99.99 0 0 0 4 12c0 .552.439 1 .98 1zM3 47c0 2.21 1.567 4 3.5 4s3.5-1.79 3.5-4-1.567-4-3.5-4S3 44.79 3 47zm5.25 0c0 1.105-.784 2-1.75 2s-1.75-.895-1.75-2 .784-2 1.75-2 1.75.895 1.75 2zM.923 60h10.154c.51 0 .923-.417.923-.93v-4.22c0-.936-.464-1.81-1.237-2.327a3.012 3.012 0 0 0-2.77-.325 5.52 5.52 0 0 1-3.945 0 3.012 3.012 0 0 0-2.77.325A2.834 2.834 0 0 0 0 54.883v4.186c0 .514.413.931.923.931zm.923-5.146c0-.324.161-.626.43-.805a1.178 1.178 0 0 1 1.089-.12 7.366 7.366 0 0 0 5.266 0c.36-.142.767-.097 1.089.12.268.179.43.481.43.805h.922l-.918.028v3.257H1.846v-3.285zM51.5 0C47.916 0 45 3.026 45 6.748a6.464 6.464 0 0 0 1.068 3.362c.2.313.413.636.631.96.766 1.148 1.56 2.333 1.723 3.546.028.212.107.853.148 1.536a.927.927 0 0 0-.856.994.93.93 0 0 0 1 .85h5.572a.93.93 0 0 0 1.007-.843.928.928 0 0 0-.85-1.001c.025-.576.094-1.15.205-1.716.26-1.19.956-2.158 1.69-3.187l.464-.632A6.762 6.762 0 0 0 58 6.747C58 3.027 55.084 0 51.5 0zm3.756 9.58l-.432.608c-.812 1.135-1.657 2.306-1.996 3.87a13.577 13.577 0 0 0-.246 2.09h-2.15a23.837 23.837 0 0 0-.167-1.763c-.218-1.637-1.175-3.067-2.02-4.326a17.024 17.024 0 0 1-.59-.922 4.592 4.592 0 0 1-.798-2.39c0-2.702 2.085-4.902 4.643-4.902s4.643 2.2 4.643 4.903a4.93 4.93 0 0 1-.887 2.831z"/><path d="M50.506 3.132a6.314 6.314 0 0 0-2.35 2.347.987.987 0 0 0-.03 1.013.995.995 0 0 0 1.749-.023 4.335 4.335 0 0 1 1.624-1.614.991.991 0 0 0 .368-1.356 1 1 0 0 0-1.361-.367z"/></svg>