<svg width="60" height="60" viewBox="0 0 60 60" xmlns="http://www.w3.org/2000/svg"><path d="M23.293 13.707l1.414-1.414L21.414 9l3.293-3.293-1.414-1.414-4 4a.999.999 0 0 0 0 1.414l4 4zm13.414 0l4-4a.999.999 0 0 0 0-1.414l-4-4-1.414 1.414L38.586 9l-3.293 3.293 1.414 1.414zM27 12h6v2h-6zm-10 6h4v2h-4zm6 0h20v2H23zm-6 6h4v2h-4zm6 0h20v2H23zm-6 6h4v2h-4zm12 14h2v2h-2zm4 0h2v2h-2zM23 30h20v2H23zm-1.707 6.293l-4 4a.999.999 0 0 0 0 1.414l4 4 1.414-1.414L19.414 41l3.293-3.293-1.414-1.414zm17.414 0l-1.414 1.414L40.586 41l-3.293 3.293 1.414 1.414 4-4a.999.999 0 0 0 0-1.414l-4-4zm-14.629 9.322l5-12 1.846.769-5 12z"/><path d="M53.223 0c-.075 0-.148.009-.223.011V0H21c-.04 0-.08.002-.119.007-4.263.175-7.699 3.611-7.874 7.875A.912.912 0 0 0 13 8v40H6c-3.309 0-6 2.691-6 6s2.691 6 6 6h32.777C43.388 60 47 56.486 47 52V8.222A6.229 6.229 0 0 1 53.223 2 4.784 4.784 0 0 1 58 6.778a3.626 3.626 0 0 1-3.622 3.622 2.7 2.7 0 0 1-2.698-2.698 1.96 1.96 0 0 1 1.959-1.958v-2a3.963 3.963 0 0 0-3.959 3.958 4.703 4.703 0 0 0 4.698 4.698c3.1 0 5.622-2.522 5.622-5.622A6.785 6.785 0 0 0 53.223 0zM2 54c0-2.206 1.794-4 4-4h27.026A4.948 4.948 0 0 0 32 53v.222c0 1.863.756 3.552 1.976 4.778H6c-2.206 0-4-1.794-4-4zM45.007 7.881A.939.939 0 0 0 45 8v44c0 3.364-2.733 6-6.223 6A4.784 4.784 0 0 1 34 53.222V53c0-1.654 1.346-3 3-3s3 1.346 3 3h2c0-2.757-2.243-5-5-5H15V8.222A6.229 6.229 0 0 1 21.223 2h26.644a8.197 8.197 0 0 0-2.86 5.881z"/></svg>